<svg width="100" height="100" viewBox="0 0 100 100" fill="none" xmlns="http://www.w3.org/2000/svg">
<path d="M87.215 56.71C88.35 54.555 89 52.105 89 49.5C89 42.879 84.841 37.243 78.999 35.022C78.999 35.015 79 35.008 79 35C79 23.402 69.598 14 58 14C48.216 14 40.019 20.701 37.687 29.757C36.211 29.272 34.638 29 33 29C25.308 29 18.977 34.793 18.11 42.252C12.906 43.353 9 47.969 9 53.5C9 59.851 14.149 65 20.5 65C20.677 65 20.852 64.988 21.026 64.978C21.022 65.153 21 65.324 21 65.5C21 76.822 30.178 86 41.5 86C47.937 86 53.675 83.028 57.434 78.386C59.612 80.611 62.64 82 66 82C70.65 82 74.674 79.35 76.666 75.482C77.718 75.817 78.837 76 80 76C86.075 76 91 71.075 91 65C91 61.689 89.53 58.727 87.215 56.71Z" fill="#C7EDE6"/>
<path d="M77.5 60.5V61H80.5V60.5C80.5 60.5 84.742 60.5 86 60.5C88.485 60.5 90.5 58.485 90.5 56C90.5 53.667 88.718 51.771 86.445 51.545C86.467 51.364 86.5 51.187 86.5 51C86.5 48.515 84.485 46.5 82 46.5C80.562 46.5 79.297 47.186 78.473 48.236C78.333 45.6 76.171 43.5 73.5 43.5C70.739 43.5 68.5 45.739 68.5 48.5C68.5 48.946 68.577 49.37 68.687 49.782C68.045 49.005 67.086 48.5 66 48.5C64.219 48.5 62.766 49.835 62.545 51.555C62.364 51.533 62.187 51.5 62 51.5C59.515 51.5 57.5 53.515 57.5 56C57.5 58.485 59.515 60.5 62 60.5C64.485 60.5 71.5 60.5 71.5 60.5H77.5Z" fill="#FDFCEF"/>
<path d="M73.5 43C70.467 43 68 45.467 68 48.5C68 48.516 68 48.531 68 48.547C67.398 48.192 66.71 48 66 48C64.169 48 62.589 49.261 62.142 51.005C62.095 51.002 62.048 51 62 51C59.243 51 57 53.243 57 56C57 58.757 59.243 61 62 61H77.5C77.776 61 78 60.776 78 60.5C78 60.224 77.776 60 77.5 60H62C59.794 60 58 58.206 58 56C58 53.794 59.794 52 62 52C62.117 52 62.23 52.017 62.343 52.032L62.484 52.051C62.505 52.054 62.525 52.055 62.546 52.055C62.792 52.055 63.008 51.87 63.041 51.618C63.232 50.125 64.504 49 66 49C66.885 49 67.723 49.401 68.301 50.1C68.399 50.218 68.542 50.282 68.687 50.282C68.765 50.282 68.843 50.264 68.915 50.226C69.124 50.119 69.229 49.88 69.169 49.653C69.054 49.218 69 48.852 69 48.5C69 46.019 71.019 44 73.5 44C75.881 44 77.847 45.872 77.974 48.263C77.985 48.471 78.124 48.65 78.323 48.713C78.373 48.729 78.424 48.737 78.475 48.737C78.625 48.737 78.771 48.668 78.867 48.545C79.638 47.563 80.779 47 82 47C84.206 47 86 48.794 86 51C86 51.117 85.983 51.23 85.968 51.343L85.949 51.484C85.933 51.618 85.971 51.752 86.055 51.857C86.139 51.962 86.262 52.029 86.395 52.042C88.451 52.247 90 53.949 90 56C90 58.206 88.206 60 86 60H80.5C80.224 60 80 60.224 80 60.5C80 60.776 80.224 61 80.5 61H86C88.757 61 91 58.757 91 56C91 53.603 89.311 51.587 86.997 51.123C86.999 51.082 87 51.041 87 51C87 48.243 84.757 46 82 46C80.824 46 79.707 46.416 78.817 47.164C78.219 44.76 76.055 43 73.5 43Z" fill="#472B29"/>
<path d="M72 50C70.597 50 69.3909 50.999 69.0869 52.341C68.7199 52.119 68.301 52 67.875 52C66.673 52 65.677 52.897 65.522 54.068C65.319 54.022 65.126 54 64.938 54C63.409 54 62.127 55.2 62.02 56.732C62.01 56.87 62.114 56.99 62.251 57C62.257 57 62.263 57 62.269 57C62.399 57 62.509 56.899 62.518 56.768C62.607 55.497 63.6689 54.5 64.9369 54.5C65.1659 54.5 65.407 54.542 65.675 54.627C65.697 54.634 65.7199 54.637 65.7419 54.637C65.7969 54.637 65.852 54.617 65.898 54.583C65.962 54.537 66 54.455 66 54.375C66 53.341 66.841 52.5 67.875 52.5C68.322 52.5 68.76 52.668 69.106 52.973C69.153 53.014 69.212 53.036 69.271 53.036C69.303 53.036 69.3339 53.03 69.3639 53.017C69.4519 52.982 69.5119 52.9 69.5189 52.805C69.6229 51.512 70.712 50.5 72 50.5C72.208 50.5 72.425 50.534 72.682 50.607C72.705 50.614 72.729 50.617 72.752 50.617C72.861 50.617 72.9589 50.544 72.9909 50.435C73.0289 50.302 72.952 50.164 72.819 50.126C72.517 50.04 72.256 50 72 50ZM85.883 51.5C84.557 51.5 83.375 52.397 83.009 53.682C82.971 53.815 83.048 53.953 83.181 53.991C83.205 53.997 83.228 54 83.25 54C83.359 54 83.459 53.928 83.49 53.818C83.795 52.748 84.779 52 85.883 52C86 52 86.113 52.014 86.225 52.029C86.2369 52.031 86.248 52.032 86.26 52.032C86.381 52.032 86.4889 51.94 86.5059 51.815C86.5249 51.678 86.429 51.552 86.292 51.534C86.158 51.516 86.022 51.5 85.883 51.5Z" fill="#472B29"/>
<path d="M15.5 51H5.5C5.224 51 5 50.776 5 50.5C5 50.224 5.224 50 5.5 50H15.5C15.776 50 16 50.224 16 50.5C16 50.776 15.777 51 15.5 51ZM18.5 51H17.5C17.224 51 17 50.776 17 50.5C17 50.224 17.224 50 17.5 50H18.5C18.776 50 19 50.224 19 50.5C19 50.776 18.777 51 18.5 51ZM23.491 53H14.5C14.224 53 14 52.776 14 52.5C14 52.224 14.224 52 14.5 52H23.491C23.767 52 23.991 52.224 23.991 52.5C23.991 52.776 23.767 53 23.491 53ZM12.5 53H11.5C11.224 53 11 52.776 11 52.5C11 52.224 11.224 52 11.5 52H12.5C12.776 52 13 52.224 13 52.5C13 52.776 12.777 53 12.5 53ZM9.5 53H7.5C7.224 53 7 52.776 7 52.5C7 52.224 7.224 52 7.5 52H9.5C9.776 52 10 52.224 10 52.5C10 52.776 9.777 53 9.5 53ZM15.5 55H13.5C13.224 55 13 54.776 13 54.5C13 54.224 13.224 54 13.5 54H15.5C15.776 54 16 54.224 16 54.5C16 54.776 15.776 55 15.5 55ZM18.5 46C18.323 46 17.677 46 17.5 46C17.224 46 17 46.224 17 46.5C17 46.776 17.224 47 17.5 47C17.677 47 18.323 47 18.5 47C18.776 47 19 46.776 19 46.5C19 46.224 18.776 46 18.5 46ZM18.5 48C18.323 48 13.677 48 13.5 48C13.224 48 13 48.224 13 48.5C13 48.776 13.224 49 13.5 49C13.677 49 18.323 49 18.5 49C18.776 49 19 48.776 19 48.5C19 48.224 18.776 48 18.5 48ZM23.5 50C23.323 50 20.677 50 20.5 50C20.224 50 20 50.224 20 50.5C20 50.776 20.224 51 20.5 51C20.677 51 23.323 51 23.5 51C23.776 51 24 50.776 24 50.5C24 50.224 23.776 50 23.5 50Z" fill="white"/>
<path d="M72.5 24H62.5C62.224 24 62 23.776 62 23.5C62 23.224 62.224 23 62.5 23H72.5C72.776 23 73 23.224 73 23.5C73 23.776 72.776 24 72.5 24ZM76.5 24H74.5C74.224 24 74 23.776 74 23.5C74 23.224 74.224 23 74.5 23H76.5C76.776 23 77 23.224 77 23.5C77 23.776 76.776 24 76.5 24ZM81.5 26H71.5C71.224 26 71 25.776 71 25.5C71 25.224 71.224 25 71.5 25H81.5C81.776 25 82 25.224 82 25.5C82 25.776 81.777 26 81.5 26ZM69.5 26H68.5C68.224 26 68 25.776 68 25.5C68 25.224 68.224 25 68.5 25H69.5C69.776 25 70 25.224 70 25.5C70 25.776 69.776 26 69.5 26ZM66.47 26H64.5C64.224 26 64 25.776 64 25.5C64 25.224 64.224 25 64.5 25H66.47C66.746 25 66.97 25.224 66.97 25.5C66.97 25.776 66.746 26 66.47 26ZM75.5 22H70.5C70.224 22 70 21.776 70 21.5C70 21.224 70.224 21 70.5 21H75.5C75.776 21 76 21.224 76 21.5C76 21.776 75.777 22 75.5 22ZM72.5 28H70.5C70.224 28 70 27.776 70 27.5C70 27.224 70.224 27 70.5 27H72.5C72.776 27 73 27.224 73 27.5C73 27.776 72.776 28 72.5 28Z" fill="white"/>
<path d="M52 26.75C45.8337 26.75 39.92 29.1995 35.5598 33.5598C31.1995 37.92 28.75 43.8337 28.75 50C28.75 56.1663 31.1995 62.08 35.5598 66.4402C39.92 70.8005 45.8337 73.25 52 73.25C58.1663 73.25 64.08 70.8005 68.4402 66.4402C72.8005 62.08 75.25 56.1663 75.25 50C75.25 43.8337 72.8005 37.92 68.4402 33.5598C64.08 29.1995 58.1663 26.75 52 26.75Z" fill="#A3A3CD"/>
<path d="M52 73.9498C38.794 73.9498 28.05 63.2058 28.05 49.9998C28.05 36.7938 38.794 26.0498 52 26.0498C65.2061 26.0498 75.95 36.7938 75.95 49.9998C75.95 63.2058 65.2061 73.9498 52 73.9498ZM52 27.4498C39.566 27.4498 29.4501 37.5648 29.4501 49.9998C29.4501 62.4348 39.566 72.5498 52 72.5498C64.4341 72.5498 74.5501 62.4348 74.5501 49.9998C74.5501 37.5648 64.4341 27.4498 52 27.4498Z" fill="#472B29"/>
<path d="M52 30.5C49.4392 30.5 46.9035 31.0044 44.5377 31.9843C42.1718 32.9643 40.0222 34.4007 38.2114 36.2114C36.4007 38.0222 34.9643 40.1718 33.9843 42.5377C33.0044 44.9035 32.5 47.4392 32.5 50C32.5 52.5608 33.0044 55.0965 33.9843 57.4623C34.9643 59.8282 36.4007 61.9778 38.2114 63.7886C40.0222 65.5993 42.1718 67.0357 44.5377 68.0156C46.9035 68.9956 49.4392 69.5 52 69.5C54.5608 69.5 57.0965 68.9956 59.4623 68.0156C61.8282 67.0357 63.9778 65.5993 65.7886 63.7886C67.5993 61.9778 69.0357 59.8282 70.0156 57.4623C70.9956 55.0965 71.5 52.5608 71.5 50C71.5 47.4392 70.9956 44.9035 70.0156 42.5377C69.0357 40.1718 67.5993 38.0222 65.7886 36.2114C63.9778 34.4007 61.8282 32.9643 59.4623 31.9843C57.0965 31.0044 54.5608 30.5 52 30.5Z" fill="#565FA1"/>
<path d="M70.6229 44.9865C70.4089 44.9865 70.2109 44.8485 70.1449 44.6335C70.0609 44.3585 69.9699 44.0855 69.8739 43.8175C69.4989 42.7695 69.0249 41.7485 68.4659 40.7815C68.3269 40.5425 68.4089 40.2365 68.6479 40.0985C68.8879 39.9565 69.1929 40.0405 69.3309 40.2815C69.9199 41.3005 70.4189 42.3765 70.8139 43.4785C70.9159 43.7615 71.0109 44.0495 71.1009 44.3385C71.1819 44.6035 71.0339 44.8825 70.7699 44.9635C70.7209 44.9795 70.6709 44.9865 70.6229 44.9865Z" fill="#472B29"/>
<path d="M52.0001 70.035C40.9531 70.035 31.9651 61.074 31.9651 50.059C31.9651 39.045 40.9521 30.084 52.0001 30.084C57.7341 30.084 63.2041 32.541 67.0071 36.824C67.2941 37.147 67.5711 37.481 67.8381 37.824C68.0071 38.042 67.9681 38.356 67.7511 38.525C67.5341 38.698 67.2191 38.655 67.0491 38.437C66.7961 38.112 66.5331 37.795 66.2601 37.488C62.6461 33.418 57.4491 31.084 52.0011 31.084C41.5051 31.084 32.9661 39.596 32.9661 50.059C32.9661 60.522 41.5041 69.035 52.0001 69.035C62.4961 69.035 71.0351 60.522 71.0351 50.059C71.0351 49.104 70.9631 48.147 70.8221 47.213C70.7811 46.94 70.9691 46.685 71.2421 46.644C71.5161 46.601 71.7701 46.79 71.8111 47.063C71.9601 48.046 72.0351 49.054 72.0351 50.059C72.0351 61.074 63.0471 70.035 52.0001 70.035Z" fill="#472B29"/>
<path d="M36.5 73.5C36.5 73.5 38.067 73.5 40 73.5C41.933 73.5 43.5 71.933 43.5 70C43.5 68.219 42.165 66.766 40.445 66.545C40.473 66.366 40.5 66.187 40.5 66C40.5 64.067 38.933 62.5 37 62.5C35.968 62.5 35.05 62.955 34.41 63.665C34.026 61.857 32.423 60.5 30.5 60.5C28.291 60.5 26.5 62.291 26.5 64.5C26.5 64.691 26.53 64.874 26.556 65.058C26.128 64.714 25.592 64.5 25 64.5C23.772 64.5 22.755 65.387 22.545 66.555C22.366 66.527 22.187 66.5 22 66.5C20.067 66.5 18.5 68.067 18.5 70C18.5 71.933 20.067 73.5 22 73.5C23.933 73.5 29.5 73.5 29.5 73.5V74H36.5V73.5Z" fill="#FDFCEF"/>
<path d="M38.25 69.0002C38.112 69.0002 38 68.8882 38 68.7502C38 67.5272 38.995 66.5322 40.218 66.5322C40.252 66.5412 40.955 66.5312 41.462 66.6682C41.595 66.7042 41.674 66.8412 41.638 66.9742C41.602 67.1082 41.465 67.1872 41.332 67.1502C40.888 67.0302 40.232 67.0302 40.219 67.0322C39.271 67.0322 38.5 67.8032 38.5 68.7502C38.5 68.8882 38.388 69.0002 38.25 69.0002ZM31.5 73.0002C31.3674 73.0002 31.2402 73.0529 31.1464 73.1467C31.0527 73.2404 31 73.3676 31 73.5002C31 73.6328 31.0527 73.76 31.1464 73.8538C31.2402 73.9476 31.3674 74.0002 31.5 74.0002C31.6326 74.0002 31.7598 73.9476 31.8536 73.8538C31.9473 73.76 32 73.6328 32 73.5002C32 73.3676 31.9473 73.2404 31.8536 73.1467C31.7598 73.0529 31.6326 73.0002 31.5 73.0002Z" fill="#472B29"/>
<path d="M40 74H36.5C36.224 74 36 73.776 36 73.5C36 73.224 36.224 73 36.5 73H40C41.654 73 43 71.654 43 70C43 68.504 41.875 67.232 40.382 67.041C40.248 67.023 40.127 66.953 40.046 66.845C39.965 66.737 39.931 66.601 39.952 66.468C39.975 66.314 40 66.16 40 66C40 64.346 38.654 63 37 63C36.15 63 35.362 63.355 34.781 64C34.656 64.139 34.46 64.198 34.281 64.148C34.099 64.099 33.96 63.953 33.921 63.769C33.58 62.165 32.141 61 30.5 61C28.57 61 27 62.57 27 64.5C27 64.643 27.021 64.78 27.041 64.918C27.07 65.121 26.978 65.356 26.799 65.458C26.62 65.56 26.403 65.576 26.243 65.448C25.878 65.155 25.449 65 25 65C24.034 65 23.208 65.691 23.037 66.644C22.989 66.911 22.741 67.09 22.468 67.049C22.314 67.025 22.16 67 22 67C20.346 67 19 68.346 19 70C19 71.654 20.346 73 22 73H29.5C29.776 73 30 73.224 30 73.5C30 73.776 29.776 74 29.5 74H22C19.794 74 18 72.206 18 70C18 67.794 19.794 66 22 66C22.059 66 22.116 66.002 22.174 66.006C22.588 64.82 23.711 64 25 64C25.349 64 25.689 64.061 26.011 64.18C26.176 61.847 28.126 60 30.5 60C32.331 60 33.966 61.127 34.653 62.774C35.333 62.276 36.155 62 37 62C39.206 62 41 63.794 41 66C41 66.048 40.999 66.095 40.996 66.142C42.739 66.59 44 68.169 44 70C44 72.206 42.206 74 40 74Z" fill="#472B29"/>
<path d="M34.5 73C34.341 73 33.659 73 33.5 73C33.224 73 33 73.224 33 73.5C33 73.776 33.224 74 33.5 74C33.659 74 34.341 74 34.5 74C34.776 74 35 73.776 35 73.5C35 73.224 34.776 73 34.5 73Z" fill="#472B29"/>
<path d="M63.5399 41.8301C63.8249 40.2451 63.6549 38.3311 63.0149 36.4131C59.7949 36.4131 57.3139 38.6031 56.8909 39.0011H47.6769C47.2529 38.6041 44.7729 36.4131 41.5529 36.4131C40.9769 38.1411 40.7829 39.8631 40.9559 41.3471C39.1439 42.9921 37.9999 45.3591 37.9999 48.0001C37.9999 52.9711 42.0289 57.0001 46.9999 57.0001H48.8349C47.3939 57.6601 46.3419 59.0001 46.0789 60.6151C44.4599 60.7801 42.5009 60.6301 41.5529 59.2081C39.7829 56.5531 38.8979 56.5531 38.0129 56.5531C37.1279 56.5531 37.1279 57.4381 38.0129 58.3231C38.8979 59.2081 38.8979 59.2081 39.7829 60.9781C40.5119 62.4361 42.3949 64.0871 46.0009 63.6391V66.9701C46.0009 67.6221 46.0179 68.0991 46.2509 68.6661C48.4179 69.4161 52.5469 69.9781 57.6689 68.6971C57.8749 68.1591 57.9999 67.5811 57.9999 66.9701V61.3951C57.9999 59.4391 56.8339 57.7641 55.1649 56.9991H56.9999C61.9709 56.9991 65.9999 52.9701 65.9999 47.9991C65.9999 45.6091 65.0609 43.4411 63.5399 41.8301Z" fill="#FEFDEF"/>
<path d="M51.6989 69.9611C48.7899 69.9611 46.8209 69.3941 46.0869 69.1401C45.9519 69.0931 45.8429 68.9911 45.7879 68.8581C45.5209 68.2091 45.4999 67.6671 45.4999 66.9711V64.1911C41.3289 64.4881 39.7339 62.0011 39.3349 61.2031C38.4859 59.5051 38.4859 59.5051 37.6589 58.6781C36.9709 57.9901 36.6979 57.2451 36.9289 56.6881C37.0959 56.2861 37.4909 56.0541 38.0119 56.0541C39.2049 56.0541 40.1869 56.2601 41.9679 58.9321C42.7229 60.0641 44.3239 60.2291 45.6619 60.1501C45.9079 59.1251 46.4469 58.2081 47.2019 57.5021H46.9999C41.7619 57.5021 37.4999 53.2401 37.4999 48.0021C37.4999 45.4241 38.5659 42.9421 40.4329 41.1511C40.2969 39.6231 40.5179 37.9361 41.0789 36.2551C41.1469 36.0511 41.3379 35.9131 41.5529 35.9131C44.6829 35.9131 47.1319 37.8461 47.8709 38.5011H56.6979C57.4369 37.8461 59.8859 35.9131 63.0149 35.9131C63.2299 35.9131 63.4209 36.0511 63.4889 36.2551C64.1119 38.1211 64.3159 40.0331 64.0729 41.6721C65.6399 43.4191 66.4999 45.6561 66.4999 48.0001C66.4999 53.2381 62.2379 57.5001 56.9999 57.5001H56.7989C57.8639 58.4941 58.4999 59.9001 58.4999 61.3961V66.9711C58.4999 67.6041 58.3769 68.2441 58.1349 68.8761C58.0769 69.0281 57.9479 69.1431 57.7889 69.1831C55.4709 69.7631 53.4199 69.9611 51.6989 69.9611ZM46.6359 68.2691C47.9749 68.6921 51.8039 69.5911 57.2869 68.2761C57.4289 67.8391 57.4999 67.4021 57.4999 66.9711V61.3961C57.4999 59.7081 56.5019 58.1621 54.9569 57.4561C54.7429 57.3571 54.6259 57.1241 54.6759 56.8941C54.7259 56.6651 54.9289 56.5001 55.1649 56.5001H56.9999C61.6869 56.5001 65.4999 52.6871 65.4999 48.0001C65.4999 45.8301 64.6749 43.7611 63.1759 42.1731C63.0669 42.0581 63.0199 41.8981 63.0479 41.7421C63.3049 40.3111 63.1639 38.6121 62.6519 36.9221C59.8149 37.0751 57.6519 38.9721 57.2319 39.3641C57.1399 39.4511 57.0169 39.5001 56.8899 39.5001H47.6759C47.5489 39.5001 47.4259 39.4511 47.3339 39.3641C46.9149 38.9711 44.7509 37.0751 41.9139 36.9221C41.4549 38.4401 41.2939 39.9421 41.4519 41.2881C41.4709 41.4481 41.4109 41.6071 41.2919 41.7161C39.5179 43.3281 38.4999 45.6191 38.4999 48.0001C38.4999 52.6871 42.3129 56.5001 46.9999 56.5001H48.8349C49.0699 56.5001 49.2729 56.6641 49.3229 56.8941C49.3729 57.1231 49.2569 57.3571 49.0429 57.4551C47.7279 58.0581 46.8039 59.2691 46.5719 60.6961C46.5349 60.9201 46.3539 61.0911 46.1289 61.1131C43.7339 61.3561 42.0069 60.7931 41.1359 59.4861C39.5139 57.0531 38.7839 57.0531 38.0119 57.0531C37.8849 57.0531 37.8429 57.0811 37.8429 57.0821C37.8239 57.1411 37.8969 57.5001 38.3659 57.9701C39.3089 58.9121 39.3429 58.9821 40.2299 60.7551C40.5729 61.4401 41.9989 63.6391 45.9389 63.1441C46.0809 63.1251 46.2249 63.1701 46.3319 63.2651C46.4389 63.3601 46.5009 63.4961 46.5009 63.6401V66.9711C46.4999 67.4961 46.5099 67.8701 46.6359 68.2691Z" fill="#472B29"/>
<path d="M63.098 50.9053C62.246 52.7933 60.376 54.3613 57.084 54.6253L63.098 50.9053Z" fill="#FEFDEF"/>
<path d="M57.0831 54.8752C56.9541 54.8752 56.8451 54.7752 56.8341 54.6452C56.8231 54.5082 56.9251 54.3872 57.0631 54.3762C60.6591 54.0882 62.2051 52.2732 62.8691 50.8032C62.9261 50.6762 63.0731 50.6202 63.2001 50.6782C63.3251 50.7352 63.3821 50.8822 63.3251 51.0082C62.3081 53.2622 60.0981 54.6352 57.1031 54.8742C57.0971 54.8752 57.0901 54.8752 57.0831 54.8752Z" fill="#472B29"/>
<path d="M63.592 47.165C63.697 47.878 63.695 48.634 63.564 49.382L63.592 47.165Z" fill="#FEFDEF"/>
<path d="M63.5641 49.6323C63.5491 49.6323 63.5351 49.6313 63.5201 49.6283C63.3841 49.6053 63.2931 49.4753 63.3171 49.3393C63.4391 48.6463 63.4481 47.9073 63.3441 47.2013C63.3231 47.0653 63.4181 46.9373 63.5541 46.9183C63.6871 46.9003 63.8181 46.9923 63.8381 47.1293C63.9521 47.8973 63.9421 48.6703 63.8091 49.4253C63.7891 49.5473 63.6831 49.6323 63.5641 49.6323Z" fill="#472B29"/>
<path d="M61.8159 43.8193C62.4149 44.2453 62.9009 44.9353 63.2239 45.7653L61.8159 43.8193Z" fill="#FEFDEF"/>
<path d="M63.224 46.0154C63.124 46.0154 63.03 45.9544 62.991 45.8564C62.676 45.0474 62.22 44.4144 61.671 44.0244C61.559 43.9444 61.532 43.7884 61.612 43.6754C61.693 43.5624 61.849 43.5354 61.961 43.6154C62.589 44.0624 63.107 44.7744 63.457 45.6744C63.507 45.8034 63.443 45.9474 63.315 45.9984C63.285 46.0094 63.254 46.0154 63.224 46.0154Z" fill="#472B29"/>
</svg>
