<svg width="16" height="16" viewBox="0 0 16 16" fill="none" xmlns="http://www.w3.org/2000/svg">
<path d="M6.49609 1C5.67578 1 5 1.67578 5 2.49609V3H2V4H3V12.5C3 13.3242 3.67578 14 4.5 14H10.5C11.3242 14 12 13.3242 12 12.5V4H13V3H10V2.49609C10 1.67578 9.32422 1 8.50391 1H6.49609ZM6.49609 2H8.50391C8.78516 2 9 2.21484 9 2.49609V3H6V2.49609C6 2.21484 6.21484 2 6.49609 2ZM4 4H11V12.5C11 12.7812 10.7812 13 10.5 13H4.5C4.21875 13 4 12.7812 4 12.5V4ZM5 5V12H6V5H5ZM7 5V12H8V5H7ZM9 5V12H10V5H9Z" fill="#FF3860"/>
</svg>
