<svg width="20" height="20" viewBox="0 0 20 20" fill="none" xmlns="http://www.w3.org/2000/svg">
<path d="M10 18.5938C14.7462 18.5938 18.5938 14.7462 18.5938 10C18.5938 5.2538 14.7462 1.40625 10 1.40625C5.2538 1.40625 1.40625 5.2538 1.40625 10C1.40625 14.7462 5.2538 18.5938 10 18.5938Z" fill="white"/>
<path d="M2.34375 10.8125C2.09375 10.8125 1.89063 10.6094 1.875 10.3594C1.875 10.2344 1.85938 10.125 1.85938 10C1.85938 9.73438 2.0625 9.53125 2.32812 9.53125C2.59375 9.53125 2.79687 9.73438 2.79687 10C2.79687 10.1094 2.79687 10.2188 2.79687 10.3281C2.8125 10.5938 2.60938 10.8125 2.34375 10.8125C2.35938 10.8125 2.35938 10.8125 2.34375 10.8125Z" fill="#75FA61"/>
<path d="M10.0001 18.125C6.89069 18.125 4.09381 16.3906 2.71881 13.5937C2.60944 13.3594 2.70319 13.0781 2.93756 12.9687C3.17194 12.8594 3.45319 12.9531 3.56256 13.1875C4.78131 15.6562 7.25006 17.1875 10.0001 17.1875C13.9688 17.1875 17.1876 13.9687 17.1876 9.99999C17.1876 8.07812 16.4376 6.28124 15.0782 4.92187C14.8907 4.73437 14.8907 4.43749 15.0782 4.26562C15.2657 4.07812 15.5626 4.07812 15.7344 4.26562C17.2813 5.79687 18.1251 7.82812 18.1251 9.99999C18.1251 14.4844 14.4844 18.125 10.0001 18.125Z" fill="#75FA61"/>
<path d="M10 7.1875C10.6041 7.1875 11.0938 6.69781 11.0938 6.09375C11.0938 5.48969 10.6041 5 10 5C9.39594 5 8.90625 5.48969 8.90625 6.09375C8.90625 6.69781 9.39594 7.1875 10 7.1875Z" fill="#E4E4E7"/>
<path d="M8.90625 10.625V14.375C8.90625 14.9844 9.39062 15.4688 10 15.4688C10.6094 15.4688 11.0938 14.9844 11.0938 14.375V10.625C11.0938 10.0156 10.6094 9.53125 10 9.53125C9.39062 9.53125 8.90625 10.0156 8.90625 10.625Z" fill="#E4E4E7"/>
<path d="M10 19.0625C5 19.0625 0.9375 15 0.9375 10C0.9375 5 5 0.9375 10 0.9375C15 0.9375 19.0625 5 19.0625 10C19.0625 15 15 19.0625 10 19.0625ZM10 1.875C5.51562 1.875 1.875 5.51562 1.875 10C1.875 14.4844 5.51562 18.125 10 18.125C14.4844 18.125 18.125 14.4844 18.125 10C18.125 5.51562 14.4844 1.875 10 1.875Z" fill="#444B54"/>
<path d="M10 7.65625C9.14062 7.65625 8.4375 6.95312 8.4375 6.09375C8.4375 5.23438 9.14062 4.53125 10 4.53125C10.8594 4.53125 11.5625 5.23438 11.5625 6.09375C11.5625 6.95312 10.8594 7.65625 10 7.65625ZM10 5.46875C9.65625 5.46875 9.375 5.75 9.375 6.09375C9.375 6.4375 9.65625 6.71875 10 6.71875C10.3438 6.71875 10.625 6.4375 10.625 6.09375C10.625 5.75 10.3438 5.46875 10 5.46875Z" fill="#444B54"/>
<path d="M10 15.9375C9.14062 15.9375 8.4375 15.2344 8.4375 14.375V10.625C8.4375 9.76562 9.14062 9.0625 10 9.0625C10.8594 9.0625 11.5625 9.76562 11.5625 10.625V14.375C11.5625 15.2344 10.8594 15.9375 10 15.9375ZM10 10C9.65625 10 9.375 10.2812 9.375 10.625V14.375C9.375 14.7188 9.65625 15 10 15C10.3438 15 10.625 14.7188 10.625 14.375V10.625C10.625 10.2812 10.3438 10 10 10Z" fill="#444B54"/>
</svg>
