<svg width="20" height="20" viewBox="0 0 20 20" fill="none" xmlns="http://www.w3.org/2000/svg">
<path d="M17.8125 17.0312L14.6875 13.9062H3.75C2.89062 13.9062 2.1875 13.2031 2.1875 12.3438V2.1875C2.1875 1.32812 2.89062 0.625 3.75 0.625H16.25C17.1094 0.625 17.8125 1.32812 17.8125 2.1875V17.0312Z" fill="white"/>
<path d="M17.8125 17.5C17.6875 17.5 17.5781 17.4531 17.4844 17.3594L14.5 14.375H3.75C2.625 14.375 1.71875 13.4688 1.71875 12.3438V2.1875C1.71875 1.0625 2.625 0.15625 3.75 0.15625H16.25C17.375 0.15625 18.2812 1.0625 18.2812 2.1875V17.0312C18.2812 17.2188 18.1719 17.3906 17.9844 17.4688C17.9375 17.4844 17.875 17.5 17.8125 17.5ZM3.75 1.09375C3.14062 1.09375 2.65625 1.57812 2.65625 2.1875V12.3438C2.65625 12.9531 3.14062 13.4375 3.75 13.4375H14.6875C14.8125 13.4375 14.9375 13.4844 15.0156 13.5781L17.3438 15.9062V2.1875C17.3438 1.57812 16.8594 1.09375 16.25 1.09375H3.75ZM17.8125 19.8438H6.09375C5.82812 19.8438 5.625 19.6406 5.625 19.375C5.625 19.1094 5.82812 18.9062 6.09375 18.9062H17.8125C18.0781 18.9062 18.2812 19.1094 18.2812 19.375C18.2812 19.6406 18.0781 19.8438 17.8125 19.8438Z" fill="#444B54"/>
<path d="M13.75 6.5625H6.25C5.98438 6.5625 5.78125 6.35938 5.78125 6.09375C5.78125 5.82812 5.98438 5.625 6.25 5.625H13.75C14.0156 5.625 14.2188 5.82812 14.2188 6.09375C14.2188 6.35938 14.0156 6.5625 13.75 6.5625ZM11.4062 8.90625H6.25C5.98438 8.90625 5.78125 8.70312 5.78125 8.4375C5.78125 8.17188 5.98438 7.96875 6.25 7.96875H11.4062C11.6719 7.96875 11.875 8.17188 11.875 8.4375C11.875 8.70312 11.6719 8.90625 11.4062 8.90625ZM13.75 7.96875C13.6257 7.96875 13.5065 8.01814 13.4185 8.10604C13.3306 8.19395 13.2812 8.31318 13.2812 8.4375C13.2812 8.56182 13.3306 8.68105 13.4185 8.76896C13.5065 8.85686 13.6257 8.90625 13.75 8.90625C13.8743 8.90625 13.9935 8.85686 14.0815 8.76896C14.1694 8.68105 14.2188 8.56182 14.2188 8.4375C14.2188 8.31318 14.1694 8.19395 14.0815 8.10604C13.9935 8.01814 13.8743 7.96875 13.75 7.96875Z" fill="#71C2FF"/>
<path d="M3.75 18.9062C3.62568 18.9062 3.50645 18.9556 3.41854 19.0435C3.33064 19.1315 3.28125 19.2507 3.28125 19.375C3.28125 19.4993 3.33064 19.6185 3.41854 19.7065C3.50645 19.7944 3.62568 19.8438 3.75 19.8438C3.87432 19.8438 3.99355 19.7944 4.08146 19.7065C4.16936 19.6185 4.21875 19.4993 4.21875 19.375C4.21875 19.2507 4.16936 19.1315 4.08146 19.0435C3.99355 18.9556 3.87432 18.9062 3.75 18.9062Z" fill="#444B54"/>
</svg>
