<svg width="298" height="181" viewBox="0 0 298 181" fill="none" xmlns="http://www.w3.org/2000/svg">
<g clip-path="url(#clip0)">
<path d="M36.0109 181L35.4995 180.885C41.2016 155.62 55.5313 132.676 75.8491 116.281C91.21 103.905 109.479 95.6282 128.937 92.2293C148.395 88.8305 168.401 90.4216 187.071 96.8529C205.741 103.284 222.461 114.344 235.657 128.991C248.853 143.638 258.091 161.391 262.5 180.577L261.989 180.693C249.919 127.888 203.47 91.0078 149.035 91.0078C95.3127 91.0078 47.7792 128.855 36.0109 181Z" fill="#3F3D56"/>
<path d="M109.328 32.308C117.19 32.308 123.563 25.9577 123.563 18.1241C123.563 10.2905 117.19 3.94019 109.328 3.94019C101.466 3.94019 95.092 10.2905 95.092 18.1241C95.092 25.9577 101.466 32.308 109.328 32.308Z" fill="#FF6584"/>
<path d="M47.9971 177.778C48.4411 179.413 49.9618 180.426 49.9618 180.426C49.9618 180.426 50.7627 178.787 50.3187 177.152C49.8747 175.517 48.354 174.504 48.354 174.504C48.354 174.504 47.5531 176.143 47.9971 177.778Z" fill="#3F3D56"/>
<path d="M48.6496 177.426C49.8679 178.608 50.0167 180.424 50.0167 180.424C50.0167 180.424 48.1903 180.325 46.9721 179.143C45.7538 177.962 45.605 176.145 45.605 176.145C45.605 176.145 47.4314 176.245 48.6496 177.426Z" fill="#00D1B2"/>
<path d="M81.8072 177.778C82.2511 179.413 83.7718 180.426 83.7718 180.426C83.7718 180.426 84.5727 178.787 84.1287 177.152C83.6848 175.517 82.1641 174.504 82.1641 174.504C82.1641 174.504 81.3632 176.143 81.8072 177.778Z" fill="#3F3D56"/>
<path d="M82.4597 177.426C83.678 178.608 83.8268 180.424 83.8268 180.424C83.8268 180.424 82.0004 180.325 80.7821 179.143C79.5639 177.962 79.415 176.145 79.415 176.145C79.415 176.145 81.2414 176.245 82.4597 177.426Z" fill="#00D1B2"/>
<path d="M88.5114 47.5245L83.1584 43.2574L113.135 16.59H189.147V40.0574L139.9 73.1252L88.5114 47.5245Z" fill="#3F3D56"/>
<path d="M203.006 31.5489V17.1227H192.914V20.6557L189.147 16.59L164.524 43.2574L154.888 49.6577L139.948 158.413L162.48 180.862H214.842V44.3242L203.006 31.5489Z" fill="#CCCCCC"/>
<path d="M164.524 43.2576H83.1587V180.862H164.524V43.2576Z" fill="#F2F2F2"/>
<path d="M129.729 147.261H114.741V180.862H129.729V147.261Z" fill="#CCCCCC"/>
<path d="M98.6822 156.861V151.528H92.2588V156.861H98.147H98.6822Z" fill="#3F3D56"/>
<path d="M98.147 161.128H92.2588V166.462H98.6822V161.128H98.147Z" fill="#3F3D56"/>
<path d="M109.388 151.528H102.965V156.862H109.388V151.528Z" fill="#3F3D56"/>
<path d="M109.388 161.128H102.965V166.462H109.388V161.128Z" fill="#3F3D56"/>
<path d="M142.576 156.861V151.528H136.153V156.861H142.041H142.576Z" fill="#3F3D56"/>
<path d="M142.041 161.128H136.153V166.462H142.576V161.128H142.041Z" fill="#3F3D56"/>
<path d="M153.282 151.528H146.859V156.862H153.282V151.528Z" fill="#3F3D56"/>
<path d="M153.282 161.128H146.859V166.462H153.282V161.128Z" fill="#3F3D56"/>
<path d="M187.541 50.1911V44.8578H181.118V50.1911H187.006H187.541Z" fill="#3F3D56"/>
<path d="M187.006 54.4581H181.118V59.7914H187.541V54.4581H187.006Z" fill="#3F3D56"/>
<path d="M198.247 44.8577H191.824V50.1912H198.247V44.8577Z" fill="#3F3D56"/>
<path d="M198.247 54.458H191.824V59.7915H198.247V54.458Z" fill="#3F3D56"/>
<path d="M187.541 80.0589V74.7253H181.118V80.0589H187.006H187.541Z" fill="#3F3D56"/>
<path d="M187.006 84.3256H181.118V89.6591H187.541V84.3256H187.006Z" fill="#3F3D56"/>
<path d="M198.247 74.7253H191.824V80.0589H198.247V74.7253Z" fill="#3F3D56"/>
<path d="M198.247 84.3257H191.824V89.6592H198.247V84.3257Z" fill="#3F3D56"/>
<path d="M187.541 109.927V104.593H181.118V109.927H187.006H187.541Z" fill="#3F3D56"/>
<path d="M187.006 114.193H181.118V119.527H187.541V114.193H187.006Z" fill="#3F3D56"/>
<path d="M198.247 104.593H191.824V109.927H198.247V104.593Z" fill="#3F3D56"/>
<path d="M198.247 114.193H191.824V119.527H198.247V114.193Z" fill="#3F3D56"/>
<path d="M187.541 139.794V134.461H181.118V139.794H187.006H187.541Z" fill="#3F3D56"/>
<path d="M187.006 144.061H181.118V149.395H187.541V144.061H187.006Z" fill="#3F3D56"/>
<path d="M198.247 134.461H191.824V139.794H198.247V134.461Z" fill="#3F3D56"/>
<path d="M198.247 144.061H191.824V149.395H198.247V144.061Z" fill="#3F3D56"/>
<path d="M154.353 50.1912H92.2585V62.9916H154.353V50.1912Z" fill="#3F3D56"/>
<path d="M154.353 75.7921H92.2585V88.5926H154.353V75.7921Z" fill="#3F3D56"/>
<path d="M154.353 101.393H92.2585V114.193H154.353V101.393Z" fill="#3F3D56"/>
<path d="M154.353 126.994H92.2585V139.794H154.353V126.994Z" fill="#3F3D56"/>
<path d="M298 180.325H0V180.848H298V180.325Z" fill="#3F3D56"/>
<path d="M51.4435 120.024H49.9038V180.623H51.4435V120.024Z" fill="#3F3D56"/>
<path d="M65.6533 127.747C65.7514 148.937 50.7888 166.184 50.7888 166.184C50.7888 166.184 35.6673 149.075 35.5693 127.885C35.4713 106.695 50.4338 89.4484 50.4338 89.4484C50.4338 89.4484 65.5553 106.557 65.6533 127.747Z" fill="#00D1B2"/>
<path opacity="0.1" d="M65.6533 127.747C65.7514 148.937 50.7888 166.184 50.7888 166.184C50.7888 166.184 35.6673 149.075 35.5693 127.885C35.4713 106.695 50.4338 89.4484 50.4338 89.4484C50.4338 89.4484 65.5553 106.557 65.6533 127.747Z" fill="black"/>
<path d="M31.4269 120.024H29.8872V180.623H31.4269V120.024Z" fill="#3F3D56"/>
<path d="M45.6367 127.747C45.7347 148.937 30.7722 166.184 30.7722 166.184C30.7722 166.184 15.6507 149.075 15.5527 127.885C15.4547 106.695 30.4172 89.4484 30.4172 89.4484C30.4172 89.4484 45.5387 106.557 45.6367 127.747Z" fill="#00D1B2"/>
<path d="M247.823 43.1719C235.695 43.2276 225.822 43.4061 225.822 43.4061C225.822 43.4061 237.557 27.9186 247.779 33.6566C258.002 39.3946 269.745 43.2044 269.745 43.2044C269.745 43.2044 259.952 43.1162 247.823 43.1719Z" fill="#F2F2F2"/>
<path d="M45.7497 72.9419C33.6209 72.9976 23.7485 73.1762 23.7485 73.1762C23.7485 73.1762 35.4834 57.6886 45.7057 63.4266C55.928 69.1647 67.6709 72.9745 67.6709 72.9745C67.6709 72.9745 57.8785 72.8862 45.7497 72.9419Z" fill="#F2F2F2"/>
<path d="M89.7812 10.7904C77.6524 10.8461 67.78 11.0247 67.78 11.0247C67.78 11.0247 79.5149 -4.46289 89.7372 1.27514C99.9595 7.01318 111.702 10.823 111.702 10.823C111.702 10.823 101.91 10.7347 89.7812 10.7904Z" fill="#F2F2F2"/>
<path d="M272.815 120.024H271.275V180.623H272.815V120.024Z" fill="#3F3D56"/>
<path d="M287.025 127.747C287.123 148.937 272.16 166.184 272.16 166.184C272.16 166.184 257.039 149.075 256.941 127.885C256.843 106.695 271.805 89.4484 271.805 89.4484C271.805 89.4484 286.927 106.557 287.025 127.747Z" fill="#00D1B2"/>
<path d="M216.14 143.008H231.679V139.271H240.252V143.008H256.327V159.559H240.252V180.381H231.679V159.559H216.14L208.102 150.483L216.14 143.008Z" fill="#3F3D56"/>
</g>
<defs>
<clipPath id="clip0">
<rect width="298" height="181" fill="white"/>
</clipPath>
</defs>
</svg>
