<svg width="24" height="24" viewBox="0 0 24 24" fill="none" xmlns="http://www.w3.org/2000/svg">
<path d="M20.2722 10.56H12.0001V13.68H17.0055C16.3035 15.7721 14.3286 17.28 12.0001 17.28C9.0841 17.28 6.7201 14.916 6.7201 12C6.7201 9.08398 9.0841 6.71998 12.0001 6.71998C13.1519 6.71998 14.2165 7.08982 15.0843 7.71573L17.3089 5.49118C15.8619 4.30942 14.0139 3.59998 12.0001 3.59998C7.3609 3.59998 3.6001 7.36078 3.6001 12C3.6001 16.6392 7.3609 20.4 12.0001 20.4C16.6393 20.4 20.4001 16.6392 20.4001 12C20.4001 11.5085 20.3535 11.0282 20.2722 10.56Z" fill="#F9E65C"/>
<path d="M12 13.68H17.0054C16.627 14.8078 15.8765 15.763 14.9023 16.4064L17.2711 18.5386C19.1786 16.9987 20.4 14.6424 20.4 12C20.4 11.5085 20.3534 11.0282 20.2721 10.56H12V13.68Z" fill="#78A2D2"/>
<path d="M14.9024 16.4064C14.0693 16.9567 13.0733 17.28 12 17.28C9.84076 17.28 7.98556 15.9833 7.16716 14.1266L4.51636 15.8136C5.9062 18.5352 8.73436 20.4 12 20.4C13.9968 20.4 15.8297 19.7021 17.2712 18.5386L14.9024 16.4064Z" fill="#60BE92"/>
<path d="M7.12262 9.97654C7.91654 8.0647 9.80102 6.71998 12.0001 6.71998C13.1519 6.71998 14.2165 7.08982 15.0844 7.71574L17.3089 5.49118C15.862 4.30942 14.014 3.59998 12.0001 3.59998C8.69486 3.59998 5.8367 5.5099 4.46558 8.28574L7.12262 9.97654Z" fill="#F15B6C"/>
<path d="M11.9999 20.64C7.23562 20.64 3.35986 16.7642 3.35986 12C3.35986 7.23574 7.23562 3.35999 11.9999 3.35999C13.9849 3.35999 15.9246 4.05071 17.4606 5.30519C17.5131 5.34815 17.5451 5.41127 17.5484 5.47895C17.5518 5.54663 17.5263 5.61287 17.4783 5.66063L15.2538 7.88518C15.1705 7.96846 15.039 7.97902 14.9437 7.91014C14.0819 7.28854 13.0638 6.95999 11.9999 6.95999C9.2209 6.95999 6.95986 9.22078 6.95986 12C6.95986 14.7792 9.2209 17.04 11.9999 17.04C14.055 17.04 15.8869 15.7997 16.6599 13.92H11.9999C11.8671 13.92 11.7599 13.8125 11.7599 13.68V10.56C11.7599 10.4275 11.8671 10.32 11.9999 10.32H20.2719C20.3886 10.32 20.4884 10.404 20.5083 10.5189C20.5955 11.0213 20.6399 11.5197 20.6399 12C20.6399 16.7642 16.7641 20.64 11.9999 20.64ZM11.9999 3.83999C7.50034 3.83999 3.83986 7.50047 3.83986 12C3.83986 16.4995 7.50034 20.16 11.9999 20.16C16.4994 20.16 20.1599 16.4995 20.1599 12C20.1599 11.6102 20.1289 11.2075 20.0677 10.8H12.2399V13.44H17.0053C17.0826 13.44 17.1551 13.4772 17.2002 13.5398C17.2453 13.6025 17.2575 13.6831 17.2331 13.7563C16.4775 16.0075 14.3747 17.52 11.9999 17.52C8.95594 17.52 6.47986 15.0437 6.47986 12C6.47986 8.95631 8.95594 6.47998 11.9999 6.47998C13.0964 6.47998 14.1488 6.79894 15.0563 7.40422L16.9482 5.51231C15.5327 4.43207 13.7859 3.83999 11.9999 3.83999Z" fill="#1F212B"/>
<path d="M17.1599 18.72C17.1314 18.72 17.1026 18.7099 17.0795 18.6893L16.1195 17.8253C16.0703 17.7809 16.0663 17.705 16.1107 17.6558C16.1555 17.6066 16.2311 17.6028 16.2803 17.6469L17.2403 18.5109C17.2895 18.5553 17.2936 18.6312 17.2492 18.6804C17.2252 18.7065 17.1928 18.72 17.1599 18.72Z" fill="#1F212B"/>
<path d="M15.7199 17.424C15.6914 17.424 15.6626 17.4139 15.6395 17.3933L15.213 17.0093C15.1638 16.9649 15.1598 16.889 15.2042 16.8398C15.249 16.7906 15.3246 16.7868 15.3738 16.831L15.8003 17.215C15.8495 17.2594 15.8536 17.3352 15.8092 17.3844C15.7852 17.4106 15.7528 17.424 15.7199 17.424Z" fill="#1F212B"/>
<path d="M6.70301 14.4C6.66341 14.4 6.62477 14.3803 6.60173 14.3446C6.56621 14.2887 6.58277 14.2145 6.63845 14.179L7.01549 13.939C7.07093 13.9039 7.14533 13.9198 7.18109 13.9757C7.21661 14.0316 7.20005 14.1058 7.14437 14.1413L6.76733 14.3813C6.74741 14.394 6.72509 14.4 6.70301 14.4Z" fill="#1F212B"/>
<path d="M5.64002 15.0763C5.60042 15.0763 5.56178 15.0566 5.53874 15.0209C5.50322 14.965 5.51978 14.8908 5.57546 14.8553L6.05546 14.5498C6.1109 14.5147 6.1853 14.5303 6.22106 14.5865C6.25658 14.6424 6.24002 14.7166 6.18434 14.7521L5.70434 15.0576C5.68466 15.0703 5.66234 15.0763 5.64002 15.0763Z" fill="#1F212B"/>
<path d="M4.44007 15.84C4.40047 15.84 4.36183 15.8203 4.33879 15.7845C4.30327 15.7286 4.31983 15.6545 4.37551 15.6189L5.09551 15.1608C5.15071 15.1257 5.22535 15.1416 5.26111 15.1975C5.29663 15.2534 5.28007 15.3276 5.22439 15.3631L4.50439 15.8213C4.48471 15.834 4.46239 15.84 4.44007 15.84Z" fill="#1F212B"/>
<path d="M5.87992 9.16369C5.8576 9.16369 5.83528 9.15769 5.81536 9.14497L4.61536 8.38129C4.55968 8.34577 4.54288 8.27137 4.57864 8.21569C4.6144 8.15977 4.68904 8.14393 4.74424 8.17897L5.94424 8.94265C5.99992 8.97817 6.01672 9.05257 5.98096 9.10825C5.95816 9.14401 5.91952 9.16369 5.87992 9.16369Z" fill="#1F212B"/>
<path d="M6.6001 9.62186C6.57778 9.62186 6.55546 9.61586 6.53554 9.60314L6.29554 9.4505C6.23986 9.41498 6.22306 9.34058 6.25882 9.2849C6.29482 9.22898 6.36922 9.21314 6.42442 9.24818L6.66442 9.40082C6.7201 9.43634 6.7369 9.51074 6.70114 9.56642C6.67834 9.60218 6.6397 9.62186 6.6001 9.62186Z" fill="#1F212B"/>
</svg>
