<svg width="271" height="228" viewBox="0 0 271 228" fill="none" xmlns="http://www.w3.org/2000/svg">
<path opacity="0.2" d="M249.77 0H21.5427V228H249.77V0Z" fill="#00D1B2"/>
<path opacity="0.5" d="M215.114 21.2874H55.886V207.025H215.114V21.2874Z" fill="#00D1B2"/>
<path d="M271 32.7498H185.766V196.498H271V32.7498Z" fill="url(#paint0_linear)"/>
<path d="M85.2339 33.3735H0V197.122H85.2339V33.3735Z" fill="url(#paint1_linear)"/>
<path d="M268.19 35.2449H188.576V193.067H268.19V35.2449Z" fill="#00D1B2"/>
<path d="M2.81002 193.067H82.4241L82.4241 35.2448H2.81002L2.81002 193.067Z" fill="#00D1B2"/>
<path d="M69.3111 49.5923H15.9229V59.2612H69.3111V49.5923Z" fill="url(#paint2_linear)"/>
<path d="M255.389 64.2517H202.001V73.9207H255.389V64.2517Z" fill="url(#paint3_linear)"/>
<path d="M255.077 79.2229H201.689V88.8918H255.077V79.2229Z" fill="url(#paint4_linear)"/>
<path d="M255.077 94.1943H201.689V103.863H255.077V94.1943Z" fill="url(#paint5_linear)"/>
<path d="M255.077 109.166H201.689V118.834H255.077V109.166Z" fill="url(#paint6_linear)"/>
<path d="M255.077 124.137H201.689V133.806H255.077V124.137Z" fill="url(#paint7_linear)"/>
<path d="M255.077 139.108H201.689V148.777H255.077V139.108Z" fill="url(#paint8_linear)"/>
<path d="M255.077 154.079H201.689V163.748H255.077V154.079Z" fill="url(#paint9_linear)"/>
<path d="M255.077 169.051H201.689V178.72H255.077V169.051Z" fill="url(#paint10_linear)"/>
<path d="M255.077 49.5923H201.689V59.2612H255.077V49.5923Z" fill="url(#paint11_linear)"/>
<path d="M69.3111 64.8755H15.9229V74.5444H69.3111V64.8755Z" fill="url(#paint12_linear)"/>
<path d="M69.3111 79.5349H15.9229V89.2038H69.3111V79.5349Z" fill="url(#paint13_linear)"/>
<path d="M69.3111 94.1943H15.9229V103.863H69.3111V94.1943Z" fill="url(#paint14_linear)"/>
<path d="M69.3111 109.166H15.9229V118.834H69.3111V109.166Z" fill="url(#paint15_linear)"/>
<path d="M69.3111 124.137H15.9229V133.806H69.3111V124.137Z" fill="url(#paint16_linear)"/>
<path d="M68.3744 50.8398H17.1716V58.3255H68.3744V50.8398Z" fill="white"/>
<path d="M68.2184 65.4993H17.0156V72.9849H68.2184V65.4993Z" fill="white"/>
<path d="M68.2184 80.4707H17.0156V87.9563H68.2184V80.4707Z" fill="white"/>
<path d="M68.2184 95.4419H17.0156V102.928H68.2184V95.4419Z" fill="white"/>
<path d="M68.2184 110.413H17.0156V117.899H68.2184V110.413Z" fill="white"/>
<path d="M68.2184 125.384H17.0156V132.87H68.2184V125.384Z" fill="white"/>
<path d="M69.3111 139.108H15.9229V148.777H69.3111V139.108Z" fill="url(#paint17_linear)"/>
<path d="M68.2184 140.356H17.0156V147.841H68.2184V140.356Z" fill="white"/>
<path d="M68.2184 140.356H17.0156V147.841H68.2184V140.356Z" fill="white"/>
<path d="M68.2184 155.327H17.0156V162.813H68.2184V155.327Z" fill="white"/>
<path d="M68.2184 170.298H17.0156V177.784H68.2184V170.298Z" fill="white"/>
<path d="M254.14 50.5281H202.938V58.0137H254.14V50.5281Z" fill="white"/>
<path d="M254.14 65.4993H202.938V72.9849H254.14V65.4993Z" fill="white"/>
<path d="M254.14 80.4707H202.938V87.9563H254.14V80.4707Z" fill="white"/>
<path d="M254.14 95.4419H202.938V102.928H254.14V95.4419Z" fill="white"/>
<path d="M254.14 110.413H202.938V117.899H254.14V110.413Z" fill="white"/>
<path d="M254.14 125.384H202.938V132.87H254.14V125.384Z" fill="white"/>
<path d="M254.14 140.356H202.938V147.841H254.14V140.356Z" fill="white"/>
<path d="M254.14 155.327H202.938V162.813H254.14V155.327Z" fill="white"/>
<path d="M254.14 170.298H202.938V177.784H254.14V170.298Z" fill="white"/>
<path d="M229.476 201.177H41.2119V213.029H229.476V201.177Z" fill="url(#paint18_linear)"/>
<path d="M228.227 202.424H42.7729V211.781H228.227V202.424Z" fill="#00D1B2"/>
<path d="M229.788 15.595H41.8364V27.7591H229.788V15.595Z" fill="url(#paint19_linear)"/>
<path d="M228.227 16.5308H42.7729V25.8878H228.227V16.5308Z" fill="#00D1B2"/>
<path opacity="0.5" d="M181.395 35.2449H90.2292V193.067H181.395V35.2449Z" fill="#263238"/>
<path d="M205.954 103.879C208.139 106.804 204.867 110.26 204.867 110.26L205.417 110.451C204.608 111.346 201.414 115.385 189.101 133.656C173.334 157.049 152.088 162.884 152.088 162.884C149.506 160.869 146.57 159.356 143.43 158.421V156.213C147.442 155.031 151.108 152.896 154.114 149.991C157.121 147.087 159.379 143.498 160.696 139.532C162.575 135.815 163.553 131.708 163.549 127.543C163.549 112.571 151.132 100.426 135.818 100.426C120.504 100.426 108.088 112.568 108.088 127.543C108.084 131.708 109.062 135.815 110.941 139.532C112.258 143.498 114.516 147.087 117.523 149.991C120.529 152.896 124.195 155.031 128.207 156.213V158.421C125.067 159.356 122.131 160.869 119.549 162.884C119.549 162.884 98.2937 157.042 82.527 133.65C70.2134 115.379 67.0194 111.336 66.2108 110.444L66.7603 110.254C66.7603 110.254 63.4977 106.798 65.6738 103.873C67.8499 100.947 51.2652 97.491 53.1666 103.873C55.068 110.254 57.5157 113.445 57.5157 113.445C57.5157 113.445 92.2337 168.146 110.358 177.185C109.929 179.038 109.714 180.935 109.714 182.837V193.473H161.91V182.837C161.911 180.935 161.695 179.038 161.267 177.185C179.375 168.14 214.109 113.448 214.109 113.448C214.109 113.448 216.556 110.257 218.458 103.876C220.359 97.4942 203.778 100.953 205.954 103.879Z" fill="url(#paint20_linear)"/>
<path d="M135.812 155.492C150.479 155.492 162.369 143.614 162.369 128.962C162.369 114.31 150.479 102.432 135.812 102.432C121.145 102.432 109.256 114.31 109.256 128.962C109.256 143.614 121.145 155.492 135.812 155.492Z" fill="#263238"/>
<path d="M135.812 158.097C149.617 158.097 160.808 146.917 160.808 133.126C160.808 119.335 149.617 108.155 135.812 108.155C122.008 108.155 110.817 119.335 110.817 133.126C110.817 146.917 122.008 158.097 135.812 158.097Z" fill="#F8C198"/>
<path d="M125.918 130.783C127.644 130.783 129.043 129.386 129.043 127.661C129.043 125.937 127.644 124.539 125.918 124.539C124.192 124.539 122.793 125.937 122.793 127.661C122.793 129.386 124.192 130.783 125.918 130.783Z" fill="#263238"/>
<path d="M146.228 130.783C147.954 130.783 149.353 129.386 149.353 127.661C149.353 125.937 147.954 124.539 146.228 124.539C144.502 124.539 143.102 125.937 143.102 127.661C143.102 129.386 144.502 130.783 146.228 130.783Z" fill="#263238"/>
<path d="M143.103 144.566C143.103 146.438 139.84 149.51 135.812 149.51C131.785 149.51 128.522 146.438 128.522 144.566C128.522 142.695 131.785 142.745 135.812 142.745C139.84 142.745 143.103 142.695 143.103 144.566Z" fill="white"/>
<path d="M126.699 128.703C127.275 128.703 127.742 128.237 127.742 127.661C127.742 127.086 127.275 126.62 126.699 126.62C126.123 126.62 125.656 127.086 125.656 127.661C125.656 128.237 126.123 128.703 126.699 128.703Z" fill="white"/>
<path d="M147.267 128.703C147.843 128.703 148.31 128.237 148.31 127.661C148.31 127.086 147.843 126.62 147.267 126.62C146.691 126.62 146.224 127.086 146.224 127.661C146.224 128.237 146.691 128.703 147.267 128.703Z" fill="white"/>
<path d="M138.31 119.265C136.786 119.265 135.419 117.943 135.256 116.43C135.204 115.669 135.385 114.911 135.775 114.256C136.166 113.601 136.747 113.081 137.442 112.765C137.584 112.692 137.741 112.651 137.901 112.646C138.425 112.646 138.684 113.27 138.853 113.766C139.378 115.301 140.308 116.798 141.769 117.509C143.23 118.22 145.272 117.855 146.043 116.427C143.976 115.507 143.093 112.618 144.295 110.703C144.76 109.964 145.484 109.337 145.631 108.476C145.9 106.917 144.189 105.781 142.675 105.314C138.304 103.963 123.068 103.813 122.228 110.329C121.347 117.203 133.511 120.176 138.31 119.265Z" fill="#263238"/>
<path d="M113.478 137.506C114.28 137.19 114.203 135.092 113.306 132.82C112.409 130.548 111.031 128.962 110.229 129.278C109.427 129.594 109.504 131.692 110.402 133.965C111.299 136.237 112.676 137.822 113.478 137.506Z" fill="#F8C198"/>
<path d="M161.216 133.948C162.113 131.676 162.19 129.578 161.388 129.261C160.586 128.945 159.209 130.531 158.311 132.803C157.414 135.076 157.337 137.174 158.139 137.49C158.941 137.806 160.318 136.22 161.216 133.948Z" fill="#F8C198"/>
<path d="M151.395 163.542C151.395 163.542 171.742 157.835 186.843 134.944C201.945 112.054 202.726 111.991 202.726 111.991L210.796 115.176C210.796 115.176 173.306 175.523 157.164 178.645C141.023 181.767 151.395 163.542 151.395 163.542Z" fill="#FF9800"/>
<path d="M201.948 112.057C201.948 112.057 205.07 108.676 202.991 105.819C200.911 102.962 216.791 99.5807 214.967 105.819C213.144 112.057 210.802 115.176 210.802 115.176L201.948 112.057Z" fill="#F8C198"/>
<path d="M120.23 163.542C120.23 163.542 99.8827 157.835 84.781 134.944C69.6793 112.054 68.8988 111.991 68.8988 111.991L60.8281 115.176C60.8281 115.176 98.3217 175.523 114.466 178.645C130.611 181.767 120.23 163.542 120.23 163.542Z" fill="#FF9800"/>
<path d="M69.6764 112.057C69.6764 112.057 66.5542 108.676 68.6336 105.819C70.7129 102.962 54.8338 99.5807 56.6571 105.819C58.4804 112.057 60.822 115.176 60.822 115.176L69.6764 112.057Z" fill="#F8C198"/>
<g opacity="0.2">
<path opacity="0.2" d="M144.333 106.91C144.183 107.771 143.458 108.395 142.996 109.137C141.944 110.815 142.491 113.242 144.033 114.44C143.811 113.878 143.72 113.274 143.766 112.672C143.812 112.07 143.994 111.486 144.298 110.965C144.763 110.226 145.488 109.599 145.634 108.738C145.803 107.762 145.194 106.951 144.345 106.368C144.367 106.548 144.363 106.731 144.333 106.91Z" fill="white"/>
<path opacity="0.2" d="M137.829 112.911C137.729 112.677 137.636 112.44 137.555 112.203C137.386 111.707 137.127 111.099 136.602 111.084C136.442 111.088 136.286 111.129 136.143 111.202C135.449 111.518 134.867 112.038 134.477 112.693C134.086 113.348 133.905 114.106 133.958 114.867C134.016 115.326 134.17 115.767 134.411 116.162C134.651 116.557 134.972 116.897 135.354 117.159C135.309 117.005 135.278 116.848 135.26 116.688C135.207 115.928 135.388 115.17 135.779 114.515C136.169 113.86 136.751 113.339 137.445 113.024C137.566 112.965 137.696 112.927 137.829 112.911Z" fill="white"/>
<path opacity="0.2" d="M135.628 117.852C131.832 118.011 125.706 116.564 122.687 113.485C124.941 118.276 134.254 120.282 138.298 119.511C137.746 119.493 137.209 119.33 136.741 119.038C136.272 118.747 135.888 118.338 135.628 117.852Z" fill="white"/>
<path opacity="0.2" d="M144.454 115.282C143.543 116.352 141.775 116.576 140.474 115.943C140.048 115.734 139.659 115.459 139.318 115.129C139.823 116.254 140.687 117.18 141.775 117.761C143.237 118.47 145.278 118.108 146.05 116.679C145.393 116.379 144.839 115.893 144.454 115.282Z" fill="white"/>
</g>
<path opacity="0.2" d="M209.76 115.176C209.76 115.176 172.266 175.523 156.106 178.645C155.172 178.831 154.226 178.947 153.274 178.991C154.575 179.028 155.876 178.912 157.149 178.645C173.293 175.526 210.787 115.176 210.787 115.176L209.95 114.88C209.835 115.076 209.76 115.176 209.76 115.176Z" fill="white"/>
<path opacity="0.2" d="M61.8648 115.176C61.8648 115.176 99.3584 175.523 115.518 178.645C116.452 178.831 117.399 178.947 118.35 178.991C117.05 179.028 115.749 178.912 114.476 178.645C98.3312 175.526 60.8376 115.176 60.8376 115.176L61.6744 114.88C61.7899 115.076 61.8648 115.176 61.8648 115.176Z" fill="white"/>
<path d="M135.812 158.097C139.095 158.097 142.345 158.743 145.378 159.997C148.41 161.252 151.166 163.092 153.487 165.41C155.808 167.729 157.649 170.482 158.905 173.512C160.162 176.541 160.808 179.788 160.808 183.068V193.473H110.817V183.068C110.817 179.788 111.463 176.541 112.719 173.512C113.975 170.482 115.817 167.729 118.138 165.41C120.459 163.092 123.214 161.252 126.247 159.997C129.28 158.743 132.53 158.097 135.812 158.097Z" fill="#FF9800"/>
<path opacity="0.2" d="M136.071 158.228C135.162 158.227 134.253 158.276 133.349 158.374C133.661 158.374 133.945 158.355 134.248 158.355C140.877 158.355 147.235 160.986 151.923 165.669C156.61 170.352 159.244 176.704 159.244 183.326V193.6H161.067V183.198C161.067 176.576 158.434 170.224 153.746 165.541C149.058 160.858 142.701 158.228 136.071 158.228Z" fill="white"/>
<path opacity="0.2" d="M135.553 158.228C136.463 158.227 137.371 158.276 138.276 158.374C137.963 158.374 137.679 158.355 137.376 158.355C130.747 158.355 124.389 160.986 119.702 165.669C115.014 170.352 112.381 176.704 112.381 183.326V193.6H110.557V183.198C110.557 176.576 113.191 170.224 117.878 165.541C122.566 160.858 128.924 158.228 135.553 158.228Z" fill="white"/>
<path d="M143.103 158.487C143.103 154.464 139.839 151.204 135.812 151.204C131.786 151.204 128.522 154.464 128.522 158.487V161.478C128.522 165.5 131.786 168.761 135.812 168.761C139.839 168.761 143.103 165.5 143.103 161.478V158.487Z" fill="#F8C198"/>
<defs>
<linearGradient id="paint0_linear" x1="228.383" y1="196.498" x2="228.383" y2="32.7498" gradientUnits="userSpaceOnUse">
<stop stop-color="#808080" stop-opacity="0.25"/>
<stop offset="0.54" stop-color="#808080" stop-opacity="0.12"/>
<stop offset="1" stop-color="#808080" stop-opacity="0.1"/>
</linearGradient>
<linearGradient id="paint1_linear" x1="11634.4" y1="103522" x2="11634.4" y2="17554.4" gradientUnits="userSpaceOnUse">
<stop stop-color="#808080" stop-opacity="0.25"/>
<stop offset="0.54" stop-color="#808080" stop-opacity="0.12"/>
<stop offset="1" stop-color="#808080" stop-opacity="0.1"/>
</linearGradient>
<linearGradient id="paint2_linear" x1="42.617" y1="59.2612" x2="42.617" y2="49.5923" gradientUnits="userSpaceOnUse">
<stop stop-opacity="0.12"/>
<stop offset="0.55" stop-opacity="0.09"/>
<stop offset="1" stop-opacity="0.02"/>
</linearGradient>
<linearGradient id="paint3_linear" x1="39308.9" y1="2355.79" x2="39308.9" y2="2056.05" gradientUnits="userSpaceOnUse">
<stop stop-opacity="0.12"/>
<stop offset="0.55" stop-opacity="0.09"/>
<stop offset="1" stop-opacity="0.02"/>
</linearGradient>
<linearGradient id="paint4_linear" x1="39255.2" y1="2834.87" x2="39255.2" y2="2535.14" gradientUnits="userSpaceOnUse">
<stop stop-opacity="0.12"/>
<stop offset="0.55" stop-opacity="0.09"/>
<stop offset="1" stop-opacity="0.02"/>
</linearGradient>
<linearGradient id="paint5_linear" x1="39255.2" y1="3313.95" x2="39255.2" y2="3014.22" gradientUnits="userSpaceOnUse">
<stop stop-opacity="0.12"/>
<stop offset="0.55" stop-opacity="0.09"/>
<stop offset="1" stop-opacity="0.02"/>
</linearGradient>
<linearGradient id="paint6_linear" x1="39255.2" y1="3793.04" x2="39255.2" y2="3493.3" gradientUnits="userSpaceOnUse">
<stop stop-opacity="0.12"/>
<stop offset="0.55" stop-opacity="0.09"/>
<stop offset="1" stop-opacity="0.02"/>
</linearGradient>
<linearGradient id="paint7_linear" x1="39255.2" y1="4272.11" x2="39255.2" y2="3972.37" gradientUnits="userSpaceOnUse">
<stop stop-opacity="0.12"/>
<stop offset="0.55" stop-opacity="0.09"/>
<stop offset="1" stop-opacity="0.02"/>
</linearGradient>
<linearGradient id="paint8_linear" x1="39255.2" y1="4751.17" x2="39255.2" y2="4451.44" gradientUnits="userSpaceOnUse">
<stop stop-opacity="0.12"/>
<stop offset="0.55" stop-opacity="0.09"/>
<stop offset="1" stop-opacity="0.02"/>
</linearGradient>
<linearGradient id="paint9_linear" x1="39255.2" y1="5230.28" x2="39255.2" y2="4930.55" gradientUnits="userSpaceOnUse">
<stop stop-opacity="0.12"/>
<stop offset="0.55" stop-opacity="0.09"/>
<stop offset="1" stop-opacity="0.02"/>
</linearGradient>
<linearGradient id="paint10_linear" x1="39255.2" y1="5709.36" x2="39255.2" y2="5409.62" gradientUnits="userSpaceOnUse">
<stop stop-opacity="0.12"/>
<stop offset="0.55" stop-opacity="0.09"/>
<stop offset="1" stop-opacity="0.02"/>
</linearGradient>
<linearGradient id="paint11_linear" x1="39255.2" y1="49.5923" x2="39255.2" y2="49.5923" gradientUnits="userSpaceOnUse">
<stop stop-opacity="0.12"/>
<stop offset="0.55" stop-opacity="0.09"/>
<stop offset="1" stop-opacity="0.02"/>
</linearGradient>
<linearGradient id="paint12_linear" x1="2738.72" y1="2225.88" x2="11868.1" y2="2225.88" gradientUnits="userSpaceOnUse">
<stop stop-opacity="0.12"/>
<stop offset="0.55" stop-opacity="0.09"/>
<stop offset="1" stop-opacity="0.02"/>
</linearGradient>
<linearGradient id="paint13_linear" x1="2738.72" y1="2694.98" x2="11868.1" y2="2694.98" gradientUnits="userSpaceOnUse">
<stop stop-opacity="0.12"/>
<stop offset="0.55" stop-opacity="0.09"/>
<stop offset="1" stop-opacity="0.02"/>
</linearGradient>
<linearGradient id="paint14_linear" x1="2738.72" y1="3164.08" x2="11868.1" y2="3164.08" gradientUnits="userSpaceOnUse">
<stop stop-opacity="0.12"/>
<stop offset="0.55" stop-opacity="0.09"/>
<stop offset="1" stop-opacity="0.02"/>
</linearGradient>
<linearGradient id="paint15_linear" x1="2738.72" y1="3643.17" x2="11868.1" y2="3643.17" gradientUnits="userSpaceOnUse">
<stop stop-opacity="0.12"/>
<stop offset="0.55" stop-opacity="0.09"/>
<stop offset="1" stop-opacity="0.02"/>
</linearGradient>
<linearGradient id="paint16_linear" x1="2738.72" y1="4122.24" x2="11868.1" y2="4122.24" gradientUnits="userSpaceOnUse">
<stop stop-opacity="0.12"/>
<stop offset="0.55" stop-opacity="0.09"/>
<stop offset="1" stop-opacity="0.02"/>
</linearGradient>
<linearGradient id="paint17_linear" x1="2738.72" y1="4601.31" x2="11868.1" y2="4601.31" gradientUnits="userSpaceOnUse">
<stop stop-opacity="0.12"/>
<stop offset="0.55" stop-opacity="0.09"/>
<stop offset="1" stop-opacity="0.02"/>
</linearGradient>
<linearGradient id="paint18_linear" x1="24892" y1="8071.08" x2="138415" y2="8071.08" gradientUnits="userSpaceOnUse">
<stop stop-color="#808080" stop-opacity="0.25"/>
<stop offset="0.54" stop-color="#808080" stop-opacity="0.12"/>
<stop offset="1" stop-color="#808080" stop-opacity="0.1"/>
</linearGradient>
<linearGradient id="paint19_linear" x1="81800.8" y1="1098.21" x2="81800.8" y2="623.803" gradientUnits="userSpaceOnUse">
<stop stop-color="#808080" stop-opacity="0.25"/>
<stop offset="0.54" stop-color="#808080" stop-opacity="0.12"/>
<stop offset="1" stop-color="#808080" stop-opacity="0.1"/>
</linearGradient>
<linearGradient id="paint20_linear" x1="99576" y1="65789.9" x2="99576" y2="37940.8" gradientUnits="userSpaceOnUse">
<stop stop-color="#808080" stop-opacity="0.25"/>
<stop offset="0.54" stop-color="#808080" stop-opacity="0.12"/>
<stop offset="1" stop-color="#808080" stop-opacity="0.1"/>
</linearGradient>
</defs>
</svg>
