<svg width="283" height="222" viewBox="0 0 283 222" fill="none" xmlns="http://www.w3.org/2000/svg">
<g clip-path="url(#clip0)">
<path opacity="0.1" d="M164.426 33.9824C146.283 33.2983 129.003 26.9236 112.504 19.9493C96.0047 12.975 79.6583 5.25395 61.952 1.55558C50.5619 -0.820964 37.5364 -1.16981 28.3602 5.48833C19.5271 11.8821 16.6745 22.9309 15.1418 33.1647C13.9873 40.8722 13.3086 48.9721 16.4692 56.1971C18.6655 61.2036 22.5649 65.4144 25.2622 70.2111C34.6413 86.9069 28.0171 107.492 17.8441 123.79C13.0857 131.437 7.54338 138.73 3.86438 146.871C0.185383 155.012 -1.51763 164.335 1.70056 172.637C4.8937 180.868 12.4971 187.038 20.7367 191.399C37.4688 200.229 57.1861 202.758 76.4125 204.189C118.973 207.356 161.761 205.985 204.434 204.611C220.227 204.102 236.087 203.587 251.625 200.929C260.25 199.455 269.156 197.114 275.417 191.459C283.368 184.28 285.339 172.125 280.01 163.114C271.074 148.018 246.363 144.268 240.117 128.066C236.678 119.148 240.209 109.214 245.206 100.943C255.925 83.1976 273.891 67.6329 274.838 47.3504C275.489 33.4209 266.851 19.4696 253.498 12.8796C239.498 5.97073 220.089 6.84013 209.761 18.2759C199.132 30.0551 180.444 34.5874 164.426 33.9824Z" fill="#00D1B2"/>
<path d="M207.016 36.5393H88.2058C85.4672 36.5393 83.2471 38.9553 83.2471 41.9356V199.837C83.2471 202.817 85.4672 205.233 88.2058 205.233H207.016C209.754 205.233 211.975 202.817 211.975 199.837V41.9356C211.975 38.9553 209.754 36.5393 207.016 36.5393Z" fill="#464353"/>
<path opacity="0.1" d="M200.87 52.5293H94.3518V187.188H200.87V52.5293Z" fill="white" stroke="white" stroke-miterlimit="10"/>
<path d="M147.611 202.028C150.114 202.028 152.144 199.82 152.144 197.095C152.144 194.371 150.114 192.162 147.611 192.162C145.107 192.162 143.078 194.371 143.078 197.095C143.078 199.82 145.107 202.028 147.611 202.028Z" fill="white"/>
<path d="M147.611 48.7329C147.188 48.7302 146.775 48.5911 146.424 48.3332C146.074 48.0753 145.801 47.7101 145.641 47.2837C145.481 46.8574 145.441 46.389 145.525 45.9378C145.61 45.4865 145.815 45.0726 146.116 44.7483C146.416 44.424 146.798 44.2038 147.213 44.1156C147.629 44.0274 148.059 44.0752 148.449 44.2528C148.84 44.4304 149.173 44.7299 149.407 45.1135C149.641 45.4971 149.766 45.9476 149.765 46.4081C149.764 46.7147 149.707 47.0181 149.598 47.3009C149.49 47.5837 149.331 47.8404 149.131 48.0563C148.931 48.2723 148.693 48.4431 148.433 48.5592C148.172 48.6753 147.893 48.7343 147.611 48.7329Z" fill="white"/>
<path d="M147.611 44.2088C148.011 44.2061 148.402 44.3329 148.736 44.5729C149.069 44.8129 149.329 45.1554 149.484 45.5569C149.638 45.9583 149.679 46.4006 149.601 46.8274C149.524 47.2543 149.332 47.6464 149.049 47.9541C148.766 48.2617 148.406 48.4709 148.014 48.5552C147.621 48.6394 147.215 48.5948 146.846 48.427C146.477 48.2593 146.163 47.976 145.942 47.6131C145.721 47.2503 145.605 46.8242 145.607 46.3891C145.611 45.8122 145.824 45.2601 146.199 44.8521C146.573 44.4442 147.081 44.2131 147.611 44.2088ZM147.611 43.9363C147.162 43.9363 146.723 44.0813 146.35 44.3529C145.977 44.6246 145.687 45.0106 145.516 45.4621C145.345 45.9135 145.3 46.4102 145.389 46.889C145.477 47.3678 145.695 47.8073 146.013 48.1517C146.331 48.496 146.736 48.7299 147.177 48.8235C147.617 48.9171 148.073 48.8663 148.487 48.6776C148.901 48.4888 149.254 48.1705 149.502 47.7631C149.749 47.3557 149.88 46.8775 149.877 46.3891C149.874 45.7373 149.634 45.1135 149.209 44.6539C148.784 44.1943 148.21 43.9363 147.611 43.9363Z" fill="white"/>
<path d="M145.958 78.3498V73.5531H149.264V78.3498H152.625V71.1574H154.774L147.611 63.9624L140.451 71.1574H142.597V78.3498H145.958Z" fill="#00D1B2"/>
<path d="M110.553 100.643V95.4652C110.553 95.1735 110.446 94.8938 110.257 94.6876C110.067 94.4813 109.81 94.3655 109.542 94.3655C109.274 94.3655 109.017 94.4813 108.828 94.6876C108.638 94.8938 108.532 95.1735 108.532 95.4652V100.643C108.133 100.887 107.82 101.267 107.641 101.725C107.462 102.182 107.428 102.692 107.543 103.173C107.659 103.654 107.918 104.08 108.279 104.384C108.641 104.688 109.085 104.853 109.542 104.853C109.999 104.853 110.443 104.688 110.805 104.384C111.167 104.08 111.426 103.654 111.541 103.173C111.657 102.692 111.622 102.182 111.444 101.725C111.265 101.267 110.951 100.887 110.553 100.643ZM109.193 95.4652C109.2 95.3713 109.24 95.2839 109.303 95.2201C109.367 95.1564 109.451 95.1211 109.537 95.1211C109.624 95.1211 109.707 95.1564 109.771 95.2201C109.835 95.2839 109.874 95.3713 109.882 95.4652V96.6262H109.193V95.4652Z" fill="white" stroke="white" stroke-miterlimit="10"/>
<path opacity="0.3" d="M183.645 99.2263H123.538V99.954H183.645V99.2263Z" fill="#00D1B2"/>
<path d="M142.098 101.317C142.974 101.317 143.684 100.544 143.684 99.5916C143.684 98.6388 142.974 97.8665 142.098 97.8665C141.223 97.8665 140.513 98.6388 140.513 99.5916C140.513 100.544 141.223 101.317 142.098 101.317Z" fill="#00D1B2"/>
<path d="M142.099 99.2263H123.538V99.954H142.099V99.2263Z" fill="#00D1B2"/>
<path d="M109.892 125.946C109.88 125.849 109.836 125.76 109.768 125.696C109.699 125.632 109.611 125.599 109.521 125.603C109.439 125.6 109.358 125.628 109.292 125.681C109.227 125.735 109.179 125.811 109.158 125.897L108.792 128.061C108.782 128.116 108.777 128.171 108.777 128.227C108.777 128.444 108.856 128.652 108.997 128.805C109.138 128.959 109.329 129.045 109.528 129.045C109.728 129.045 109.919 128.959 110.06 128.805C110.201 128.652 110.28 128.444 110.28 128.227C110.279 128.16 110.271 128.093 110.255 128.028L109.892 125.946ZM112.737 126.875C112.698 126.841 112.657 126.81 112.614 126.783L111.131 125.671C111.075 125.625 111.006 125.602 110.936 125.606C110.866 125.61 110.8 125.641 110.748 125.693C110.702 125.737 110.673 125.798 110.665 125.864C110.658 125.93 110.673 125.997 110.708 126.052L111.85 127.592C111.872 127.628 111.897 127.662 111.925 127.693C112.038 127.799 112.181 127.857 112.33 127.857C112.478 127.857 112.622 127.799 112.734 127.693C112.787 127.642 112.83 127.579 112.859 127.508C112.889 127.438 112.904 127.362 112.904 127.284C112.904 127.207 112.889 127.13 112.859 127.06C112.83 126.989 112.787 126.927 112.734 126.875H112.737ZM113.738 125.286L112.348 125.232C112.307 125.225 112.264 125.236 112.229 125.262C112.195 125.288 112.171 125.329 112.163 125.374C112.158 125.417 112.166 125.46 112.186 125.498C112.206 125.535 112.237 125.564 112.273 125.581L113.618 125.995C113.814 126.041 114.031 125.943 114.031 125.723C114.031 125.45 113.959 125.311 113.738 125.284V125.286ZM106.831 125.581C106.868 125.564 106.899 125.535 106.919 125.498C106.939 125.46 106.947 125.417 106.941 125.374C106.933 125.328 106.909 125.288 106.874 125.262C106.839 125.235 106.796 125.225 106.754 125.232L105.366 125.286C105.143 125.314 105.078 125.447 105.078 125.723C105.078 125.941 105.291 126.041 105.484 125.995L106.829 125.578L106.831 125.581ZM107.966 125.668L106.483 126.777C106.441 126.804 106.4 126.835 106.363 126.87C106.31 126.921 106.267 126.984 106.238 127.054C106.208 127.125 106.193 127.201 106.193 127.279C106.193 127.356 106.208 127.433 106.238 127.503C106.267 127.574 106.31 127.636 106.363 127.688C106.473 127.797 106.617 127.858 106.766 127.858C106.915 127.858 107.059 127.797 107.169 127.688C107.199 127.659 107.225 127.626 107.247 127.589L108.389 126.055C108.424 126 108.439 125.933 108.432 125.867C108.424 125.801 108.395 125.74 108.349 125.695C108.297 125.641 108.229 125.608 108.157 125.603C108.085 125.598 108.013 125.621 107.956 125.668H107.966ZM109.554 118.484C109.554 118.484 110.205 119.302 110.205 119.991C110.216 120.14 110.198 120.29 110.154 120.432C110.109 120.573 110.038 120.703 109.945 120.814C109.853 120.924 109.74 121.013 109.614 121.074C109.489 121.135 109.353 121.167 109.215 121.168C109.075 121.168 108.936 121.137 108.806 121.078C108.677 121.018 108.56 120.931 108.462 120.821C108.364 120.711 108.287 120.581 108.236 120.439C108.184 120.296 108.16 120.144 108.164 119.991V119.83C107.556 120.634 107.225 121.643 107.227 122.684C107.227 123.353 107.471 123.995 107.906 124.468C108.341 124.942 108.931 125.207 109.546 125.207C110.161 125.207 110.751 124.942 111.186 124.468C111.621 123.995 111.865 123.353 111.865 122.684C111.865 120.983 111.094 118.991 109.544 118.484H109.554ZM109.471 124.262C109.226 124.265 108.99 124.162 108.815 123.976C108.64 123.79 108.54 123.536 108.537 123.27C108.536 123.025 108.619 122.789 108.77 122.607C108.92 122.425 109.127 122.311 109.351 122.286C109.872 122.193 110.348 121.904 110.693 121.468C110.807 121.882 110.864 122.312 110.863 122.744C110.863 123.146 110.717 123.531 110.455 123.815C110.194 124.099 109.84 124.259 109.471 124.259V124.262Z" fill="white" stroke="white" stroke-miterlimit="10"/>
<path opacity="0.3" d="M183.645 123.365H123.538V124.093H183.645V123.365Z" fill="#00D1B2"/>
<path d="M156.123 125.455C156.999 125.455 157.709 124.683 157.709 123.73C157.709 122.778 156.999 122.005 156.123 122.005C155.248 122.005 154.538 122.778 154.538 123.73C154.538 124.683 155.248 125.455 156.123 125.455Z" fill="#00D1B2"/>
<path d="M156.276 123.365H123.538V124.093H156.276V123.365Z" fill="#00D1B2"/>
<path d="M108.166 151.726C108.167 151.85 108.212 151.969 108.293 152.056C108.374 152.144 108.483 152.194 108.597 152.194H110.49C110.604 152.194 110.713 152.144 110.794 152.056C110.875 151.969 110.92 151.85 110.921 151.726V151.306H108.166V151.726ZM109.544 143.201C107.828 143.201 106.446 144.604 106.446 146.34C106.449 146.858 106.572 147.366 106.803 147.818C107.034 148.271 107.366 148.653 107.768 148.929V149.946C107.77 150.007 107.783 150.067 107.806 150.123C107.83 150.179 107.863 150.229 107.904 150.271C107.945 150.313 107.993 150.345 108.046 150.366C108.099 150.388 108.155 150.398 108.211 150.396H110.876C110.932 150.398 110.988 150.388 111.041 150.366C111.094 150.345 111.142 150.313 111.183 150.271C111.224 150.229 111.258 150.179 111.281 150.123C111.304 150.067 111.317 150.007 111.319 149.946V148.929C111.722 148.653 112.054 148.272 112.286 147.819C112.518 147.367 112.641 146.858 112.644 146.34C112.644 144.604 111.259 143.201 109.544 143.201Z" fill="white" stroke="white" stroke-miterlimit="10"/>
<path opacity="0.3" d="M183.645 147.335H123.538V148.063H183.645V147.335Z" fill="#00D1B2"/>
<path d="M171.651 149.423C172.526 149.423 173.236 148.65 173.236 147.697C173.236 146.745 172.526 145.972 171.651 145.972C170.775 145.972 170.065 146.745 170.065 147.697C170.065 148.65 170.775 149.423 171.651 149.423Z" fill="#00D1B2"/>
<path d="M171.804 147.335H123.538V148.063H171.804V147.335Z" fill="#00D1B2"/>
<path d="M107.478 166.012V171.256H108.855V175.753L111.61 169.757H110.232L111.61 166.012H107.478Z" fill="white" stroke="white" stroke-miterlimit="10"/>
<path opacity="0.3" d="M183.645 170.52H123.538V171.248H183.645V170.52Z" fill="#00D1B2"/>
<path d="M142.098 172.608C142.974 172.608 143.684 171.835 143.684 170.882C143.684 169.93 142.974 169.157 142.098 169.157C141.223 169.157 140.513 169.93 140.513 170.882C140.513 171.835 141.223 172.608 142.098 172.608Z" fill="#00D1B2"/>
<path d="M142.099 170.52H123.538V171.248H142.099V170.52Z" fill="#00D1B2"/>
<path d="M86.1724 215.846C94.398 215.846 101.066 214.45 101.066 212.728C101.066 211.006 94.398 209.61 86.1724 209.61C77.9468 209.61 71.2786 211.006 71.2786 212.728C71.2786 214.45 77.9468 215.846 86.1724 215.846Z" fill="#00D1B2"/>
<path d="M85.9245 213.873C86.8816 213.873 87.6575 212.767 87.6575 211.404C87.6575 210.04 86.8816 208.934 85.9245 208.934C84.9673 208.934 84.1914 210.04 84.1914 211.404C84.1914 212.767 84.9673 213.873 85.9245 213.873Z" fill="#3F3D56"/>
<path d="M85.9245 210.853C86.8816 210.853 87.6575 209.748 87.6575 208.384C87.6575 207.02 86.8816 205.915 85.9245 205.915C84.9673 205.915 84.1914 207.02 84.1914 208.384C84.1914 209.748 84.9673 210.853 85.9245 210.853Z" fill="#3F3D56"/>
<path d="M85.9245 207.836C86.8816 207.836 87.6575 206.731 87.6575 205.367C87.6575 204.003 86.8816 202.898 85.9245 202.898C84.9673 202.898 84.1914 204.003 84.1914 205.367C84.1914 206.731 84.9673 207.836 85.9245 207.836Z" fill="#3F3D56"/>
<path d="M85.9245 204.816C86.8816 204.816 87.6575 203.711 87.6575 202.347C87.6575 200.983 86.8816 199.878 85.9245 199.878C84.9673 199.878 84.1914 200.983 84.1914 202.347C84.1914 203.711 84.9673 204.816 85.9245 204.816Z" fill="#3F3D56"/>
<path d="M85.9245 201.797C86.8816 201.797 87.6575 200.691 87.6575 199.327C87.6575 197.964 86.8816 196.858 85.9245 196.858C84.9673 196.858 84.1914 197.964 84.1914 199.327C84.1914 200.691 84.9673 201.797 85.9245 201.797Z" fill="#3F3D56"/>
<path d="M85.9245 198.777C86.8816 198.777 87.6575 197.671 87.6575 196.308C87.6575 194.944 86.8816 193.839 85.9245 193.839C84.9673 193.839 84.1914 194.944 84.1914 196.308C84.1914 197.671 84.9673 198.777 85.9245 198.777Z" fill="#3F3D56"/>
<path d="M85.9245 195.757C86.8816 195.757 87.6575 194.652 87.6575 193.288C87.6575 191.924 86.8816 190.819 85.9245 190.819C84.9673 190.819 84.1914 191.924 84.1914 193.288C84.1914 194.652 84.9673 195.757 85.9245 195.757Z" fill="#3F3D56"/>
<path d="M92.4133 172.629C92.6497 172.3 92.8656 171.954 93.0595 171.594L88.5014 170.776L93.4301 170.817C93.9021 169.697 94.1595 168.485 94.1866 167.254C94.2137 166.022 94.01 164.798 93.5879 163.655L86.9812 167.389L93.077 162.51C92.5059 161.436 91.7375 160.5 90.8198 159.763C89.9021 159.026 88.8547 158.502 87.7429 158.225C86.6311 157.947 85.4787 157.922 84.3575 158.15C83.2363 158.379 82.1703 158.856 81.226 159.552C80.2817 160.249 79.4793 161.149 78.8688 162.198C78.2583 163.246 77.8528 164.421 77.6775 165.647C77.5022 166.874 77.561 168.126 77.8501 169.327C78.1391 170.528 78.6524 171.651 79.3578 172.627C78.9905 173.134 78.6732 173.682 78.4111 174.262L84.3266 177.606L78.0204 175.319C77.5777 176.744 77.4681 178.265 77.7016 179.747C77.9351 181.229 78.5043 182.624 79.3578 183.806C78.3948 185.139 77.7959 186.741 77.6296 188.427C77.4633 190.113 77.7362 191.816 78.4173 193.341C79.0983 194.866 80.1599 196.152 81.4808 197.052C82.8017 197.952 84.3285 198.429 85.8868 198.429C87.4451 198.429 88.9719 197.952 90.2928 197.052C91.6137 196.152 92.6753 194.866 93.3564 193.341C94.0374 191.816 94.3104 190.113 94.144 188.427C93.9777 186.741 93.3788 185.139 92.4158 183.806C93.5662 182.213 94.1916 180.246 94.1916 178.219C94.1916 176.193 93.5662 174.225 92.4158 172.632L92.4133 172.629Z" fill="#00D1B2"/>
<path opacity="0.1" d="M77.582 178.217C77.5785 180.243 78.2042 182.212 79.3577 183.804C78.3947 185.137 77.7958 186.738 77.6295 188.424C77.4632 190.11 77.7361 191.813 78.4172 193.338C79.0982 194.864 80.1598 196.15 81.4807 197.049C82.8016 197.949 84.3284 198.426 85.8867 198.426C87.445 198.426 88.9719 197.949 90.2927 197.049C91.6136 196.15 92.6753 194.864 93.3563 193.338C94.0373 191.813 94.3103 190.11 94.144 188.424C93.9776 186.738 93.3788 185.137 92.4158 183.804C93.5277 182.266 77.582 177.203 77.582 178.217Z" fill="black"/>
<path d="M53.5748 190.486C66.2915 190.486 76.6004 188.329 76.6004 185.668C76.6004 183.007 66.2915 180.849 53.5748 180.849C40.858 180.849 30.5491 183.007 30.5491 185.668C30.5491 188.329 40.858 190.486 53.5748 190.486Z" fill="#00D1B2"/>
<path d="M53.9578 187.439C55.4378 187.439 56.6375 185.73 56.6375 183.621C56.6375 181.512 55.4378 179.803 53.9578 179.803C52.4778 179.803 51.2781 181.512 51.2781 183.621C51.2781 185.73 52.4778 187.439 53.9578 187.439Z" fill="#3F3D56"/>
<path d="M53.9578 182.771C55.4378 182.771 56.6375 181.061 56.6375 178.952C56.6375 176.844 55.4378 175.134 53.9578 175.134C52.4778 175.134 51.2781 176.844 51.2781 178.952C51.2781 181.061 52.4778 182.771 53.9578 182.771Z" fill="#3F3D56"/>
<path d="M53.9578 178.102C55.4378 178.102 56.6375 176.393 56.6375 174.284C56.6375 172.175 55.4378 170.465 53.9578 170.465C52.4778 170.465 51.2781 172.175 51.2781 174.284C51.2781 176.393 52.4778 178.102 53.9578 178.102Z" fill="#3F3D56"/>
<path d="M53.9578 173.433C55.4378 173.433 56.6375 171.724 56.6375 169.615C56.6375 167.506 55.4378 165.797 53.9578 165.797C52.4778 165.797 51.2781 167.506 51.2781 169.615C51.2781 171.724 52.4778 173.433 53.9578 173.433Z" fill="#3F3D56"/>
<path d="M53.9578 168.768C55.4378 168.768 56.6375 167.058 56.6375 164.949C56.6375 162.84 55.4378 161.131 53.9578 161.131C52.4778 161.131 51.2781 162.84 51.2781 164.949C51.2781 167.058 52.4778 168.768 53.9578 168.768Z" fill="#3F3D56"/>
<path d="M53.9578 164.099C55.4378 164.099 56.6375 162.389 56.6375 160.281C56.6375 158.172 55.4378 156.462 53.9578 156.462C52.4778 156.462 51.2781 158.172 51.2781 160.281C51.2781 162.389 52.4778 164.099 53.9578 164.099Z" fill="#3F3D56"/>
<path d="M53.9578 159.43C55.4378 159.43 56.6375 157.721 56.6375 155.612C56.6375 153.503 55.4378 151.794 53.9578 151.794C52.4778 151.794 51.2781 153.503 51.2781 155.612C51.2781 157.721 52.4778 159.43 53.9578 159.43Z" fill="#3F3D56"/>
<path d="M43.9227 123.668C43.5558 123.16 43.2211 122.625 42.921 122.068L49.9684 120.812L42.3499 120.874C41.6188 119.144 41.2196 117.27 41.1765 115.366C41.1334 113.462 41.4475 111.568 42.0995 109.801L52.3226 115.571L42.9009 108.027C43.7853 106.369 44.9738 104.926 46.3924 103.789C47.8109 102.652 49.4293 101.845 51.1468 101.418C52.8642 100.991 54.6441 100.953 56.3757 101.306C58.1072 101.66 59.7534 102.397 61.2119 103.473C62.6704 104.548 63.91 105.939 64.8535 107.558C65.7971 109.177 66.4244 110.99 66.6966 112.884C66.9687 114.778 66.8798 116.713 66.4354 118.568C65.991 120.423 65.2006 122.159 64.1134 123.668C64.6843 124.457 65.1747 125.311 65.576 126.216L56.4323 131.394L66.1821 127.832C66.8661 130.033 67.0352 132.386 66.674 134.676C66.3128 136.966 65.4327 139.122 64.1134 140.949C65.6035 143.011 66.5304 145.487 66.7883 148.095C67.0461 150.703 66.6245 153.337 65.5715 155.696C64.5185 158.055 62.8767 160.044 60.8339 161.436C58.791 162.828 56.4295 163.566 54.0193 163.566C51.6092 163.566 49.2476 162.828 47.2048 161.436C45.1619 160.044 43.5201 158.055 42.4671 155.696C41.4141 153.337 40.9925 150.703 41.2503 148.095C41.5082 145.487 42.4351 143.011 43.9252 140.949C42.1454 138.486 41.1778 135.443 41.1778 132.309C41.1778 129.175 42.1454 126.132 43.9252 123.668H43.9227Z" fill="#00D1B2"/>
<path opacity="0.1" d="M66.8682 132.307C66.8702 135.443 65.8995 138.488 64.1133 140.949C65.6034 143.011 66.5303 145.487 66.7882 148.095C67.046 150.703 66.6244 153.337 65.5714 155.696C64.5184 158.055 62.8766 160.044 60.8338 161.436C58.7909 162.828 56.4294 163.566 54.0192 163.566C51.6091 163.566 49.2475 162.828 47.2047 161.436C45.1618 160.044 43.52 158.055 42.467 155.696C41.414 153.337 40.9924 150.703 41.2502 148.095C41.5081 145.487 42.435 143.011 43.9251 140.949C42.2021 138.57 66.8682 130.74 66.8682 132.307Z" fill="black"/>
<path opacity="0.1" d="M220.89 222C234.583 222 245.684 219.438 245.684 216.277C245.684 213.116 234.583 210.553 220.89 210.553C207.197 210.553 196.096 213.116 196.096 216.277C196.096 219.438 207.197 222 220.89 222Z" fill="#00D1B2"/>
<path d="M211.687 216.936C211.702 217.076 211.734 217.212 211.782 217.342C211.919 217.845 212.208 218.282 212.603 218.582C212.806 218.71 213.026 218.802 213.254 218.855C214.79 219.255 216.385 219.127 217.953 219.299C219.52 219.471 221.181 219.915 222.729 219.435C223.099 219.321 223.48 219.111 223.63 218.699C223.64 218.674 223.648 218.648 223.653 218.62C224.777 218.779 225.907 218.893 226.984 218.563C227.352 218.449 227.735 218.239 227.885 217.827C227.943 217.614 227.961 217.391 227.938 217.171C227.893 216.023 227.843 214.859 227.522 213.772C227.402 213.38 227.259 212.997 227.094 212.625C226.848 212.052 226.581 211.494 226.292 210.948L226.205 210.771C226.415 210.872 226.62 210.981 226.823 211.098C227.754 207.951 228.431 204.722 228.849 201.448C229.368 197.563 229.263 193.61 228.539 189.764C228.315 188.481 228.231 187.174 228.288 185.869C228.391 183.272 228.945 180.732 229.496 178.208C229.776 176.936 230.056 175.656 230.335 174.368C230.732 172.551 231.131 170.727 231.532 168.896C231.797 167.683 232.063 166.443 231.98 165.194C231.922 164.512 231.798 163.837 231.609 163.183C231.326 162.127 230.975 161.094 230.557 160.093C230.68 160.118 230.807 160.089 230.911 160.014C230.993 159.919 231.048 159.801 231.068 159.673L231.699 157.198C232.143 155.465 232.586 153.718 232.701 151.919C232.839 149.883 232.556 147.831 232.496 145.803C232.418 143.154 232.714 140.497 232.556 137.853C232.521 137.281 232.466 136.711 232.403 136.144C232.431 135.845 232.438 135.545 232.446 135.245C232.486 133.768 232.471 132.293 231.972 130.931C231.63 129.959 231.062 129.1 230.322 128.44C230.345 128.317 230.37 128.197 230.392 128.075L230.918 125.349C231.499 122.327 232.085 119.231 231.752 116.159C231.454 113.434 230.279 110.665 228.291 109.209L228.273 109.196L228.061 109.049L228.023 109.024C227.958 108.98 227.89 108.94 227.823 108.901L227.773 108.871C227.692 108.822 227.607 108.776 227.522 108.735C226.884 108.423 226.21 108.204 225.519 108.084L225.243 108.037C224.968 107.99 224.692 107.959 224.414 107.945H224.136C223.859 107.941 223.582 107.959 223.307 107.999C223.204 107.999 223.104 108.032 223.002 108.054L222.701 108.122C222.107 108.307 221.501 108.445 220.888 108.533C220.773 108.533 220.655 108.55 220.54 108.553C220.192 108.553 219.843 108.528 219.493 108.506C219.32 108.506 219.145 108.49 218.972 108.49C218.684 108.485 218.396 108.514 218.113 108.574C217.624 108.696 217.163 108.927 216.761 109.253C216.464 109.489 216.188 109.755 215.939 110.049C215.737 110.286 215.546 110.536 215.368 110.796C215.285 110.915 215.205 111.038 215.118 111.166L215.002 111.36C214.93 111.493 214.86 111.632 214.795 111.763C214.698 111.968 214.615 112.179 214.544 112.395C214.345 112.959 214.306 113.576 214.431 114.164C214.462 114.289 214.499 114.412 214.542 114.532C214.085 115.511 213.849 116.593 213.853 117.691C213.853 120.689 215.571 123.218 217.933 124.052C218.221 124.63 218.571 125.366 218.864 126.08C218.243 126.563 217.702 127.159 217.264 127.84C215.796 127.75 214.349 129.023 213.883 130.628C213.713 131.246 213.652 131.894 213.705 132.536C213.4 133.877 213.385 135.327 213.357 136.728C213.314 138.935 213.209 141.137 213.107 143.342C213.004 145.547 212.899 147.733 212.794 149.93C212.763 150.559 212.733 151.191 212.658 151.816C212.29 151.922 212.273 152.47 212.315 152.906C212.43 154.069 212.618 155.247 212.738 156.416C212.575 157.137 212.54 157.886 212.636 158.621L212.849 158.724C212.836 159.478 212.735 160.226 212.548 160.951C212.523 161.083 212.468 161.206 212.388 161.308C212.494 161.259 212.606 161.229 212.721 161.218C212.403 162.357 212.15 163.524 211.777 164.644C211.584 165.222 211.358 165.789 211.193 166.38C211.048 166.941 210.931 167.511 210.843 168.086C210.78 168.417 210.735 168.752 210.71 169.089C210.672 169.736 210.772 170.383 211.001 170.981C211.23 171.58 211.582 172.113 212.03 172.539C212.03 172.763 212.015 172.984 212.015 173.207C212.015 174.802 212.23 176.39 212.177 177.982C212.107 180.127 211.754 182.157 211.744 184.305C211.712 190.246 213.209 196.054 214.967 201.639C215.664 203.852 216.402 206.044 217.184 208.215C217.645 209.501 218.166 210.94 217.67 212.202C217.837 212.129 218.003 212.06 218.171 211.995C217.91 212.708 217.52 213.357 217.023 213.903C216.246 214.735 215.233 215.257 214.148 215.383C213.625 215.445 213.087 215.413 212.588 215.612C212.09 215.811 211.636 216.334 211.687 216.936ZM218.088 186.106C218.632 183.035 219.673 180.093 221.163 177.418L221.178 177.595C221.258 178.473 221.406 179.35 221.567 180.225C221.902 182.067 222.295 183.907 222.235 185.758C222.172 187.719 222.278 189.683 222.551 191.623C222.633 192.382 222.801 193.127 223.052 193.841C223.217 194.266 223.432 194.659 223.553 195.106C223.682 195.616 223.75 196.143 223.753 196.673C223.975 201.04 223.73 205.42 223.022 209.725C222.849 209.725 222.739 209.755 222.736 209.779C222.631 210.516 222.399 211.224 222.052 211.867L222.022 211.807C221.962 211.692 221.9 211.562 221.835 211.431L222.042 211.466C221.469 210.12 221.521 208.55 221.496 207.051C221.447 205.017 221.257 202.99 220.928 200.987C220.436 197.955 219.581 195.007 218.386 192.217C218.14 191.63 217.971 191.007 217.885 190.369C217.726 188.946 217.795 187.504 218.088 186.106ZM228.419 153.674C228.325 153.536 228.223 153.403 228.116 153.276C227.865 152.985 227.565 152.647 227.64 152.249C227.678 152.093 227.75 151.949 227.85 151.829C228.051 151.555 228.274 151.301 228.516 151.069L228.596 150.992C228.536 151.881 228.477 152.772 228.419 153.666V153.674Z" fill="url(#paint0_linear)"/>
<path d="M232.07 133.893L232.346 136.207C232.438 136.992 232.531 137.774 232.581 138.562C232.749 141.184 232.438 143.816 232.518 146.444C232.583 148.466 232.879 150.486 232.736 152.505C232.608 154.287 232.143 156.021 231.677 157.738L231.016 160.191C230.993 160.319 230.935 160.437 230.85 160.529C230.723 160.611 230.572 160.637 230.427 160.602L227.492 160.33C227.68 159.392 227.888 158.422 227.993 157.46C228.073 156.708 228.121 155.95 228.171 155.192C228.326 152.832 228.504 150.472 228.672 148.106L228.985 143.964C229.117 142.165 229.255 140.358 229.671 138.611C230.086 136.841 230.912 135.216 232.07 133.893Z" fill="#00D1B2"/>
<path opacity="0.1" d="M232.07 133.893L232.346 136.207C232.438 136.992 232.531 137.774 232.581 138.562C232.749 141.184 232.438 143.816 232.518 146.444C232.583 148.466 232.879 150.486 232.736 152.505C232.608 154.287 232.143 156.021 231.677 157.738L231.016 160.191C230.993 160.319 230.935 160.437 230.85 160.529C230.723 160.611 230.572 160.637 230.427 160.602L227.492 160.33C227.68 159.392 227.888 158.422 227.993 157.46C228.073 156.708 228.121 155.95 228.171 155.192C228.326 152.832 228.504 150.472 228.672 148.106L228.985 143.964C229.117 142.165 229.255 140.358 229.671 138.611C230.086 136.841 230.912 135.216 232.07 133.893Z" fill="black"/>
<path d="M226.841 212.671C227.013 213.04 227.164 213.42 227.292 213.81C227.627 214.887 227.677 216.042 227.727 217.179C227.749 217.398 227.731 217.619 227.672 217.83C227.527 218.239 227.111 218.446 226.723 218.558C225.098 219.035 223.385 218.588 221.714 218.424C220.044 218.261 218.393 218.381 216.78 217.985C216.542 217.935 216.312 217.848 216.097 217.727C215.688 217.437 215.383 217.004 215.233 216.5C215.184 216.371 215.151 216.235 215.135 216.097C215.082 215.497 215.561 214.979 216.082 214.783C216.603 214.587 217.171 214.617 217.72 214.557C218.849 214.431 219.909 213.903 220.735 213.055C221.561 212.207 222.107 211.086 222.288 209.867C222.308 209.736 225.003 209.815 225.293 209.984C225.624 210.183 225.824 210.676 226.012 211.011C226.307 211.551 226.584 212.104 226.841 212.671Z" fill="#A26565"/>
<path opacity="0.1" d="M226.841 212.671C227.013 213.04 227.164 213.42 227.292 213.81C227.627 214.887 227.677 216.042 227.727 217.179C227.749 217.398 227.731 217.619 227.672 217.83C227.527 218.239 227.111 218.446 226.723 218.558C225.098 219.035 223.385 218.588 221.714 218.424C220.044 218.261 218.393 218.381 216.78 217.985C216.542 217.935 216.312 217.848 216.097 217.727C215.688 217.437 215.383 217.004 215.233 216.5C215.184 216.371 215.151 216.235 215.135 216.097C215.082 215.497 215.561 214.979 216.082 214.783C216.603 214.587 217.171 214.617 217.72 214.557C218.849 214.431 219.909 213.903 220.735 213.055C221.561 212.207 222.107 211.086 222.288 209.867C222.308 209.736 225.003 209.815 225.293 209.984C225.624 210.183 225.824 210.676 226.012 211.011C226.307 211.551 226.584 212.104 226.841 212.671Z" fill="black"/>
<path d="M222.37 213.538C222.544 213.905 222.694 214.285 222.821 214.674C223.159 215.764 223.209 216.906 223.257 218.043C223.28 218.262 223.262 218.484 223.202 218.694C223.059 219.103 222.643 219.31 222.255 219.425C220.63 219.899 218.914 219.452 217.246 219.288C215.578 219.125 213.923 219.245 212.313 218.849C212.073 218.797 211.843 218.705 211.629 218.577C211.22 218.288 210.915 217.855 210.765 217.35C210.716 217.221 210.684 217.086 210.667 216.947C210.615 216.35 211.093 215.83 211.614 215.633C212.135 215.437 212.703 215.47 213.252 215.407C214.381 215.281 215.44 214.754 216.266 213.906C217.092 213.059 217.638 211.939 217.82 210.72C217.84 210.589 220.535 210.665 220.825 210.834C221.158 211.033 221.359 211.526 221.546 211.862C221.832 212.415 222.112 212.971 222.37 213.538Z" fill="#A26565"/>
<path d="M210.717 184.586C210.682 190.475 212.255 196.231 214.101 201.756C214.832 203.947 215.608 206.119 216.427 208.272C216.913 209.548 217.462 210.965 216.941 212.224C218.444 211.603 219.971 211.237 221.552 211.524C220.95 210.188 221.008 208.635 220.981 207.163C220.929 205.146 220.732 203.136 220.389 201.153C219.859 198.135 218.95 195.211 217.687 192.462C217.432 191.883 217.256 191.266 217.164 190.631C216.958 189.23 217.119 187.791 217.387 186.404C217.963 183.34 219.059 180.419 220.617 177.791L220.632 177.966C220.726 178.842 220.861 179.713 221.038 180.574C221.391 182.397 221.804 184.223 221.742 186.057C221.677 188.002 221.787 189.949 222.072 191.871C222.164 192.625 222.345 193.363 222.611 194.067C222.784 194.49 223.009 194.885 223.144 195.324C223.28 195.829 223.351 196.351 223.355 196.877C223.555 201.311 223.355 205.814 222.523 210.161C223.918 210.041 225.313 210.48 226.56 211.161C227.536 208.049 228.248 204.847 228.689 201.595C229.233 197.748 229.122 193.826 228.364 190.023C228.127 188.755 228.039 187.459 228.101 186.166C228.208 183.591 228.789 181.073 229.368 178.571L230.249 174.755C230.667 172.938 231.084 171.13 231.502 169.329C231.78 168.127 232.06 166.898 231.972 165.661C231.911 164.982 231.78 164.313 231.582 163.666C230.956 161.465 230.021 159.384 228.809 157.495C223.983 157.79 219.1 157.299 214.284 156.896C214.05 156.846 213.808 156.89 213.602 157.021C213.438 157.203 213.34 157.443 213.327 157.697L211.516 168.871C211.227 170.425 211.06 172.002 211.015 173.586C211.015 175.167 211.241 176.742 211.186 178.32C211.098 180.446 210.727 182.457 210.717 184.586Z" fill="#454B69"/>
<path opacity="0.1" d="M220.64 177.966C220.733 178.842 220.869 179.713 221.046 180.574C222.095 178.598 223.227 176.671 224.194 174.646C224.444 174.126 224.68 173.597 224.917 173.068L225.631 171.487C225.764 171.19 225.897 170.893 226.017 170.591C226.213 170.156 226.363 169.699 226.465 169.228C226.115 169.157 225.248 170.187 224.988 170.457C224.456 171.03 223.955 171.634 223.485 172.267C222.906 172.97 222.374 173.717 221.892 174.502C221.295 175.569 220.871 176.741 220.64 177.966Z" fill="black"/>
<path d="M216.608 123.755C216.608 123.755 219.287 128.402 218.792 129.375C218.296 130.348 227.231 128.511 227.231 128.511C227.231 128.511 222.365 123.864 222.864 121.918C223.362 119.972 216.608 123.755 216.608 123.755Z" fill="#EE8E9E"/>
<path d="M218.989 125.161C222.335 125.161 225.048 122.21 225.048 118.568C225.048 114.927 222.335 111.976 218.989 111.976C215.644 111.976 212.931 114.927 212.931 118.568C212.931 122.21 215.644 125.161 218.989 125.161Z" fill="#EE8E9E"/>
<path d="M216.518 128.628C217.165 127.645 218.045 126.872 219.065 126.39C219.651 126.162 220.258 125.999 220.875 125.905L223.292 125.442C223.883 125.327 224.517 125.221 225.068 125.485C225.346 125.641 225.6 125.844 225.819 126.088C226.658 126.935 227.472 127.865 228.526 128.355C228.814 128.489 229.115 128.587 229.403 128.721C230.582 129.266 231.464 130.427 231.962 131.718C232.488 133.065 232.503 134.528 232.463 135.992C232.464 136.497 232.418 137.001 232.326 137.496C232.205 137.968 232.052 138.429 231.867 138.875C231.536 139.83 231.258 140.806 231.036 141.797C230.41 144.404 229.889 147.039 229.473 149.701C229.438 150.082 229.335 150.452 229.17 150.791C228.936 151.13 228.654 151.425 228.333 151.666C228.079 151.893 227.845 152.146 227.635 152.421C227.53 152.537 227.454 152.679 227.412 152.835C227.334 153.227 227.662 153.565 227.913 153.851C228.452 154.45 228.841 155.188 229.045 155.996C229.17 156.162 229.235 156.373 229.225 156.588C229.173 156.737 229.153 156.898 229.167 157.057C229.217 157.201 229.295 157.332 229.395 157.441C229.511 157.605 229.593 157.793 229.636 157.995C229.679 158.196 229.683 158.405 229.646 158.607C227.769 159.495 225.76 160.006 223.715 160.117C223.214 160.144 222.714 160.144 222.213 160.21C221.857 160.259 221.506 160.338 221.151 160.384C220.635 160.437 220.116 160.452 219.598 160.428C216.901 160.368 214.126 160.294 211.649 159.131C211.416 157.749 211.919 156.34 212.235 154.977C212.736 152.797 212.861 150.565 213.237 148.365C213.487 146.864 213.863 145.384 214.076 143.871C214.289 142.358 214.339 140.791 213.956 139.32C213.617 138.017 213.515 136.687 213.164 135.387C212.814 134.087 212.568 132.678 212.964 131.391C213.455 129.805 214.975 128.538 216.518 128.628Z" fill="#00D1B2"/>
<path d="M213.542 115.072C213.247 113.903 213.828 112.684 214.519 111.733C215.27 110.711 216.227 109.79 217.402 109.534C218.356 109.324 219.345 109.577 220.317 109.493C221.176 109.419 222.002 109.081 222.856 108.948C223.631 108.857 224.414 108.889 225.18 109.043C225.908 109.161 226.619 109.377 227.297 109.686C229.876 110.932 231.386 114.001 231.737 117.045C232.088 120.089 231.486 123.158 230.863 126.153L230.309 128.862C229.733 131.683 229.157 134.515 229.005 137.398C228.852 140.282 229.137 143.241 230.227 145.874C226.704 143.815 223.974 140.451 222.531 136.392C222.14 135.278 221.849 134.12 221.414 133.024C221.041 132.081 220.562 131.187 220.232 130.225C219.858 129.139 219.679 127.986 219.703 126.826C219.723 125.954 219.856 125.088 219.833 124.215C219.811 123.343 219.605 122.436 219.052 121.803C218.551 121.245 217.862 120.986 217.229 120.623C216.231 120.066 215.36 119.275 214.677 118.307C214.279 117.74 214.256 117.489 214.156 116.846C214.056 116.203 213.698 115.69 213.542 115.072Z" fill="#454B69"/>
<path d="M213.535 164.595C213.472 165.274 213.585 165.958 213.45 166.631C213.347 167.132 213.109 167.585 212.969 168.075C212.83 168.642 212.759 169.225 212.756 169.811C212.736 170.302 212.771 170.901 213.172 171.13C213.347 171.231 213.557 171.231 213.74 171.318C213.923 171.406 214.078 171.643 213.973 171.828C213.868 172.013 213.688 171.983 213.522 172.019C213.357 172.054 213.179 172.24 213.272 172.39C213.31 172.439 213.36 172.474 213.417 172.49C213.584 172.546 213.743 172.629 213.888 172.736C213.959 172.792 214.014 172.868 214.048 172.956C214.082 173.044 214.093 173.14 214.081 173.234C214.071 173.28 214.051 173.322 214.024 173.357C213.997 173.393 213.963 173.422 213.924 173.441C213.885 173.461 213.843 173.47 213.8 173.469C213.758 173.469 213.716 173.457 213.678 173.436C213.751 173.607 213.791 173.793 213.795 173.981C213.154 174.281 212.435 173.889 211.834 173.51C211.574 173.352 211.323 173.177 211.083 172.986C210.597 172.58 210.209 172.051 209.954 171.444C209.699 170.837 209.585 170.172 209.62 169.506C209.649 169.172 209.697 168.839 209.763 168.511C209.856 167.94 209.979 167.375 210.131 166.819C210.304 166.233 210.539 165.674 210.742 165.099C211.173 163.875 211.451 162.594 211.842 161.354C211.868 161.226 211.934 161.111 212.03 161.03C212.116 160.984 212.212 160.964 212.308 160.973C212.746 160.948 213.186 160.992 213.612 161.104C213.863 161.185 214.291 161.376 214.409 161.649C214.527 161.921 214.339 162.15 214.226 162.376C213.866 163.06 213.631 163.814 213.535 164.595Z" fill="#EE8E9E"/>
<path opacity="0.1" d="M213.943 131.479C213.814 131.622 213.706 131.785 213.622 131.964C212.761 133.667 212.751 135.703 212.711 137.646C212.666 139.827 212.556 142.007 212.445 144.201L212.117 150.742C212.085 151.366 212.055 151.99 211.972 152.609C211.586 152.715 211.571 153.26 211.614 153.699C211.892 156.364 212.581 159.109 211.864 161.673C211.837 161.805 211.779 161.927 211.696 162.028C212.06 161.904 212.449 161.898 212.816 162.011C213.174 162.093 213.52 162.237 213.88 162.327C214.336 162.439 214.852 162.488 215.163 162.872C215.515 161.721 215.795 160.544 216.002 159.351C216.172 158.261 216.219 157.138 216.625 156.13C216.788 155.724 217.008 155.348 217.209 154.958C218.258 152.919 218.774 150.616 219.277 148.343C219.503 147.266 219.558 146.154 219.438 145.057C219.365 144.556 219.323 144.051 219.312 143.544C219.343 143.009 219.407 142.477 219.505 141.952C219.718 140.411 219.618 138.838 219.212 137.344C218.837 135.956 218.506 134.496 217.71 133.329C216.913 132.163 215.273 131.498 213.943 131.479Z" fill="black"/>
<path d="M213.645 131.261C213.516 131.405 213.408 131.569 213.324 131.748C212.463 133.449 212.453 135.488 212.413 137.431C212.368 139.611 212.257 141.792 212.147 143.972L211.819 150.513C211.787 151.137 211.757 151.761 211.674 152.38C211.288 152.486 211.273 153.031 211.318 153.47C211.594 156.135 212.283 158.877 211.569 161.444C211.541 161.576 211.483 161.698 211.401 161.799C211.765 161.675 212.154 161.669 212.52 161.782C212.879 161.864 213.224 162.009 213.585 162.096C214.041 162.21 214.557 162.257 214.867 162.641C215.22 161.488 215.5 160.311 215.706 159.117C215.876 158.027 215.924 156.907 216.33 155.898C216.506 155.497 216.701 155.106 216.913 154.726C217.965 152.688 218.478 150.382 218.982 148.109C219.208 147.031 219.262 145.92 219.142 144.822C218.954 143.795 218.977 142.735 219.21 141.718C219.423 140.178 219.323 138.606 218.917 137.112C218.541 135.725 218.21 134.264 217.414 133.098C216.618 131.931 214.975 131.282 213.645 131.261Z" fill="#00D1B2"/>
<g opacity="0.1">
<path opacity="0.1" d="M214.519 111.733C215.27 110.711 216.227 109.79 217.402 109.534C218.356 109.324 219.345 109.577 220.317 109.493C221.176 109.419 222.002 109.081 222.856 108.948C223.631 108.857 224.414 108.889 225.18 109.043C225.908 109.161 226.619 109.377 227.297 109.686C227.663 109.865 228.013 110.081 228.341 110.332C227.737 110.077 227.11 109.894 226.47 109.787C225.705 109.633 224.923 109.601 224.149 109.692C223.292 109.812 222.468 110.147 221.607 110.221C220.637 110.305 219.648 110.054 218.691 110.261C217.517 110.518 216.555 111.441 215.811 112.464C215.118 113.412 214.539 114.63 214.832 115.802C214.987 116.418 215.348 116.958 215.446 117.593C215.543 118.228 215.568 118.487 215.969 119.054C216.483 119.781 217.104 120.41 217.807 120.915C217.614 120.817 217.417 120.719 217.229 120.612C216.231 120.055 215.36 119.264 214.677 118.296C214.279 117.729 214.256 117.478 214.156 116.835C214.056 116.192 213.698 115.663 213.542 115.044C213.247 113.903 213.828 112.684 214.519 111.733Z" fill="black"/>
<path opacity="0.1" d="M219.052 121.82C218.948 121.703 218.835 121.596 218.714 121.501C219.292 121.806 219.901 122.073 220.344 122.591C220.898 123.221 221.096 124.131 221.126 125.003C221.156 125.875 221.013 126.742 220.995 127.611C220.971 128.771 221.15 129.926 221.524 131.012C221.854 131.975 222.333 132.866 222.706 133.811C223.139 134.902 223.43 136.063 223.82 137.177C225.072 140.696 227.296 143.707 230.184 145.795C230.199 145.83 230.212 145.869 230.227 145.904C226.704 143.845 223.974 140.481 222.531 136.422C222.14 135.308 221.849 134.149 221.414 133.054C221.04 132.111 220.562 131.217 220.232 130.255C219.858 129.169 219.679 128.015 219.703 126.856C219.723 125.984 219.856 125.117 219.833 124.245C219.811 123.373 219.605 122.447 219.052 121.82Z" fill="black"/>
</g>
<path opacity="0.1" d="M49.0492 33.1899H33.096C31.8304 33.1899 30.8044 34.3064 30.8044 35.6837V46.5035C30.8044 47.8808 31.8304 48.9972 33.096 48.9972H49.0492C50.3148 48.9972 51.3407 47.8808 51.3407 46.5035V35.6837C51.3407 34.3064 50.3148 33.1899 49.0492 33.1899Z" fill="#00D1B2"/>
<path opacity="0.1" d="M69.5856 60.989H53.6324C52.3668 60.989 51.3408 62.1055 51.3408 63.4827V74.3026C51.3408 75.6798 52.3668 76.7963 53.6324 76.7963H69.5856C70.8511 76.7963 71.8771 75.6798 71.8771 74.3026V63.4827C71.8771 62.1055 70.8511 60.989 69.5856 60.989Z" fill="#00D1B2"/>
<path opacity="0.1" d="M240.387 35.9153H224.434C223.169 35.9153 222.143 37.0318 222.143 38.409V49.2289C222.143 50.6061 223.169 51.7226 224.434 51.7226H240.387C241.653 51.7226 242.679 50.6061 242.679 49.2289V38.409C242.679 37.0318 241.653 35.9153 240.387 35.9153Z" fill="#00D1B2"/>
</g>
<defs>
<linearGradient id="paint0_linear" x1="221.722" y1="219.637" x2="221.722" y2="107.923" gradientUnits="userSpaceOnUse">
<stop stop-color="#808080" stop-opacity="0.25"/>
<stop offset="0.54" stop-color="#808080" stop-opacity="0.12"/>
<stop offset="1" stop-color="#808080" stop-opacity="0.1"/>
</linearGradient>
<clipPath id="clip0">
<rect width="283" height="222" fill="white"/>
</clipPath>
</defs>
</svg>
