<svg width="271" height="228" viewBox="0 0 271 228" fill="none" xmlns="http://www.w3.org/2000/svg">
<g clip-path="url(#clip0)">
<path opacity="0.1" d="M92.1464 8.74201C100.803 1.07316 114.384 -0.49065 126.749 0.120927C165.583 2.03881 200.641 20.6865 230.953 41.7779C241.931 49.4118 252.737 57.6413 259.862 68.1561C274.366 89.5613 270.064 119.215 249.884 136.848C243.023 142.846 234.704 147.446 226.152 151.524C210.967 158.766 194.584 164.592 177.341 166.25C165.051 167.43 152.611 166.47 140.395 164.823C106.259 160.217 72.7511 150.035 44.6587 132.616C32.3398 124.974 20.7301 115.476 15.6548 103.11C10.5794 90.7442 13.8695 75.1061 26.4473 67.7752C31.6494 64.7495 37.8682 63.3815 43.9576 62.0994C52.919 60.2217 62.026 58.3441 70.1164 54.5083C78.4764 50.5438 88.3628 42.8723 86.7097 34.0929C84.9325 24.6779 83.5167 16.4028 92.1464 8.74201Z" fill="#00D1B2"/>
<path d="M142.808 228C213.607 228 271 219.227 271 208.405C271 197.584 213.607 188.811 142.808 188.811C72.0099 188.811 14.6166 197.584 14.6166 208.405C14.6166 219.227 72.0099 228 142.808 228Z" fill="#00D1B2"/>
<path d="M211.52 142.835C211.52 142.835 209.875 142.339 207.688 141.714C206.732 141.213 205.681 140.918 204.602 140.85C202.022 140.145 199.371 139.474 197.936 139.265C194.541 138.769 188.546 136.886 188.546 136.886C186.248 137.084 183.851 135.397 183.851 135.397C183.851 135.397 181.372 130.934 179.932 129.952C179.876 129.909 179.815 129.873 179.752 129.842C179.549 129.725 179.359 129.587 179.185 129.431C177.705 124.63 174.471 124.335 174.304 124.319C173.678 123.613 173.112 122.964 172.686 122.46C174.353 113.496 179.339 103.488 190.798 95.0276C190.798 95.0276 197.604 87.1039 193.648 77.9356C189.692 68.7673 188.584 68.6145 181.782 70.3231L166.408 77.6272C166.408 77.6272 162.071 78.6518 153.652 79.1239C152.951 77.7264 151.861 76.5703 150.365 76.2109C147.209 75.4544 144.459 78.7403 141.43 77.8364C139.119 77.147 136.328 74.4352 134.057 77.0612C133.736 77.4313 133.518 77.8847 133.216 78.2656C133.003 78.5254 132.752 78.7523 132.472 78.9388C127.31 78.6008 121.579 78.0376 115.293 77.1604L101.685 69.0812C101.685 69.0812 93.298 65.1971 92.9825 75.4518C92.667 85.7064 91.8741 90.5212 95.5121 93.3189C98.1495 95.3441 106.763 109.193 109.988 121.1C109.514 121.776 109.22 122.202 109.22 122.202C109.22 122.202 100.027 134.603 99.328 134.901C99.2822 134.92 99.2633 134.987 99.266 135.089C99.1312 135.378 98.7267 135.933 97.4295 136.29C95.6307 136.786 87.6402 139.166 86.5399 139.166C85.4396 139.166 80.4478 139.463 79.9462 141.448C80.2618 141.433 80.5781 141.439 80.8928 141.467L80.6528 141.77C79.2882 143.514 76.9906 146.762 76.8503 148.986C76.6481 152.159 77.5488 161.979 82.7455 161.88C87.9422 161.781 85.5421 147.202 85.5421 147.202L86.1515 145.421L86.1677 145.378L86.5884 148.31C86.6801 148.259 86.7691 148.208 86.8581 148.165C87.33 149.592 89.0425 150.99 93.8859 151.086C93.8859 151.086 101.378 151.781 106.973 162.888C112.051 172.974 128.906 182.322 141.239 182.252V198.596L139.543 199.092L117.518 199.468C117.151 199.473 116.8 199.617 116.536 199.871C116.273 200.124 116.116 200.469 116.099 200.833L115.965 203.655L122.351 204.253L102.475 209.014C102.475 209.014 98.9694 208.716 99.5761 213.676H104.474L104.573 212.684L144.335 209.907L146.635 210.476C146.314 212.147 145.991 213.51 145.907 213.867L145.883 213.958C145.883 213.958 145.883 214.022 145.85 214.14C145.616 214.06 145.484 214.006 145.484 214.006C144.944 214.618 144.634 220.999 144.586 221.645C144.537 222.292 147.083 223.07 147.083 223.07C148.237 223.491 152.716 223.07 152.716 223.07C154.197 222.984 158.169 221.6 158.169 221.6L157.819 214.607C157.646 214.663 157.473 214.714 157.301 214.762C157.312 214.664 157.322 214.562 157.333 214.457C157.368 214.046 157.398 213.606 157.425 213.153L175.208 217.539H175.706V218.432H181.202C181.202 218.432 181.701 214.663 179.703 213.472C177.705 212.281 167.214 208.215 167.214 208.215L169.728 207.979L179.746 207.032C179.746 207.209 179.746 207.3 179.746 207.3H181.243L181.211 206.884L183.991 206.616L187.286 206.715C187.286 206.715 187.187 202.55 184.689 202.252C184.258 202.198 182.839 202.056 180.795 201.852L180.145 194.001C181.739 191.319 185.841 199.454 185.841 199.454C185.841 199.454 185.857 199.516 185.881 199.618C186.078 200.452 186.998 204.178 187.621 204.604H187.64C187.988 204.792 188.348 204.956 188.718 205.095C190.333 205.69 192.013 206.091 193.724 206.289C196.922 206.689 203.915 204.604 205.231 203.91C205.45 203.799 205.641 203.642 205.792 203.448C206.237 202.821 205.714 202.142 205.714 202.142L204.309 202C205.544 201.445 205.781 199.382 203.475 198.99C203.386 198.974 203.295 198.963 203.206 198.953C203.325 198.749 203.464 198.558 203.621 198.381C202.421 198.609 199.222 197.166 199.222 197.166C198.761 196.968 198.28 196.817 197.788 196.716L197.753 196.654C197.704 196.565 197.658 196.474 197.615 196.386C196.925 194.945 196.663 193.167 196.426 191.826C195.927 188.947 190.083 177.84 190.083 177.84C190.083 177.84 188.047 173.215 186.307 168.307C188.376 166.55 189.972 164.586 190.892 162.406L192.607 159.782C193.752 158.327 194.767 156.775 195.641 155.144L197.386 152.478C200.638 152.242 205.986 151.872 208.734 151.783C209.521 156.03 210.476 160.949 210.908 162.285C211.717 164.766 215.805 161.888 217.401 155.541C218.998 149.195 211.52 142.835 211.52 142.835ZM149.928 195.165V181.217C150.783 181.083 151.724 180.925 152.735 180.745C152.131 184.304 151.387 187.561 151.387 187.561C151.452 189.302 150.47 193.175 149.928 195.165ZM181.931 190.774L182.448 190.946C183.282 191.238 184.036 191.72 184.649 192.354C183.792 191.748 182.882 191.22 181.931 190.774ZM178.751 177.95C178.751 177.95 179.951 180.233 177.554 184.001C175.755 186.828 176.823 188.486 179.412 189.766C178.56 189.474 177.69 189.238 176.807 189.06L176.933 189.133C174.825 188.674 175.855 190.546 175.855 190.546C177.95 192.569 178.921 197.679 179.361 201.732C173.859 201.195 165.213 200.356 158.226 199.685C158.345 198.992 158.425 198.292 158.463 197.59C158.463 196.399 159.763 191.737 159.763 191.737C159.763 191.737 163.498 183.087 165.558 177.877C169.456 176.82 173.272 175.488 176.979 173.891C177.942 175.992 178.751 177.95 178.751 177.95Z" fill="url(#paint0_linear)"/>
<path d="M150.06 178.814H141.471V203.269H150.06V178.814Z" fill="#00D1B2"/>
<path opacity="0.3" d="M150.06 178.814H141.471V203.269H150.06V178.814Z" fill="black"/>
<path d="M116.623 200.474L116.488 203.269L122.809 203.859L103.157 208.574C103.157 208.574 99.7029 208.279 100.296 213.191H105.134L105.231 212.209L144.532 209.457L175.043 217.021H175.536V217.904H180.968C180.968 217.904 181.461 214.172 179.485 212.995C177.508 211.817 167.144 207.788 167.144 207.788L183.732 206.217L186.99 206.316C186.99 206.316 186.893 202.19 184.422 201.895C181.952 201.6 147.083 198.261 147.083 198.261H141.471L139.791 198.762L118.036 199.119C117.671 199.123 117.321 199.265 117.058 199.517C116.796 199.769 116.64 200.111 116.623 200.474Z" fill="#00D1B2"/>
<path opacity="0.1" d="M150.06 178.814V181.649C146.967 182.14 145.025 182.349 145.025 182.349C143.852 182.561 142.663 182.668 141.471 182.668V178.814H150.06Z" fill="black"/>
<path d="M216.762 155.619C215.182 161.904 211.134 164.753 210.341 162.296C209.624 160.056 207.418 147.663 207.043 145.523C207.008 145.319 206.986 145.206 206.986 145.206L206.593 142.656L209.937 142.956L210.934 143.047C210.934 143.047 218.34 149.332 216.762 155.619Z" fill="#C37098"/>
<path d="M88.1498 145.225C88.1498 145.225 84.6952 151.019 94.6679 151.215C94.6679 151.215 102.073 151.902 107.613 162.902C113.152 173.902 132.792 184.017 145.036 181.759C145.036 181.759 186.027 177.36 190.927 161.432L194.309 152.787C194.309 152.787 208.332 151.714 209.81 151.902C211.288 152.089 210.303 147.878 210.303 147.878L206.649 145.228L197.96 146.7L188.087 155.735L157.268 170.171L127.547 165.946C127.547 165.946 104.047 150.925 103.85 150.233C103.654 149.541 94.3713 143.259 94.3713 143.259L88.1498 145.225Z" fill="#00D1B2"/>
<path d="M87.8072 141.867V143.342L87.0225 145.606L86.4184 147.369C86.4184 147.369 88.7862 161.808 83.6542 161.904C78.5222 162.001 77.635 152.277 77.8318 149.139C77.9721 146.937 80.2427 143.721 81.5911 141.996C82.1656 141.255 82.5728 140.789 82.5728 140.789L87.8072 141.867Z" fill="#C37098"/>
<path opacity="0.3" d="M116.623 200.474L116.488 203.269L122.809 203.859L103.157 208.574C103.157 208.574 99.7029 208.279 100.296 213.191H105.134L105.231 212.209L144.532 209.457L175.043 217.021H175.536V217.904H180.968C180.968 217.904 181.461 214.172 179.485 212.995C177.508 211.817 167.144 207.788 167.144 207.788L183.732 206.217L186.99 206.316C186.99 206.316 186.893 202.19 184.422 201.895C181.952 201.6 147.083 198.261 147.083 198.261H141.471L139.791 198.762L118.036 199.119C117.671 199.123 117.321 199.265 117.058 199.517C116.796 199.769 116.64 200.111 116.623 200.474Z" fill="black"/>
<path opacity="0.4" d="M88.1498 145.225C88.1498 145.225 84.6952 151.019 94.6679 151.215C94.6679 151.215 102.073 151.902 107.613 162.902C113.152 173.902 132.792 184.017 145.036 181.759C145.036 181.759 186.027 177.36 190.927 161.432L194.309 152.787C194.309 152.787 208.332 151.714 209.81 151.902C211.288 152.089 210.303 147.878 210.303 147.878L206.649 145.228L197.96 146.7L188.087 155.735L157.268 170.171L127.547 165.946C127.547 165.946 104.047 150.925 103.85 150.233C103.654 149.541 94.3713 143.259 94.3713 143.259L88.1498 145.225Z" fill="black"/>
<path d="M200.913 143.71L192.467 153.098C172.289 176.327 134.284 167.711 121.002 165.866C107.72 164.02 100.927 143.871 100.927 143.871C101.431 143.925 101.94 143.904 102.437 143.809C104.673 143.428 108.864 141.588 111.304 133.409C114.745 121.875 99.8862 96.7953 96.2887 94.0271C92.6912 91.2589 93.4732 86.4897 93.7861 76.3236C94.0989 66.1575 102.378 70.0093 102.378 70.0093L115.83 78.0081C148.83 82.6244 166.348 78.4695 166.348 78.4695L181.518 71.2405C188.244 69.548 189.339 69.7008 193.249 78.7779C197.159 87.855 190.433 95.7009 190.433 95.7009C167.756 112.468 170.728 135.4 174.323 143.852C176.75 149.552 187.963 147.505 195.031 145.56C198.459 144.63 200.913 143.71 200.913 143.71Z" fill="#00D1B2"/>
<path opacity="0.1" d="M200.913 143.71L192.467 153.098C172.289 176.327 134.284 167.711 121.002 165.866C107.72 164.02 100.927 143.871 100.927 143.871C101.431 143.925 101.94 143.904 102.437 143.809C104.673 143.428 108.864 141.588 111.304 133.409C114.745 121.875 99.8862 96.7953 96.2887 94.0271C92.6912 91.2589 93.4732 86.4897 93.7861 76.3236C94.0989 66.1575 102.378 70.0093 102.378 70.0093L115.83 78.0081C148.83 82.6244 166.348 78.4695 166.348 78.4695L181.518 71.2405C188.244 69.548 189.339 69.7008 193.249 78.7779C197.159 87.855 190.433 95.7009 190.433 95.7009C167.756 112.468 170.728 135.4 174.323 143.852C176.75 149.552 187.963 147.505 195.031 145.56C198.459 144.63 200.913 143.71 200.913 143.71Z" fill="black"/>
<path d="M197.949 143.112L189.953 152.089C170.847 174.334 134.855 166.083 122.264 164.316C109.673 162.548 103.257 143.248 103.257 143.248C103.733 143.299 104.214 143.279 104.684 143.189C106.803 142.825 110.77 141.062 113.082 133.232C116.339 122.181 102.27 98.1687 98.8641 95.5185C95.458 92.8684 96.1916 88.3084 96.4936 78.5929C96.7956 68.8774 104.641 72.5522 104.641 72.5522L117.378 80.2023C148.628 84.6201 165.219 80.6449 165.219 80.6449L179.584 73.7191C185.954 72.1096 186.99 72.2464 190.692 80.9373C194.395 89.6281 188.028 97.144 188.028 97.144C166.551 113.195 169.363 135.158 172.78 143.259C175.073 148.718 185.695 146.746 192.389 144.895C195.627 143.994 197.949 143.112 197.949 143.112Z" fill="#00D1B2"/>
<path d="M210.934 143.047C210.934 143.047 207.38 142.752 206.986 145.206L182.4 147.261L176.286 147.76L169.814 125.161L168.581 120.851L171.642 121.832C171.642 121.832 172.775 123.174 174.191 124.762C176.181 127.004 178.735 129.78 179.541 130.18C179.604 130.211 179.663 130.248 179.719 130.29C181.14 131.261 183.589 135.681 183.589 135.681C183.589 135.681 185.96 137.353 188.233 137.154C188.233 137.154 194.166 139.018 197.513 139.512C200.859 140.005 210.934 143.047 210.934 143.047Z" fill="#3F3D56"/>
<path opacity="0.1" d="M197.949 143.112L189.953 152.089C170.847 174.334 134.855 166.083 122.264 164.316C109.673 162.548 103.257 143.248 103.257 143.248C103.733 143.299 104.214 143.279 104.684 143.189C106.426 144.63 108.03 146.229 109.476 147.964C123.399 164.367 144.534 163.286 144.534 163.286C144.534 163.286 175.143 166.917 186.399 149.828C188.258 148.024 190.259 146.371 192.383 144.885C195.628 143.994 197.949 143.112 197.949 143.112Z" fill="black"/>
<path opacity="0.1" d="M210.934 143.047C210.934 143.047 207.38 142.752 206.986 145.206L182.4 147.261L176.286 147.76L169.814 125.161L168.581 120.851L171.642 121.832C171.642 121.832 172.775 123.174 174.191 124.762C176.181 127.004 178.735 129.78 179.541 130.18C179.604 130.211 179.663 130.248 179.719 130.29C181.14 131.261 183.589 135.681 183.589 135.681C183.589 135.681 185.96 137.353 188.233 137.154C188.233 137.154 194.166 139.018 197.513 139.512C200.859 140.005 210.934 143.047 210.934 143.047Z" fill="black"/>
<path opacity="0.1" d="M211.231 143.342C211.231 143.342 207.677 143.047 207.283 145.501L207.043 145.523C207.008 145.319 206.986 145.206 206.986 145.206L206.593 142.656L209.937 142.956L211.231 143.342Z" fill="black"/>
<path opacity="0.1" d="M190.56 162.417C184.627 168.924 173.328 176.445 152.924 175.767C152.924 175.767 116.194 180.386 102.664 152.591C102.664 152.591 97.4267 143.042 87.7237 148.321L87.454 148.466L86.8607 144.34C86.8607 144.34 95.5498 132.75 109.471 149.152C123.391 165.555 144.529 164.474 144.529 164.474C144.529 164.474 175.14 168.106 186.396 151.017C186.396 151.017 202.307 135.011 209.799 144.831L210.206 147.811L210.295 148.466C210.295 148.466 202.491 145.909 196.979 152.588L190.56 162.417Z" fill="black"/>
<path d="M86.8661 143.75C86.8661 143.75 95.5551 132.162 109.479 148.562C111.065 150.433 112.818 152.158 114.716 153.715C128.138 164.723 144.531 163.892 144.531 163.892C144.531 163.892 175.14 167.526 186.396 150.437C186.396 150.437 202.307 134.429 209.799 144.249L210.293 147.883C210.293 147.883 201.906 145.115 196.372 152.787C196.372 152.787 188.373 176.357 152.924 175.179C152.924 175.179 116.194 179.795 102.664 152.001C102.664 152.001 97.3323 142.277 87.4594 147.875L86.8661 143.75Z" fill="#00D1B2"/>
<path opacity="0.1" d="M166.899 94.8505L166.187 94.9069C165.429 93.4209 165.237 86.8598 165.513 80.6609L164.922 80.6368C164.792 83.5525 164.515 92.2192 165.615 94.9498C158.641 95.4648 127.666 97.5597 116.614 94.9337C120.438 86.9027 117.68 80.162 117.65 80.0922L117.111 80.3202C117.138 80.3873 119.767 86.7981 116.164 94.5367C114.365 91.7363 104.859 77.6889 96.3966 79.5155L96.5234 80.0922C104.344 78.397 113.527 91.5969 115.544 94.6628L115.182 94.5716L115.964 95.3226L116.234 95.7438L116.285 95.6418C117.709 97.1654 124.055 104.598 123.71 115.652C123.613 118.777 125.689 121.58 129.715 123.764C134.235 126.215 140.387 127.492 145.918 127.492C150.354 127.492 154.394 126.671 156.867 124.976C158.86 123.611 159.752 121.73 159.453 119.534C157.816 107.546 167.133 95.5184 167.29 95.32C180.045 80.1352 190.566 81.2242 190.671 81.2349L190.744 80.6502C190.291 80.5965 179.849 79.4887 166.899 94.8505ZM158.851 119.611C159.121 121.602 158.339 123.243 156.519 124.491C151.211 128.125 137.822 127.497 129.985 123.249C127.323 121.803 124.176 119.319 124.289 115.671C124.616 105.178 119.031 97.8736 117.067 95.6418C128.842 98.115 159.623 95.9879 165.931 95.5158C166.008 95.6172 166.11 95.6974 166.227 95.7491C164.164 98.6649 157.409 109.131 158.851 119.611Z" fill="black"/>
<path opacity="0.1" d="M157.171 203.955L169.628 207.55L167.144 207.786L157.171 203.955Z" fill="black"/>
<path opacity="0.1" d="M122.809 203.856L131.795 201.697L120.333 203.625L122.809 203.856Z" fill="black"/>
<path opacity="0.1" d="M87.8073 141.867V143.342L87.0225 145.606C85.9762 142.752 83.1149 142.119 81.5858 141.993C82.1602 141.253 82.5674 140.786 82.5674 140.786L87.8073 141.867Z" fill="black"/>
<path d="M102.222 135.681L100.051 135.191C100.051 135.191 99.9511 136.073 98.1631 136.564C96.3751 137.055 88.487 139.413 87.4002 139.413C86.3134 139.413 81.3756 139.708 80.8821 141.671C80.8821 141.671 86.7098 141.279 87.5971 146.387L104.482 145.601L102.222 135.681Z" fill="#3F3D56"/>
<path opacity="0.1" d="M102.222 135.681L100.051 135.191C100.051 135.191 99.9511 136.073 98.1631 136.564C96.3751 137.055 88.487 139.413 87.4002 139.413C86.3134 139.413 81.3756 139.708 80.8821 141.671C80.8821 141.671 86.7098 141.279 87.5971 146.387L104.482 145.601L102.222 135.681Z" fill="black"/>
<path d="M176.626 188.813C176.626 188.813 181.585 191.63 183.476 194.355C184.782 196.316 185.953 198.362 186.982 200.479C186.982 200.479 190.684 202.088 187.982 196.236C185.28 190.383 176.626 188.813 176.626 188.813Z" fill="#3F3D56"/>
<path d="M176.626 188.813C176.626 188.813 181.585 191.63 183.476 194.355C184.782 196.316 185.953 198.362 186.982 200.479C186.982 200.479 190.684 202.088 187.982 196.236C185.28 190.383 176.626 188.813 176.626 188.813Z" fill="#3F3D56"/>
<path opacity="0.1" d="M176.626 188.813C176.626 188.813 181.585 191.63 183.476 194.355C184.782 196.316 185.953 198.362 186.982 200.479C186.982 200.479 190.684 202.088 187.982 196.236C185.28 190.383 176.626 188.813 176.626 188.813Z" fill="black"/>
<path d="M134.373 77.9223C134.057 78.2898 133.833 78.727 133.545 79.1133C132.288 80.6664 129.92 80.5993 128.119 81.4711C125.654 82.6647 124.462 85.6153 124.532 88.3433C124.602 91.0712 125.689 93.6543 126.709 96.1891C127.728 98.724 128.71 101.369 128.564 104.091C128.478 105.701 127.998 107.267 127.52 108.81C127.21 109.807 126.835 110.894 125.935 111.43C128.632 111.911 131.365 112.173 134.106 112.214C141.97 112.334 149.836 110.644 157.662 111.422C156.72 110.572 156.017 109.492 155.623 108.288C155.229 107.085 155.157 105.8 155.416 104.561C155.634 103.584 156.052 102.667 156.379 101.72C157.463 98.5382 157.473 95.0911 156.408 91.9027C156.09 90.9612 155.68 90.0492 155.41 89.0943C154.79 86.8733 154.955 84.5102 154.512 82.2489C154.07 79.9877 152.743 77.6219 150.491 77.08C147.374 76.3317 144.656 79.5827 141.659 78.6895C139.375 78.0081 136.619 75.3204 134.373 77.9223Z" fill="#3F3D56"/>
<g opacity="0.1">
<path opacity="0.1" d="M156.457 101.755C157.029 100.067 157.303 98.2926 157.266 96.5112C157.238 98.0946 156.965 99.6643 156.457 101.165C156.13 102.112 155.71 103.043 155.494 104.006C155.367 104.59 155.317 105.187 155.346 105.784C155.36 105.384 155.41 104.987 155.494 104.596C155.71 103.619 156.13 102.702 156.457 101.755Z" fill="black"/>
<path opacity="0.1" d="M128.65 103.271C128.723 100.639 127.771 98.0803 126.784 95.6287C125.773 93.1126 124.697 90.5456 124.613 87.8499C124.613 88.0269 124.613 88.2066 124.613 88.3863C124.683 91.1116 125.77 93.6974 126.787 96.2295C127.698 98.4907 128.58 100.857 128.65 103.271Z" fill="black"/>
<path opacity="0.1" d="M157.107 110.816C149.488 110.186 141.835 111.777 134.184 111.661C131.64 111.62 129.102 111.391 126.592 110.975C126.427 111.168 126.231 111.334 126.013 111.465C128.711 111.946 131.443 112.208 134.184 112.249C142.048 112.369 149.912 110.677 157.738 111.444C157.514 111.249 157.303 111.039 157.107 110.816Z" fill="black"/>
</g>
<path d="M146.762 220.522L153.272 221.715L152.824 222.488C152.824 222.488 148.396 222.906 147.255 222.488C146.115 222.069 146.762 220.522 146.762 220.522Z" fill="#3F3D56"/>
<path d="M153.469 165.574C153.469 165.574 180.464 157.108 179.477 151.706C178.489 146.304 154.518 145 153.469 146.387C152.42 147.773 153.469 165.574 153.469 165.574Z" fill="#3F3D56"/>
<path opacity="0.2" d="M153.469 165.574C153.469 165.574 180.464 157.108 179.477 151.706C178.489 146.304 154.518 145 153.469 146.387C152.42 147.773 153.469 165.574 153.469 165.574Z" fill="black"/>
<path d="M153.469 113.091L148.345 117.61L141.827 118.788L130.077 117.315L123.462 112.796C123.462 112.796 124.629 112.541 127.906 111.814L130.57 111.226C135.905 110.046 133.731 101.302 133.731 101.302C133.731 101.302 148.345 93.5444 146.471 103.364C145.448 108.716 147.619 111.122 149.809 112.216C150.953 112.763 152.2 113.061 153.469 113.091Z" fill="#C37098"/>
<path opacity="0.1" d="M140.918 107.254C147.191 107.254 152.277 102.196 152.277 95.9558C152.277 89.716 147.191 84.6577 140.918 84.6577C134.645 84.6577 129.559 89.716 129.559 95.9558C129.559 102.196 134.645 107.254 140.918 107.254Z" fill="black"/>
<path d="M140.918 106.959C147.191 106.959 152.277 101.901 152.277 95.6609C152.277 89.4211 147.191 84.3628 140.918 84.3628C134.645 84.3628 129.559 89.4211 129.559 95.6609C129.559 101.901 134.645 106.959 140.918 106.959Z" fill="#C37098"/>
<path opacity="0.1" d="M153.469 113.091L148.345 117.611L141.827 118.788L130.077 117.315L123.462 112.796C123.462 112.796 124.629 112.541 127.906 111.814L128.596 112.208H149.809C150.952 112.757 152.2 113.058 153.469 113.091Z" fill="black"/>
<path d="M138.855 112.503H150.478C150.478 112.503 154.456 111.028 155.739 111.913C157.023 112.798 160.677 112.895 161.171 112.503C161.664 112.112 168.97 116.146 171.637 121.833L162.158 129.289L120.983 145.601C120.983 145.601 119.095 142.358 119.797 141.28C120.498 140.201 118.513 138.141 118.513 138.141C118.513 138.141 117.823 134.507 118.513 133.428L109.824 122.624C109.824 122.624 115.848 113.882 117.232 113C117.232 113 117.725 111.551 118.219 111.637C118.712 111.723 127.517 111.905 127.517 111.905L128.596 112.511L138.855 112.503Z" fill="#3F3D56"/>
<path opacity="0.1" d="M138.855 112.503H150.478C150.478 112.503 154.456 111.028 155.739 111.913C157.023 112.798 160.677 112.895 161.171 112.503C161.664 112.112 168.97 116.146 171.637 121.833L170.653 122.608L162.158 129.289L120.983 145.601C120.983 145.601 119.095 142.358 119.797 141.28C120.498 140.201 118.513 138.141 118.513 138.141C118.513 138.141 117.823 134.507 118.513 133.428L109.824 122.624C109.824 122.624 115.848 113.882 117.232 113C117.232 113 117.725 111.551 118.219 111.637C118.712 111.723 127.517 111.905 127.517 111.905L128.596 112.511L138.855 112.503Z" fill="black"/>
<path d="M113.478 121.537L109.824 122.61C109.824 122.61 100.741 134.895 100.051 135.191C99.3603 135.486 104.492 145.601 104.492 145.601C104.492 145.601 106.27 144.225 107.159 143.342C108.049 142.46 118.513 133.418 118.513 133.418L113.478 121.537Z" fill="#3F3D56"/>
<path opacity="0.1" d="M113.478 121.537L109.824 122.61C109.824 122.61 100.741 134.895 100.051 135.191C99.3603 135.486 104.492 145.601 104.492 145.601C104.492 145.601 106.27 144.225 107.159 143.342C108.049 142.46 118.513 133.418 118.513 133.418L113.478 121.537Z" fill="black"/>
<path opacity="0.1" d="M182.4 147.261L176.286 147.76L169.814 125.161L174.191 124.762C176.181 127.004 178.735 129.78 179.541 130.18C179.604 130.211 179.663 130.248 179.719 130.29C179.992 131.369 180.163 132.471 180.229 133.581C180.822 142.165 181.61 143.847 181.61 143.847C181.61 143.847 181.949 145.231 182.4 147.261Z" fill="black"/>
<path d="M202.936 201.777C202.769 201.753 202.537 201.729 202.253 201.702L201.984 201.678C198.389 201.367 188.535 200.892 188.535 200.892C188.345 200.025 188.108 199.169 187.826 198.328C187.788 198.207 187.745 198.081 187.702 197.955C186.774 195.273 185.024 191.592 182.214 190.68C177.672 189.208 175.008 187.537 177.378 183.803C179.749 180.069 178.562 177.813 178.562 177.813C178.562 177.813 175.28 169.86 174.158 168.878C173.495 168.296 171.853 165.032 170.596 161.982C170.475 161.687 170.353 161.389 170.243 161.097C169.536 159.302 169.018 157.693 168.986 156.894C168.894 154.825 165.165 137.632 164.531 134.724C164.474 134.456 164.442 134.305 164.442 134.305C164.442 134.305 164.442 134.257 164.418 134.169C164.245 133.117 163.301 126.178 168.096 125.266L174.158 124.711C174.361 124.727 179.064 125.159 179.644 133.562C180.237 142.146 181.024 143.828 181.024 143.828C181.024 143.828 183.495 153.753 183.692 159.05C183.888 164.348 189.762 177.711 189.762 177.711C189.762 177.711 195.538 188.709 196.035 191.56C196.269 192.901 196.526 194.661 197.208 196.088C197.251 196.179 197.297 196.268 197.343 196.356C198.111 197.791 199.368 198.824 201.566 198.631C201.901 198.605 202.239 198.605 202.574 198.631C202.718 198.64 202.861 198.657 203.003 198.682C205.754 199.146 204.837 202.038 202.936 201.777Z" fill="#C37098"/>
<path opacity="0.1" d="M172.241 142.248C172.141 150.509 171.747 157.682 171.747 157.682C171.747 157.682 171.251 159.52 170.593 161.974C169.714 159.828 169.021 157.814 168.975 156.877C168.87 154.635 164.42 134.305 164.42 134.305C164.42 134.305 164.42 134.257 164.396 134.169L165.011 134.305C165.011 134.305 172.327 133.986 172.241 142.248Z" fill="black"/>
<path d="M171.637 142.248C171.537 150.51 171.143 157.682 171.143 157.682C171.143 157.682 170.763 159.093 170.229 161.097C169.059 165.477 167.139 172.695 166.799 174.181C166.305 176.327 159.787 191.464 159.787 191.464C159.787 191.464 158.501 196.083 158.501 197.26C158.501 198.438 157.611 203.161 157.611 203.161V207.383C157.611 207.383 157.611 211.329 157.379 213.963C157.357 214.175 157.336 214.379 157.317 214.569C157.217 215.406 157.09 216.031 156.921 216.222C156.233 217.01 153.269 221.723 153.269 221.723C153.269 221.723 152.886 221.723 152.298 221.71C150.95 221.67 148.501 221.509 147.08 220.865C146.663 220.717 146.307 220.433 146.071 220.06C145.349 218.625 145.802 215.184 145.996 213.942C146.039 213.652 146.071 213.48 146.071 213.48C146.071 213.48 146.071 213.448 146.096 213.389C146.325 212.432 148.283 204.135 147.258 202.284C146.179 200.321 149.728 196.099 149.728 196.099C149.728 196.099 151.603 189.712 151.505 187.357C151.505 187.357 154.173 175.767 153.479 172.526C153.272 171.547 153.439 168.994 153.773 165.898C154.208 161.952 154.911 157.127 155.459 153.586C155.904 150.697 156.246 148.661 156.246 148.661C156.246 148.661 156.082 148.61 155.82 148.551C155.135 148.396 153.773 148.189 152.986 148.758C151.907 149.544 152.293 140.41 152.293 140.41L161.071 133.581L164.42 134.305C164.647 134.299 164.874 134.307 165.1 134.33C166.92 134.49 171.718 135.545 171.637 142.248Z" fill="#C37098"/>
<path d="M205.287 203.089C205.14 203.281 204.95 203.437 204.732 203.545C203.432 204.234 196.52 206.297 193.36 205.903C191.672 205.705 190.014 205.308 188.422 204.72C188.051 204.583 187.691 204.421 187.343 204.234H187.327C186.709 203.824 185.8 200.122 185.604 199.299C185.582 199.194 185.566 199.135 185.566 199.135C185.566 199.135 181.521 191.088 179.938 193.736L181.016 206.898H179.536C179.536 206.898 179.339 193.832 175.685 190.297C175.685 190.297 174.628 188.371 176.869 188.923C179.11 189.476 184.474 193.049 185.067 195.112C185.481 196.371 186.023 197.585 186.685 198.736C187.106 199.497 187.429 200.02 187.429 200.02L201.949 201.48L205.204 201.804C205.204 201.804 205.727 202.467 205.287 203.089Z" fill="#3F3D56"/>
<path opacity="0.1" d="M205.288 203.089C205.14 203.281 204.95 203.437 204.732 203.545C203.432 204.234 196.52 206.297 193.36 205.903C191.672 205.705 190.015 205.308 188.422 204.72C188.051 204.583 187.691 204.421 187.343 204.234H187.327C190.501 203.671 197.513 202.534 202.022 202.625C203.405 202.636 204.557 202.786 205.288 203.089Z" fill="black"/>
<path opacity="0.1" d="M201.954 201.176C201.954 201.337 201.954 201.506 201.97 201.681C198.376 201.37 188.522 200.895 188.522 200.895C188.303 199.896 188.025 198.91 187.688 197.944C190.283 196.761 193.999 195.487 197.2 196.083C197.952 197.657 199.225 198.832 201.558 198.625C201.893 198.599 202.231 198.599 202.566 198.625C202.161 199.415 201.951 200.29 201.954 201.176Z" fill="black"/>
<path opacity="0.1" d="M202.251 201.469C202.251 201.544 202.251 201.624 202.251 201.702L201.981 201.678C198.386 201.367 188.532 200.892 188.532 200.892C188.342 200.025 188.105 199.169 187.823 198.328C190.38 197.142 194.112 195.822 197.345 196.362C198.114 197.797 199.371 198.829 201.569 198.636C201.904 198.61 202.241 198.61 202.577 198.636C202.721 198.646 202.864 198.663 203.006 198.687C202.511 199.532 202.251 200.492 202.251 201.469Z" fill="black"/>
<path d="M201.954 201.469C201.953 201.85 201.984 202.23 202.049 202.606H202.016L188.422 204.72C188.051 204.583 187.691 204.421 187.343 204.234H187.327C186.709 203.824 185.8 200.122 185.604 199.299C185.916 199.13 186.283 198.939 186.696 198.736C189.646 197.268 194.902 195.187 198.796 196.879C198.796 196.879 201.957 198.309 203.141 198.084C203.135 198.073 201.965 199.277 201.954 201.469Z" fill="#3F3D56"/>
<path opacity="0.1" d="M157.32 214.561C157.22 215.398 157.093 216.023 156.923 216.214C156.236 217.002 153.272 221.715 153.272 221.715C153.272 221.715 152.884 221.715 152.288 221.702C152.209 220.433 151.724 218.341 149.421 218.295C147.601 218.26 147.126 219.623 147.069 220.857C146.652 220.709 146.297 220.425 146.061 220.052C145.338 218.617 145.791 215.176 145.985 213.934C147.282 214.382 152.35 215.943 157.32 214.561Z" fill="black"/>
<path opacity="0.1" d="M157.382 213.955C157.36 214.167 157.339 214.371 157.32 214.561C157.22 215.398 157.093 216.023 156.923 216.214C156.236 217.002 153.272 221.715 153.272 221.715C153.272 221.715 152.889 221.715 152.301 221.702C152.32 220.666 152.137 217.761 149.421 217.705C147.301 217.665 146.994 219.521 147.069 220.857C146.652 220.709 146.297 220.425 146.061 220.052C145.338 218.617 145.791 215.176 145.985 213.934C146.028 213.644 146.061 213.472 146.061 213.472C146.061 213.472 146.061 213.44 146.085 213.381C147.53 213.867 152.514 215.334 157.382 213.955Z" fill="black"/>
<path d="M145.667 213.515C145.667 213.515 151.937 216.018 157.862 214.103L158.218 221.026C158.218 221.026 152.527 223.011 152.285 222.367C152.285 222.367 152.727 218.075 149.421 218.014C146.115 217.952 147.247 222.501 147.247 222.501C147.247 222.501 144.731 221.729 144.78 221.09C144.828 220.452 145.141 214.119 145.667 213.515Z" fill="#3F3D56"/>
<path opacity="0.1" d="M174.736 124.998C169.121 123.329 165.691 132.605 165.108 134.322C165.049 134.493 165.019 134.59 165.019 134.59C164.849 134.627 164.679 134.668 164.517 134.713C154.841 137.237 155.424 145.979 155.81 148.525C155.125 148.369 153.763 148.163 152.975 148.731C151.896 149.517 152.282 140.384 152.282 140.384L161.071 133.581L164.42 134.305C164.42 134.305 164.42 134.257 164.396 134.169C164.223 133.117 163.28 126.178 168.074 125.266L174.137 124.711L174.736 124.998Z" fill="black"/>
<path d="M122.957 140.789L120.983 145.601C120.983 145.601 112.788 156.896 120.293 161.904C127.798 166.912 153.463 165.574 153.463 165.574L155.351 148.943C155.351 148.943 152.482 137.068 164.42 134.305C164.42 134.305 167.951 122.876 174.129 124.713L162.341 118.788L146.16 124.78L132.434 132.146L122.957 140.789Z" fill="#3F3D56"/>
<path opacity="0.1" d="M122.957 140.789L120.983 145.601C120.983 145.601 112.788 156.896 120.293 161.904C127.798 166.912 153.463 165.574 153.463 165.574L155.351 148.943C155.351 148.943 152.482 137.068 164.42 134.305C164.42 134.305 167.951 122.876 174.129 124.713L162.341 118.788L146.16 124.78L132.434 132.146L122.957 140.789Z" fill="black"/>
<path opacity="0.1" d="M123.451 149.726C123.451 149.726 125.921 143.908 128.982 142.248C132.043 140.587 123.451 149.726 123.451 149.726Z" fill="black"/>
<path opacity="0.1" d="M134.017 139.214C134.017 139.214 156.036 124.974 164.035 125.266L134.017 139.214Z" fill="black"/>
<path opacity="0.1" d="M141.01 89.2902C145.098 89.6926 148.056 93.6893 152.11 94.3411C152.451 94.4211 152.809 94.4015 153.14 94.2848C154.175 93.8315 153.833 92.2998 153.323 91.2966C152.557 89.7909 151.79 88.2861 151.023 86.7822C150.456 85.6717 149.863 84.529 148.906 83.7243C148.097 83.0537 147.112 82.6514 146.12 82.3429C142.22 81.0849 137.825 80.7684 134.122 82.5146C132.04 83.499 126.431 88.5445 129.368 90.9721C132 93.1501 137.922 88.9844 141.01 89.2902Z" fill="black"/>
<path d="M141.01 88.9951C145.098 89.3974 148.056 93.3968 152.11 94.0459C152.451 94.1259 152.809 94.1063 153.14 93.9896C154.175 93.5363 153.833 92.0047 153.323 91.0015C152.557 89.4958 151.79 87.991 151.023 86.487C150.456 85.3766 149.863 84.2339 148.906 83.4292C148.097 82.7586 147.112 82.3562 146.12 82.0478C142.22 80.7924 137.825 80.4732 134.122 82.2194C132.04 83.2038 126.431 88.2494 129.368 90.6769C132 92.855 137.922 88.6893 141.01 88.9951Z" fill="#3F3D56"/>
<path opacity="0.1" d="M121.914 139.482C124.413 139.762 126.944 139.487 129.324 138.678L121.914 139.482Z" fill="black"/>
<path opacity="0.1" d="M98.5082 137.661C98.5082 137.661 100.396 137.929 100.396 139.217C100.396 140.504 98.5082 137.661 98.5082 137.661Z" fill="black"/>
<path opacity="0.1" d="M99.4467 142.653C99.4467 142.653 99.7918 142.055 100.385 143.189C100.978 144.324 99.4467 142.653 99.4467 142.653Z" fill="black"/>
<path opacity="0.1" d="M153.14 93.3996C152.809 93.5158 152.452 93.5362 152.109 93.4586C148.064 92.8068 145.098 88.8101 141.01 88.4051C137.919 88.0993 132 92.265 129.365 90.0869C129.142 89.9127 128.956 89.6965 128.817 89.4508C128.678 89.205 128.589 88.9344 128.556 88.6545C128.5 89.0326 128.546 89.4186 128.688 89.7737C128.83 90.1287 129.063 90.4403 129.365 90.677C132 92.8551 137.919 88.6894 141.01 88.9952C145.095 89.3975 148.056 93.3969 152.109 94.0461C152.451 94.1259 152.809 94.1063 153.14 93.9897C153.725 93.7215 153.868 93.1287 153.79 92.4715C153.775 92.6701 153.707 92.8612 153.593 93.0245C153.479 93.1879 153.322 93.3175 153.14 93.3996Z" fill="black"/>
<path opacity="0.1" d="M149.094 136.752C149.094 136.752 161.16 133.613 164.428 134.305L149.094 136.752Z" fill="black"/>
<path opacity="0.5" d="M87.7291 212.458L88.3062 205.334L94.0045 198.787C94.0045 198.787 87.7857 200.45 80.1781 198.373L86.1623 205.348L86.3915 212.458C84.5712 212.66 83.1904 213.631 83.1904 214.8C83.1904 216.114 84.9379 217.182 87.09 217.182C89.242 217.182 90.9922 216.109 90.9922 214.8C90.9922 213.623 89.5791 212.644 87.7291 212.458Z" fill="#D4DFEC"/>
<path opacity="0.5" d="M80.8738 198.596L85.6741 203.878C85.878 204.103 86.1276 204.283 86.4065 204.406C86.6854 204.528 86.9872 204.59 87.2921 204.588C87.598 204.589 87.9005 204.524 88.1795 204.399C88.4585 204.275 88.7075 204.092 88.9102 203.864L93.4678 198.768C93.4678 198.768 87.8018 200.433 80.8738 198.596Z" fill="#00D1B2"/>
<path opacity="0.5" d="M87.3031 200.208C91.664 200.208 95.1992 198.858 95.1992 197.193C95.1992 195.528 91.664 194.178 87.3031 194.178C82.9421 194.178 79.4069 195.528 79.4069 197.193C79.4069 198.858 82.9421 200.208 87.3031 200.208Z" fill="#D4DFEC"/>
<path d="M87.1871 199.814C91.058 199.814 94.196 198.741 94.196 197.419C94.196 196.096 91.058 195.023 87.1871 195.023C83.3161 195.023 80.1781 196.096 80.1781 197.419C80.1781 198.741 83.3161 199.814 87.1871 199.814Z" fill="#00D1B2"/>
<path opacity="0.5" d="M89.1935 200.122L87.9961 203.247L89.0964 200.13" fill="#00D1B2"/>
<path opacity="0.5" d="M89.2448 199.709L92.3784 190.841C92.3865 190.819 92.399 190.799 92.4151 190.782C92.4312 190.764 92.4506 190.75 92.4722 190.741C92.4938 190.731 92.5172 190.725 92.5409 190.725C92.5646 190.724 92.5882 190.728 92.6103 190.737C92.6524 190.754 92.6861 190.787 92.7042 190.829C92.7223 190.87 92.7235 190.917 92.7074 190.959L89.3553 199.699" fill="#3F3D56"/>
<path d="M90.5715 195.957L92.3784 190.841C92.3865 190.819 92.399 190.799 92.4151 190.782C92.4312 190.764 92.4506 190.75 92.4722 190.741C92.4938 190.731 92.5172 190.725 92.5409 190.725C92.5646 190.724 92.5882 190.728 92.6103 190.737C92.6524 190.754 92.6861 190.787 92.7042 190.829C92.7223 190.87 92.7235 190.917 92.7074 190.959L90.7792 195.989" fill="#3F3D56"/>
<path d="M91.1 196.44C91.9475 196.44 92.6345 195.756 92.6345 194.913C92.6345 194.07 91.9475 193.387 91.1 193.387C90.2526 193.387 89.5656 194.07 89.5656 194.913C89.5656 195.756 90.2526 196.44 91.1 196.44Z" fill="#00D1B2"/>
<path opacity="0.5" d="M91.1 196.44C91.9475 196.44 92.6345 195.756 92.6345 194.913C92.6345 194.07 91.9475 193.387 91.1 193.387C90.2526 193.387 89.5656 194.07 89.5656 194.913C89.5656 195.756 90.2526 196.44 91.1 196.44Z" fill="white"/>
<path d="M91.2672 195.361C91.6247 195.361 91.9144 195.073 91.9144 194.717C91.9144 194.362 91.6247 194.074 91.2672 194.074C90.9098 194.074 90.62 194.362 90.62 194.717C90.62 195.073 90.9098 195.361 91.2672 195.361Z" fill="#00D1B2"/>
<path opacity="0.25" d="M91.2672 195.361C91.6247 195.361 91.9144 195.073 91.9144 194.717C91.9144 194.362 91.6247 194.074 91.2672 194.074C90.9098 194.074 90.62 194.362 90.62 194.717C90.62 195.073 90.9098 195.361 91.2672 195.361Z" fill="black"/>
<path opacity="0.3" d="M89.6007 195.216C89.6507 195.514 89.7885 195.791 89.9967 196.011C90.2048 196.231 90.4739 196.385 90.77 196.452C91.066 196.52 91.3756 196.499 91.6595 196.392C91.9434 196.284 92.1889 196.096 92.3649 195.849C91.4706 195.535 90.5433 195.322 89.6007 195.216Z" fill="#00D1B2"/>
<path d="M33.2083 139.818H31.6765V174.125H33.2083V139.818Z" fill="#535461"/>
<path d="M42.8357 174.02L42.7386 175.565L42.6038 177.746L42.5471 178.655L42.4123 180.839L42.353 181.748L42.2181 183.929L40.6702 208.735C40.6036 209.802 40.1305 210.804 39.3474 211.536C38.5642 212.268 37.5299 212.676 36.4551 212.676H28.4267C27.352 212.676 26.3176 212.268 25.5345 211.536C24.7513 210.804 24.2782 209.802 24.2117 208.735L22.6637 183.929L22.5289 181.748L22.4722 180.839L22.3347 178.655L22.2781 177.746L22.1432 175.565L22.0462 174.02C22.0277 173.724 22.0706 173.427 22.1721 173.147C22.2735 172.868 22.4315 172.612 22.6361 172.396C22.8408 172.179 23.0878 172.007 23.3621 171.889C23.6363 171.771 23.9319 171.711 24.2306 171.711H40.654C40.9524 171.711 41.2477 171.772 41.5216 171.89C41.7955 172.008 42.0423 172.18 42.2466 172.397C42.451 172.613 42.6087 172.869 42.71 173.148C42.8113 173.427 42.8541 173.724 42.8357 174.02Z" fill="#3F3D56"/>
<path d="M42.7387 175.565L42.6038 177.746H22.2781L22.1433 175.565H42.7387Z" fill="#9D9CB5"/>
<path d="M42.5471 178.655L42.4123 180.839H22.4723L22.3347 178.655H42.5471Z" fill="#9D9CB5"/>
<path d="M42.353 181.748L42.2182 183.929H22.6665L22.5289 181.748H42.353Z" fill="#9D9CB5"/>
<path d="M19.8024 152.677C28.7261 159.098 32.4396 169.138 32.4396 169.138C32.4396 169.138 21.6902 168.771 12.7665 162.352C3.84287 155.933 0.129395 145.891 0.129395 145.891C0.129395 145.891 10.8815 146.258 19.8024 152.677Z" fill="#00D1B2"/>
<path d="M0.129395 145.891C0.129395 145.891 11.2887 152.06 14.87 157.156C18.4514 162.253 32.4396 169.141 32.4396 169.141" stroke="#535461" stroke-width="2" stroke-miterlimit="10"/>
<path d="M25.5628 139.751C30.417 143.238 32.4396 148.71 32.4396 148.71C32.4396 148.71 26.5903 148.511 21.7334 145.016C16.8765 141.521 14.8539 136.057 14.8539 136.057C14.8539 136.057 20.7059 136.264 25.5628 139.751Z" fill="#00D1B2"/>
<path d="M14.8539 136.049C14.8539 136.049 20.927 139.402 22.8768 142.178C24.8266 144.954 32.4396 148.702 32.4396 148.702" stroke="#535461" stroke-width="2" stroke-miterlimit="10"/>
<path d="M39.4972 148.425C33.9202 154.522 32.739 162.492 32.739 162.492C32.739 162.492 40.6028 160.571 46.1825 154.474C51.7621 148.377 52.9406 140.408 52.9406 140.408C52.9406 140.408 45.0768 142.326 39.4972 148.425Z" fill="#00D1B2"/>
<path d="M52.9406 140.408C52.9406 140.408 45.6728 146.658 43.8282 150.965C41.9836 155.273 32.739 162.5 32.739 162.5" stroke="#535461" stroke-width="2" stroke-miterlimit="10"/>
<path opacity="0.1" d="M233.542 172.237C233.542 172.237 235.1 174.262 232.822 177.333C230.543 180.404 228.666 182.966 229.426 184.884C229.426 184.884 232.862 179.203 235.659 179.122C238.455 179.042 236.619 175.654 233.542 172.237Z" fill="black"/>
<path opacity="0.1" d="M233.542 172.237C233.678 172.432 233.785 172.646 233.86 172.872C236.589 176.062 238.043 179.042 235.419 179.111C232.975 179.181 230.044 183.527 229.343 184.624C229.365 184.709 229.393 184.792 229.426 184.873C229.426 184.873 232.862 179.192 235.659 179.111C238.455 179.031 236.619 175.654 233.542 172.237Z" fill="black"/>
<path d="M236.438 174.82C236.438 175.533 236.357 176.11 236.257 176.11C236.158 176.11 236.079 175.533 236.079 174.82C236.079 174.106 236.179 174.442 236.279 174.442C236.379 174.442 236.438 174.106 236.438 174.82Z" fill="#3F3D56"/>
<path d="M237.433 175.67C236.802 176.013 236.255 176.22 236.206 176.131C236.158 176.043 236.629 175.697 237.261 175.356C237.892 175.015 237.641 175.265 237.689 175.356C237.738 175.447 238.061 175.329 237.433 175.67Z" fill="#3F3D56"/>
<path d="M225.311 172.237C225.311 172.237 223.752 174.262 226.028 177.333C228.304 180.404 230.184 182.966 229.426 184.884C229.426 184.884 225.991 179.203 223.191 179.122C220.392 179.042 222.234 175.654 225.311 172.237Z" fill="#3F3D56"/>
<path d="M233.542 172.237C233.542 172.237 235.1 174.262 232.822 177.333C230.543 180.404 228.666 182.966 229.426 184.884C229.426 184.884 232.862 179.203 235.659 179.122C238.455 179.042 236.619 175.654 233.542 172.237Z" fill="#D4DFEC"/>
<path opacity="0.1" d="M225.311 172.237C225.311 172.237 223.752 174.262 226.028 177.333C228.304 180.404 230.184 182.966 229.426 184.884C229.426 184.884 225.991 179.203 223.191 179.122C220.392 179.042 222.234 175.654 225.311 172.237Z" fill="black"/>
<path opacity="0.1" d="M225.311 172.237C225.175 172.432 225.067 172.646 224.993 172.872C222.264 176.062 220.81 179.042 223.431 179.111C225.875 179.181 228.806 183.527 229.51 184.624C229.487 184.708 229.459 184.792 229.426 184.873C229.426 184.873 225.991 179.181 223.191 179.111C220.392 179.042 222.234 175.654 225.311 172.237Z" fill="black"/>
<path d="M222.401 174.82C222.401 175.533 222.482 176.11 222.582 176.11C222.682 176.11 222.763 175.533 222.763 174.82C222.763 174.106 222.663 174.442 222.563 174.442C222.463 174.442 222.401 174.106 222.401 174.82Z" fill="#D4DFEC"/>
<path d="M221.42 175.67C222.048 176.013 222.598 176.22 222.647 176.131C222.695 176.043 222.22 175.697 221.592 175.356C220.964 175.015 221.209 175.265 221.163 175.356C221.118 175.447 220.783 175.329 221.42 175.67Z" fill="#D4DFEC"/>
<path d="M237.811 182.132L237.733 182.765L237.625 183.658L237.579 184.031L237.468 184.927L237.422 185.3L237.312 186.193L236.066 196.359C235.955 197.266 234.464 197.968 232.665 197.968H226.177C224.375 197.968 222.887 197.26 222.776 196.359L221.528 186.193L221.42 185.3L221.374 184.927L221.261 184.031L221.217 183.658L221.107 182.765L221.053 182.132C220.991 181.619 221.797 181.185 222.817 181.185H236.066C237.066 181.196 237.875 181.63 237.811 182.132Z" fill="#3F3D56"/>
<path d="M237.735 182.776L237.625 183.669H221.228L221.118 182.776H237.735Z" fill="#9D9CB5"/>
<path d="M237.579 184.042L237.471 184.938H221.384L221.274 184.042H237.579Z" fill="#9D9CB5"/>
<path d="M237.422 185.31L237.314 186.204H221.538L221.43 185.31H237.422Z" fill="#9D9CB5"/>
</g>
<defs>
<linearGradient id="paint0_linear" x1="147.231" y1="223.257" x2="147.231" y2="68.3596" gradientUnits="userSpaceOnUse">
<stop stop-color="#808080" stop-opacity="0.25"/>
<stop offset="0.54" stop-color="#808080" stop-opacity="0.12"/>
<stop offset="1" stop-color="#808080" stop-opacity="0.1"/>
</linearGradient>
<clipPath id="clip0">
<rect width="271" height="228" fill="white"/>
</clipPath>
</defs>
</svg>
