<svg width="281" height="213" viewBox="0 0 281 213" fill="none" xmlns="http://www.w3.org/2000/svg">
<g clip-path="url(#clip0)">
<path opacity="0.2" d="M39.6646 11.7706C37.5807 11.7086 35.4451 11.7706 33.4904 12.3967C28.172 14.1021 25.6511 19.6824 26.4707 24.5045C27.2903 29.3266 30.6618 33.528 34.1601 37.3679C37.6583 41.2077 41.4487 45.0044 43.3671 49.5944C44.3238 51.8854 44.771 54.4516 43.7989 56.7398C42.2993 60.2667 37.7772 62.2365 33.4361 62.6467C29.095 63.0569 24.7358 62.2581 20.3792 61.991C18.5512 61.8803 16.6716 61.8668 14.9496 62.3822C13.0596 62.9435 11.485 64.0903 10.0371 65.2857C4.37739 69.9702 -0.152449 76.3682 0.587011 83.0791C1.41438 90.6968 8.79347 96.717 16.8758 99.947C19.5518 101.026 22.383 101.884 24.7384 103.412C30.9437 107.441 32.3373 114.996 31.7193 121.664C31.1014 128.332 28.9968 135.008 30.168 141.616C31.5461 149.304 37.6453 156.25 45.8725 159.493C53.2024 162.383 62.3759 162.192 68.8837 158.114C72.0561 156.123 74.4555 153.357 76.542 150.497C79.6401 146.273 82.1996 141.647 84.1563 136.735C85.0639 134.444 85.9171 131.98 88.0346 130.388C89.3274 129.408 91.0028 128.861 92.6601 128.434C97.6554 127.15 102.917 126.799 107.959 125.655C113 124.511 118.06 122.376 120.801 118.563C124.679 113.167 122.869 106.253 122.888 99.9065C122.919 85.4268 132.999 72.4662 136.72 58.3508C137.935 53.7392 138.388 48.6365 135.673 44.5214C133.829 41.7285 130.719 39.7128 127.451 38.1558C120.261 34.7315 112.088 33.2069 104.049 31.7228C92.8773 29.6612 79.3111 29.394 70.6522 22.7235C62.3552 16.3337 50.9866 11.7706 39.6646 11.7706Z" fill="#00D1B2"/>
<g opacity="0.5">
<path opacity="0.5" d="M7.06892 94.2695C6.51562 95.1222 6.06056 96.3607 6.78451 97.8044C8.20655 100.638 11.7229 100.055 13.4319 102.767C13.8886 103.518 14.1431 104.384 14.1688 105.274C14.2334 106.809 13.7784 108.018 13.5431 109.37C13.2353 110.964 13.4752 112.621 14.2205 114.049C15.0594 115.54 16.3255 116.719 17.8402 117.419C19.164 118.029 20.4257 118.186 21.6926 118.482C23.2643 118.859 24.7951 119.401 26.2613 120.101C26.9581 120.406 27.6136 120.806 28.2108 121.289C28.9392 121.956 29.6002 122.699 30.1835 123.507L35.6829 130.593C36.3817 131.548 37.1604 132.437 38.0099 133.248C38.9367 134.028 39.955 134.682 41.0401 135.194C43.2352 136.335 45.5312 137.504 47.4367 137.371C49.3422 137.239 50.666 135.321 49.7637 132.638C48.9105 130.086 46.5059 127.935 45.4148 125.388C43.6955 121.372 45.9475 118.372 44.5073 114.351C43.1266 110.487 39.2561 107.897 36.7844 104.367C35.0107 101.857 34.023 98.9377 32.4252 96.3014C30.0982 92.5236 26.6336 89.6336 23.3758 88.171C20.5107 86.8999 17.3734 86.4463 14.2851 86.8569C13.1061 86.9918 11.9452 87.2212 11.1075 87.9579C10.2181 88.7404 10.3318 90.2029 9.75269 91.2418C9.08821 92.4372 7.82131 93.1145 7.06892 94.2695Z" fill="#00D1B2"/>
<path opacity="0.5" d="M10.5205 88.8347C10.5205 88.8347 38.0512 115.698 49.1534 136.613" stroke="#535461" stroke-width="2" stroke-miterlimit="10"/>
<path opacity="0.5" d="M6.8905 97.969C6.8905 97.969 17.8919 95.7374 25.5063 104.688" stroke="#535461" stroke-width="2" stroke-miterlimit="10"/>
<path opacity="0.5" d="M14.7091 114.837C14.7091 114.837 26.8611 105.967 31.0651 111.127" stroke="#535461" stroke-width="2" stroke-miterlimit="10"/>
<path opacity="0.5" d="M23.3241 88.1062C23.3241 88.1062 22.0443 94.8954 26.6491 105.986" stroke="#535461" stroke-width="2" stroke-miterlimit="10"/>
<path opacity="0.5" d="M44.4943 114.456C44.4943 114.456 43.4187 118.909 34.7727 115.636" stroke="#535461" stroke-width="2" stroke-miterlimit="10"/>
<path opacity="0.5" d="M35.7166 130.032C35.7166 130.032 40.9936 123.666 38.5943 120.541" stroke="#535461" stroke-width="2" stroke-miterlimit="10"/>
</g>
<path d="M1.89517 63.1106C0.602409 64.7054 -0.607617 66.9127 0.343856 69.0903C2.17441 73.3646 8.95107 71.2734 11.3685 75.2535C12.0925 76.4435 12.1907 77.898 12.0227 79.1959C11.6969 81.7351 10.492 83.8912 9.6595 86.2118C8.82696 88.5325 8.39518 91.3388 9.56901 93.789C10.6989 96.1609 13.0802 97.6585 15.3864 98.2549C17.6927 98.8512 20.0042 98.7163 22.3079 98.7946C25.0447 98.9066 27.7621 99.3245 30.4135 100.041C31.5788 100.317 32.6943 100.785 33.7178 101.428C34.8942 102.213 35.8457 103.366 36.7765 104.499L45.0502 114.561C46.149 115.911 47.2711 117.26 48.6337 118.25C50.2057 119.392 51.9949 119.972 53.7556 120.53C57.5434 121.739 61.5122 122.959 65.132 122.131C68.7517 121.302 71.7897 117.692 70.8847 113.512C70.0238 109.532 66.1403 106.709 64.832 102.81C62.7636 96.6655 67.87 90.9664 66.3368 84.7142C64.8682 78.7183 58.3579 75.6259 54.7381 70.5502C52.1526 66.9127 51.1339 62.3632 48.8742 58.4936C45.6112 52.9079 39.9231 49.2084 34.2608 47.8025C28.5985 46.3966 22.9026 47.0523 17.5919 48.4582C15.3425 49.0545 13.0931 49.8074 11.3091 51.2969C9.41388 52.8809 9.1967 55.2852 7.81602 57.1957C6.21558 59.4165 3.63782 60.9519 1.89517 63.1106Z" fill="#00D1B2"/>
<path d="M9.9491 52.9646C9.9491 52.9646 53.8177 88.9885 68.5785 120.317" stroke="#535461" stroke-width="2" stroke-miterlimit="10"/>
<path d="M0.483398 69.3173C0.483398 69.3173 21.7804 62.126 33.4592 74.6224" stroke="#535461" stroke-width="2" stroke-miterlimit="10"/>
<path d="M10.2568 94.9522C10.2568 94.9522 35.6234 76.3331 42.0355 83.5945" stroke="#535461" stroke-width="2" stroke-miterlimit="10"/>
<path d="M34.1961 47.6973C34.1961 47.6973 29.824 59.4057 35.2303 76.4247" stroke="#535461" stroke-width="2" stroke-miterlimit="10"/>
<path d="M66.2696 84.8843C66.2696 84.8843 62.9576 92.6368 47.6797 89.9249" stroke="#535461" stroke-width="2" stroke-miterlimit="10"/>
<path d="M45.2725 113.598C45.2725 113.598 57.0288 101.326 53.435 96.8679" stroke="#535461" stroke-width="2" stroke-miterlimit="10"/>
<path opacity="0.1" d="M159.778 208.232C226.177 208.232 280.005 193.188 280.005 174.631C280.005 156.074 226.177 141.03 159.778 141.03C93.3782 141.03 39.5508 156.074 39.5508 174.631C39.5508 193.188 93.3782 208.232 159.778 208.232Z" fill="#00D1B2"/>
<path d="M253.42 0.110596C253.42 0.110596 244.156 9.77904 249.387 24.1266C254.617 38.4741 240.42 62.3335 240.42 62.3335C240.42 62.3335 240.573 62.3092 240.855 62.258C259.881 58.75 269.337 36.0401 258.757 19.1669C254.824 12.8957 251.595 5.53982 253.42 0.110596Z" fill="#00D1B2"/>
<path d="M253.42 0.110596C253.42 0.110596 248.19 11.9621 253.42 21.6305C258.651 31.299 254.317 58.4343 240.42 62.3335" stroke="#535461" stroke-width="2" stroke-miterlimit="10"/>
<path d="M269.921 39.2189C269.921 39.2189 259.349 37.4622 258.387 47.3492C257.425 57.2363 238.06 58.6071 238.06 58.6071L238.422 58.858C254.41 69.8109 269.706 65.8361 267.379 51.3024C266.534 45.884 266.604 40.444 269.921 39.2189Z" fill="#00D1B2"/>
<path opacity="0.2" d="M269.921 39.2189C269.921 39.2189 259.349 37.4622 258.387 47.3492C257.425 57.2363 238.06 58.6071 238.06 58.6071L238.422 58.858C254.41 69.8109 269.706 65.8361 267.379 51.3024C266.534 45.884 266.604 40.444 269.921 39.2189Z" fill="#F5F5F5"/>
<path d="M269.921 39.2188C269.921 39.2188 261.715 41.1076 262.389 48.8845C263.064 56.6614 250.204 66.006 238.06 58.5988" stroke="#535461" stroke-width="2" stroke-miterlimit="10"/>
<path d="M63.7849 75.5019C63.7849 75.5019 60.3565 63.359 64.4287 54.4164C66.159 50.6783 66.6807 46.4553 65.9154 42.3814C65.538 40.4508 64.9919 38.5603 64.2839 36.7336" stroke="#535461" stroke-width="2" stroke-miterlimit="10"/>
<path d="M66.8126 31.0805C66.8126 32.57 64.2271 36.8848 64.2271 36.8848C64.2271 36.8848 61.6416 32.5673 61.6416 31.0805C61.6416 30.3648 61.914 29.6785 62.3989 29.1724C62.8838 28.6664 63.5414 28.3821 64.2271 28.3821C64.9128 28.3821 65.5705 28.6664 66.0554 29.1724C66.5402 29.6785 66.8126 30.3648 66.8126 31.0805Z" fill="#00D1B2"/>
<path d="M71.0838 39.3267C70.3082 40.5761 65.8921 42.7349 65.8921 42.7349C65.8921 42.7349 65.9722 37.6456 66.7479 36.3963C66.9243 36.0814 67.16 35.8072 67.4408 35.5901C67.7216 35.3731 68.0416 35.2176 68.3816 35.1333C68.7216 35.0489 69.0744 35.0373 69.4187 35.0992C69.7631 35.1611 70.0919 35.2953 70.3852 35.4935C70.6785 35.6917 70.9302 35.95 71.1252 36.2526C71.3202 36.5552 71.4545 36.896 71.5198 37.2542C71.585 37.6125 71.5801 37.9809 71.5052 38.3371C71.4302 38.6933 71.2869 39.03 71.0838 39.3267Z" fill="#00D1B2"/>
<path d="M70.8976 53.418C69.623 54.0872 64.7673 53.6257 64.7673 53.6257C64.7673 53.6257 67.2986 49.2759 68.5706 48.6067C68.8751 48.4289 69.2109 48.3173 69.5578 48.2785C69.9046 48.2398 70.2554 48.2747 70.5891 48.3811C70.9227 48.4876 71.2322 48.6634 71.499 48.898C71.7658 49.1326 71.9843 49.4211 72.1415 49.7462C72.2986 50.0713 72.3911 50.4262 72.4133 50.7895C72.4356 51.1529 72.3871 51.5172 72.2709 51.8605C72.1547 52.2038 71.9731 52.519 71.7371 52.7871C71.5011 53.0552 71.2155 53.2707 70.8976 53.4207V53.418Z" fill="#00D1B2"/>
<path d="M68.4569 64.0444C67.3089 64.9295 62.4481 65.3289 62.4481 65.3289C62.4481 65.3289 64.2373 60.5959 65.3853 59.7108C65.6563 59.4795 65.9695 59.308 66.3059 59.2069C66.6423 59.1057 66.9949 59.0768 67.3423 59.1221C67.6897 59.1674 68.0247 59.2858 68.3269 59.4702C68.6292 59.6547 68.8924 59.9012 69.1006 60.195C69.3088 60.4887 69.4576 60.8236 69.5382 61.1792C69.6187 61.5347 69.6292 61.9037 69.569 62.2636C69.5088 62.6236 69.3792 62.967 69.188 63.2731C68.9968 63.5792 68.7481 63.8416 68.4569 64.0444Z" fill="#00D1B2"/>
<path d="M60.4703 43.0237C61.5045 44.0599 66.2593 45.1366 66.2593 45.1366C66.2593 45.1366 65.0932 40.1958 64.0693 39.1596C63.8302 38.8932 63.5417 38.6802 63.2214 38.5335C62.9011 38.3869 62.5556 38.3096 62.2059 38.3063C61.8561 38.303 61.5093 38.3738 61.1866 38.5144C60.8638 38.655 60.5717 38.8625 60.328 39.1244C60.0843 39.3862 59.894 39.697 59.7687 40.0378C59.6434 40.3786 59.5856 40.7424 59.5989 41.1072C59.6122 41.472 59.6963 41.8301 59.8461 42.16C59.9958 42.4899 60.2082 42.7847 60.4703 43.0264V43.0237Z" fill="#00D1B2"/>
<path d="M57.7633 55.4903C59.038 56.1596 63.8936 55.6981 63.8936 55.6981C63.8936 55.6981 61.3624 51.3483 60.0903 50.679C59.4829 50.3926 58.7929 50.3621 58.1644 50.5938C57.536 50.8255 57.0175 51.3016 56.7173 51.9227C56.4171 52.5438 56.3583 53.2619 56.5532 53.9272C56.7481 54.5924 57.1816 55.1534 57.7633 55.493V55.4903Z" fill="#00D1B2"/>
<path d="M56.7289 67.9842C57.8769 68.8692 62.7376 69.2686 62.7376 69.2686C62.7376 69.2686 60.9485 64.5356 59.8005 63.6505C59.2481 63.2659 58.5752 63.1178 57.9211 63.237C57.2669 63.3561 56.6818 63.7333 56.2869 64.2904C55.8921 64.8476 55.7177 65.5419 55.8 66.2296C55.8822 66.9172 56.2149 67.5455 56.7289 67.9842Z" fill="#00D1B2"/>
<path d="M277.274 146.12H255.274C255.783 145.058 256.049 143.888 256.05 142.701V38.1424C256.048 36.1044 255.272 34.1503 253.89 32.7098C252.509 31.2692 250.636 30.46 248.684 30.46H78.3828C76.4291 30.46 74.5555 31.2699 73.1741 32.7117C71.7927 34.1534 71.0166 36.1088 71.0166 38.1478V142.701C71.0176 143.888 71.2832 145.058 71.7923 146.12H49.0138C48.4974 146.12 48.0022 146.334 47.6371 146.715C47.272 147.096 47.0669 147.613 47.0669 148.152V149.79C47.0669 152.805 48.2148 155.698 50.2581 157.83C52.3014 159.963 55.0727 161.161 57.9623 161.161H268.341C271.231 161.161 274.002 159.963 276.045 157.83C278.089 155.698 279.237 152.805 279.237 149.79V148.152C279.237 147.883 279.186 147.618 279.087 147.37C278.988 147.123 278.843 146.898 278.661 146.709C278.479 146.52 278.262 146.371 278.024 146.27C277.786 146.169 277.531 146.118 277.274 146.12ZM141.718 152.623L139.83 150.386H186.657L184.568 152.623H141.718Z" fill="url(#paint0_linear)"/>
<path d="M247.931 31.9358H79.1171C75.7957 31.9358 73.1031 34.7459 73.1031 38.2123V142.876C73.1031 146.342 75.7957 149.153 79.1171 149.153H247.931C251.253 149.153 253.945 146.342 253.945 142.876V38.2123C253.945 34.7459 251.253 31.9358 247.931 31.9358Z" fill="#535461"/>
<path d="M249.759 49.0222H76.9116V144.781H249.759V49.0222Z" fill="#F1F1F4"/>
<path d="M163.335 42.2654C164.176 42.2654 164.858 41.5538 164.858 40.676C164.858 39.7983 164.176 39.0867 163.335 39.0867C162.494 39.0867 161.812 39.7983 161.812 40.676C161.812 41.5538 162.494 42.2654 163.335 42.2654Z" fill="white"/>
<path d="M190.023 144.978L184.077 151.336H142.191L136.824 144.978H51.5917C51.087 144.978 50.603 145.187 50.2461 145.56C49.8892 145.932 49.6887 146.437 49.6887 146.964V148.567C49.6887 150.027 49.9645 151.474 50.5004 152.823C51.0363 154.172 51.8217 155.397 52.8118 156.429C53.8018 157.461 54.9771 158.28 56.2704 158.837C57.5636 159.395 58.9495 159.681 60.3488 159.679H265.95C268.774 159.679 271.482 158.508 273.478 156.424C275.475 154.341 276.597 151.514 276.597 148.567V146.964C276.597 146.437 276.396 145.932 276.04 145.56C275.683 145.187 275.199 144.978 274.694 144.978H190.023Z" fill="#535461"/>
<path d="M134.724 56.3188H87.4683V93.4869H134.724V56.3188Z" fill="white"/>
<path opacity="0.2" d="M107.842 59.5354H92.0913V68.8261H107.842V59.5354Z" fill="#00D1B2"/>
<path d="M130.101 59.5354H111.609V61.6806H130.101V59.5354Z" fill="#E6E8EC"/>
<path d="M124.622 63.1079H111.609V65.2532H124.622V63.1079Z" fill="#E6E8EC"/>
<path d="M130.101 66.6807H111.609V68.8259H130.101V66.6807Z" fill="#E6E8EC"/>
<path d="M130.101 70.2563H92.0913V72.4016H130.101V70.2563Z" fill="#E6E8EC"/>
<path d="M130.101 73.8289H92.0913V75.9741H130.101V73.8289Z" fill="#E6E8EC"/>
<path d="M130.101 77.4043H92.0913V79.5495H130.101V77.4043Z" fill="#E6E8EC"/>
<path d="M127.019 80.9768H92.0913V83.1221H127.019V80.9768Z" fill="#E6E8EC"/>
<path d="M130.101 84.5496H92.0913V86.6948H130.101V84.5496Z" fill="#E6E8EC"/>
<path d="M130.101 88.125H92.0913V90.2702H130.101V88.125Z" fill="#E6E8EC"/>
<path d="M186.773 56.3188H139.518V93.4869H186.773V56.3188Z" fill="white"/>
<path opacity="0.2" d="M159.889 59.5354H144.138V68.8261H159.889V59.5354Z" fill="#00D1B2"/>
<path d="M182.15 59.5354H163.659V61.6806H182.15V59.5354Z" fill="#E6E8EC"/>
<path d="M176.672 63.1079H163.659V65.2532H176.672V63.1079Z" fill="#E6E8EC"/>
<path d="M182.15 66.6807H163.659V68.8259H182.15V66.6807Z" fill="#E6E8EC"/>
<path d="M182.148 70.2563H144.138V72.4016H182.148V70.2563Z" fill="#E6E8EC"/>
<path d="M182.148 73.8289H144.138V75.9741H182.148V73.8289Z" fill="#E6E8EC"/>
<path d="M182.148 77.4043H144.138V79.5495H182.148V77.4043Z" fill="#E6E8EC"/>
<path d="M179.066 80.9768H144.138V83.1221H179.066V80.9768Z" fill="#E6E8EC"/>
<path d="M182.148 84.5496H144.138V86.6948H182.148V84.5496Z" fill="#E6E8EC"/>
<path d="M182.148 88.125H144.138V90.2702H182.148V88.125Z" fill="#E6E8EC"/>
<path d="M238.82 56.3188H191.564V93.4869H238.82V56.3188Z" fill="white"/>
<path opacity="0.2" d="M211.938 59.5354H196.187V68.8261H211.938V59.5354Z" fill="#00D1B2"/>
<path d="M234.197 59.5354H215.705V61.6806H234.197V59.5354Z" fill="#E6E8EC"/>
<path d="M228.718 63.1079H215.705V65.2532H228.718V63.1079Z" fill="#E6E8EC"/>
<path d="M234.197 66.6807H215.705V68.8259H234.197V66.6807Z" fill="#E6E8EC"/>
<path d="M234.197 70.2563H196.187V72.4016H234.197V70.2563Z" fill="#E6E8EC"/>
<path d="M234.197 73.8289H196.187V75.9741H234.197V73.8289Z" fill="#E6E8EC"/>
<path d="M234.197 77.4043H196.187V79.5495H234.197V77.4043Z" fill="#E6E8EC"/>
<path d="M231.115 80.9768H196.187V83.1221H231.115V80.9768Z" fill="#E6E8EC"/>
<path d="M234.197 84.5496H196.187V86.6948H234.197V84.5496Z" fill="#E6E8EC"/>
<path d="M234.197 88.125H196.187V90.2702H234.197V88.125Z" fill="#E6E8EC"/>
<path d="M134.724 98.1309H87.4683V135.299H134.724V98.1309Z" fill="white"/>
<path opacity="0.2" d="M107.842 101.347H92.0913V110.638H107.842V101.347Z" fill="#00D1B2"/>
<path d="M130.101 101.347H111.609V103.493H130.101V101.347Z" fill="#E6E8EC"/>
<path d="M124.622 104.923H111.609V107.068H124.622V104.923Z" fill="#E6E8EC"/>
<path d="M130.101 108.495H111.609V110.641H130.101V108.495Z" fill="#E6E8EC"/>
<path d="M130.101 112.068H92.0913V114.213H130.101V112.068Z" fill="#E6E8EC"/>
<path d="M130.101 115.644H92.0913V117.789H130.101V115.644Z" fill="#E6E8EC"/>
<path d="M130.101 119.216H92.0913V121.362H130.101V119.216Z" fill="#E6E8EC"/>
<path d="M127.019 122.792H92.0913V124.937H127.019V122.792Z" fill="#E6E8EC"/>
<path d="M130.101 126.364H92.0913V128.51H130.101V126.364Z" fill="#E6E8EC"/>
<path d="M130.101 129.937H92.0913V132.082H130.101V129.937Z" fill="#E6E8EC"/>
<path d="M186.773 98.1309H139.518V135.299H186.773V98.1309Z" fill="white"/>
<path opacity="0.2" d="M159.889 101.347H144.138V110.638H159.889V101.347Z" fill="#00D1B2"/>
<path d="M182.15 101.347H163.659V103.493H182.15V101.347Z" fill="#E6E8EC"/>
<path d="M176.672 104.923H163.659V107.068H176.672V104.923Z" fill="#E6E8EC"/>
<path d="M182.15 108.495H163.659V110.641H182.15V108.495Z" fill="#E6E8EC"/>
<path d="M182.148 112.068H144.138V114.213H182.148V112.068Z" fill="#E6E8EC"/>
<path d="M182.148 115.644H144.138V117.789H182.148V115.644Z" fill="#E6E8EC"/>
<path d="M182.148 119.216H144.138V121.362H182.148V119.216Z" fill="#E6E8EC"/>
<path d="M179.066 122.792H144.138V124.937H179.066V122.792Z" fill="#E6E8EC"/>
<path d="M182.148 126.364H144.138V128.51H182.148V126.364Z" fill="#E6E8EC"/>
<path d="M182.148 129.937H144.138V132.082H182.148V129.937Z" fill="#E6E8EC"/>
<path opacity="0.1" d="M238.82 98.1309H191.564V135.299H238.82V98.1309Z" fill="black"/>
<path d="M114.298 68.8259H41.3865C40.5086 68.8242 39.639 69.0031 38.8274 69.3524C38.0159 69.7017 37.2782 70.2146 36.6567 70.8617C36.0353 71.5088 35.5421 72.2775 35.2055 73.1237C34.8689 73.9699 34.6955 74.877 34.6952 75.7933V181.231C34.6962 182.147 34.87 183.053 35.2068 183.899C35.5435 184.744 36.0365 185.512 36.6576 186.159C37.2788 186.805 38.0159 187.318 38.8268 187.667C39.6378 188.016 40.5067 188.195 41.3839 188.193H114.296C115.173 188.195 116.042 188.016 116.853 187.667C117.664 187.318 118.401 186.805 119.022 186.159C119.643 185.512 120.136 184.744 120.473 183.899C120.81 183.053 120.983 182.147 120.984 181.231V75.7933C120.984 74.8775 120.811 73.9708 120.475 73.1249C120.138 72.2791 119.646 71.5106 119.025 70.8636C118.404 70.2166 117.667 69.7036 116.856 69.3539C116.045 69.0043 115.176 68.8249 114.298 68.8259Z" fill="url(#paint1_linear)"/>
<path d="M114.79 70.2563H40.8953C38.0394 70.2563 35.7242 72.6726 35.7242 75.6532V181.723C35.7242 184.703 38.0394 187.12 40.8953 187.12H114.79C117.645 187.12 119.961 184.703 119.961 181.723V75.6532C119.961 72.6726 117.645 70.2563 114.79 70.2563Z" fill="#535461"/>
<path d="M115.679 81.3115H40.0033V176.067H115.679V81.3115Z" fill="#F1F1F4"/>
<path d="M77.4985 76.6892C78.0654 76.6892 78.5249 76.2096 78.5249 75.6179C78.5249 75.0263 78.0654 74.5466 77.4985 74.5466C76.9316 74.5466 76.472 75.0263 76.472 75.6179C76.472 76.2096 76.9316 76.6892 77.4985 76.6892Z" fill="white"/>
<path d="M77.4984 184.618C79.2006 184.618 80.5804 183.178 80.5804 181.401C80.5804 179.625 79.2006 178.185 77.4984 178.185C75.7963 178.185 74.4165 179.625 74.4165 181.401C74.4165 183.178 75.7963 184.618 77.4984 184.618Z" fill="white"/>
<path d="M64.8578 90.9937H43.2738V107.972H64.8578V90.9937Z" fill="white"/>
<path opacity="0.2" d="M52.5817 92.4641H45.3862V96.7087H52.5817V92.4641Z" fill="#00D1B2"/>
<path d="M62.7481 92.4641H54.3011V93.4436H62.7481V92.4641Z" fill="#E6E8EC"/>
<path d="M60.2453 94.0967H54.3011V95.0762H60.2453V94.0967Z" fill="#E6E8EC"/>
<path d="M62.7481 95.7292H54.3011V96.7088H62.7481V95.7292Z" fill="#E6E8EC"/>
<path d="M62.748 97.3618H45.3862V98.3413H62.748V97.3618Z" fill="#E6E8EC"/>
<path d="M62.748 98.9944H45.3862V99.9739H62.748V98.9944Z" fill="#E6E8EC"/>
<path d="M62.748 100.627H45.3862V101.606H62.748V100.627Z" fill="#E6E8EC"/>
<path d="M61.3415 102.259H45.3862V103.239H61.3415V102.259Z" fill="#E6E8EC"/>
<path d="M62.748 103.892H45.3862V104.871H62.748V103.892Z" fill="#E6E8EC"/>
<path d="M62.748 105.524H45.3862V106.504H62.748V105.524Z" fill="#E6E8EC"/>
<path d="M88.6343 90.9937H67.0503V107.972H88.6343V90.9937Z" fill="white"/>
<path opacity="0.2" d="M76.3557 92.4641H69.1602V96.7087H76.3557V92.4641Z" fill="#00D1B2"/>
<path d="M86.5247 92.4641H78.0778V93.4436H86.5247V92.4641Z" fill="#E6E8EC"/>
<path d="M84.0219 94.0967H78.0778V95.0762H84.0219V94.0967Z" fill="#E6E8EC"/>
<path d="M86.5247 95.7292H78.0778V96.7088H86.5247V95.7292Z" fill="#E6E8EC"/>
<path d="M86.522 97.3618H69.1602V98.3413H86.522V97.3618Z" fill="#E6E8EC"/>
<path d="M86.522 98.9944H69.1602V99.9739H86.522V98.9944Z" fill="#E6E8EC"/>
<path d="M86.522 100.627H69.1602V101.606H86.522V100.627Z" fill="#E6E8EC"/>
<path d="M85.1154 102.259H69.1602V103.239H85.1154V102.259Z" fill="#E6E8EC"/>
<path d="M86.522 103.892H69.1602V104.871H86.522V103.892Z" fill="#E6E8EC"/>
<path d="M86.522 105.524H69.1602V106.504H86.522V105.524Z" fill="#E6E8EC"/>
<path d="M112.408 90.9937H90.8243V107.972H112.408V90.9937Z" fill="white"/>
<path opacity="0.2" d="M100.132 92.4641H92.9368V96.7087H100.132V92.4641Z" fill="#00D1B2"/>
<path d="M110.298 92.4641H101.852V93.4436H110.298V92.4641Z" fill="#E6E8EC"/>
<path d="M107.796 94.0967H101.852V95.0762H107.796V94.0967Z" fill="#E6E8EC"/>
<path d="M110.298 95.7292H101.852V96.7088H110.298V95.7292Z" fill="#E6E8EC"/>
<path d="M110.299 97.3618H92.9368V98.3413H110.299V97.3618Z" fill="#E6E8EC"/>
<path d="M110.299 98.9944H92.9368V99.9739H110.299V98.9944Z" fill="#E6E8EC"/>
<path d="M110.299 100.627H92.9368V101.606H110.299V100.627Z" fill="#E6E8EC"/>
<path d="M108.892 102.259H92.9368V103.239H108.892V102.259Z" fill="#E6E8EC"/>
<path d="M110.299 103.892H92.9368V104.871H110.299V103.892Z" fill="#E6E8EC"/>
<path d="M110.299 105.524H92.9368V106.504H110.299V105.524Z" fill="#E6E8EC"/>
<path d="M64.8578 110.093H43.2738V127.071H64.8578V110.093Z" fill="white"/>
<path opacity="0.2" d="M52.5817 111.564H45.3862V115.808H52.5817V111.564Z" fill="#00D1B2"/>
<path d="M62.7481 111.564H54.3011V112.543H62.7481V111.564Z" fill="#E6E8EC"/>
<path d="M60.2453 113.196H54.3011V114.176H60.2453V113.196Z" fill="#E6E8EC"/>
<path d="M62.7481 114.829H54.3011V115.808H62.7481V114.829Z" fill="#E6E8EC"/>
<path d="M62.748 116.461H45.3862V117.441H62.748V116.461Z" fill="#E6E8EC"/>
<path d="M62.748 118.094H45.3862V119.073H62.748V118.094Z" fill="#E6E8EC"/>
<path d="M62.748 119.726H45.3862V120.706H62.748V119.726Z" fill="#E6E8EC"/>
<path d="M61.3415 121.359H45.3862V122.338H61.3415V121.359Z" fill="#E6E8EC"/>
<path d="M62.748 122.991H45.3862V123.971H62.748V122.991Z" fill="#E6E8EC"/>
<path d="M62.748 124.624H45.3862V125.604H62.748V124.624Z" fill="#E6E8EC"/>
<path d="M88.6343 110.093H67.0503V127.071H88.6343V110.093Z" fill="white"/>
<path opacity="0.2" d="M76.3557 111.564H69.1602V115.808H76.3557V111.564Z" fill="#00D1B2"/>
<path d="M86.5247 111.564H78.0778V112.543H86.5247V111.564Z" fill="#E6E8EC"/>
<path d="M84.0219 113.196H78.0778V114.176H84.0219V113.196Z" fill="#E6E8EC"/>
<path d="M86.5247 114.829H78.0778V115.808H86.5247V114.829Z" fill="#E6E8EC"/>
<path d="M86.522 116.461H69.1602V117.441H86.522V116.461Z" fill="#E6E8EC"/>
<path d="M86.522 118.094H69.1602V119.073H86.522V118.094Z" fill="#E6E8EC"/>
<path d="M86.522 119.726H69.1602V120.706H86.522V119.726Z" fill="#E6E8EC"/>
<path d="M85.1154 121.359H69.1602V122.338H85.1154V121.359Z" fill="#E6E8EC"/>
<path d="M86.522 122.991H69.1602V123.971H86.522V122.991Z" fill="#E6E8EC"/>
<path d="M86.522 124.624H69.1602V125.604H86.522V124.624Z" fill="#E6E8EC"/>
<path d="M112.408 110.093H90.8243V127.071H112.408V110.093Z" fill="white"/>
<path opacity="0.2" d="M100.132 111.564H92.9368V115.808H100.132V111.564Z" fill="#00D1B2"/>
<path d="M110.298 111.564H101.852V112.543H110.298V111.564Z" fill="#E6E8EC"/>
<path d="M107.796 113.196H101.852V114.176H107.796V113.196Z" fill="#E6E8EC"/>
<path d="M110.298 114.829H101.852V115.808H110.298V114.829Z" fill="#E6E8EC"/>
<path d="M110.299 116.461H92.9368V117.441H110.299V116.461Z" fill="#E6E8EC"/>
<path d="M110.299 118.094H92.9368V119.073H110.299V118.094Z" fill="#E6E8EC"/>
<path d="M110.299 119.726H92.9368V120.706H110.299V119.726Z" fill="#E6E8EC"/>
<path d="M108.892 121.359H92.9368V122.338H108.892V121.359Z" fill="#E6E8EC"/>
<path d="M110.299 122.991H92.9368V123.971H110.299V122.991Z" fill="#E6E8EC"/>
<path d="M110.299 124.624H92.9368V125.604H110.299V124.624Z" fill="#E6E8EC"/>
<path d="M64.8578 129.948H43.2738V146.926H64.8578V129.948Z" fill="white"/>
<path opacity="0.2" d="M52.5817 131.419H45.3862V135.663H52.5817V131.419Z" fill="#00D1B2"/>
<path d="M62.7481 131.419H54.3011V132.398H62.7481V131.419Z" fill="#E6E8EC"/>
<path d="M60.2453 133.051H54.3011V134.031H60.2453V133.051Z" fill="#E6E8EC"/>
<path d="M62.7481 134.684H54.3011V135.663H62.7481V134.684Z" fill="#E6E8EC"/>
<path d="M62.748 136.316H45.3862V137.296H62.748V136.316Z" fill="#E6E8EC"/>
<path d="M62.748 137.949H45.3862V138.928H62.748V137.949Z" fill="#E6E8EC"/>
<path d="M62.748 139.581H45.3862V140.561H62.748V139.581Z" fill="#E6E8EC"/>
<path d="M61.3415 141.214H45.3862V142.193H61.3415V141.214Z" fill="#E6E8EC"/>
<path d="M62.748 142.846H45.3862V143.826H62.748V142.846Z" fill="#E6E8EC"/>
<path d="M62.748 144.479H45.3862V145.459H62.748V144.479Z" fill="#E6E8EC"/>
<path d="M88.6343 129.948H67.0503V146.926H88.6343V129.948Z" fill="white"/>
<path opacity="0.2" d="M76.3557 131.419H69.1602V135.663H76.3557V131.419Z" fill="#00D1B2"/>
<path d="M86.5247 131.419H78.0778V132.398H86.5247V131.419Z" fill="#E6E8EC"/>
<path d="M84.0219 133.051H78.0778V134.031H84.0219V133.051Z" fill="#E6E8EC"/>
<path d="M86.5247 134.684H78.0778V135.663H86.5247V134.684Z" fill="#E6E8EC"/>
<path d="M86.522 136.316H69.1602V137.296H86.522V136.316Z" fill="#E6E8EC"/>
<path d="M86.522 137.949H69.1602V138.928H86.522V137.949Z" fill="#E6E8EC"/>
<path d="M86.522 139.581H69.1602V140.561H86.522V139.581Z" fill="#E6E8EC"/>
<path d="M85.1154 141.214H69.1602V142.193H85.1154V141.214Z" fill="#E6E8EC"/>
<path d="M86.522 142.846H69.1602V143.826H86.522V142.846Z" fill="#E6E8EC"/>
<path d="M86.522 144.479H69.1602V145.459H86.522V144.479Z" fill="#E6E8EC"/>
<path d="M112.408 129.948H90.8243V146.926H112.408V129.948Z" fill="white"/>
<path opacity="0.2" d="M100.132 131.419H92.9368V135.663H100.132V131.419Z" fill="#00D1B2"/>
<path d="M110.298 131.419H101.852V132.398H110.298V131.419Z" fill="#E6E8EC"/>
<path d="M107.796 133.051H101.852V134.031H107.796V133.051Z" fill="#E6E8EC"/>
<path d="M110.298 134.684H101.852V135.663H110.298V134.684Z" fill="#E6E8EC"/>
<path d="M110.299 136.316H92.9368V137.296H110.299V136.316Z" fill="#E6E8EC"/>
<path d="M110.299 137.949H92.9368V138.928H110.299V137.949Z" fill="#E6E8EC"/>
<path d="M110.299 139.581H92.9368V140.561H110.299V139.581Z" fill="#E6E8EC"/>
<path d="M108.892 141.214H92.9368V142.193H108.892V141.214Z" fill="#E6E8EC"/>
<path d="M110.299 142.846H92.9368V143.826H110.299V142.846Z" fill="#E6E8EC"/>
<path d="M110.299 144.479H92.9368V145.459H110.299V144.479Z" fill="#E6E8EC"/>
<path d="M64.8578 149.047H43.2738V166.026H64.8578V149.047Z" fill="white"/>
<path opacity="0.2" d="M52.5817 150.518H45.3862V154.763H52.5817V150.518Z" fill="#00D1B2"/>
<path d="M62.7481 150.518H54.3011V151.497H62.7481V150.518Z" fill="#E6E8EC"/>
<path d="M60.2453 152.151H54.3011V153.13H60.2453V152.151Z" fill="#E6E8EC"/>
<path d="M62.7481 153.783H54.3011V154.763H62.7481V153.783Z" fill="#E6E8EC"/>
<path d="M62.748 155.416H45.3862V156.395H62.748V155.416Z" fill="#E6E8EC"/>
<path d="M62.748 157.048H45.3862V158.028H62.748V157.048Z" fill="#E6E8EC"/>
<path d="M62.748 158.681H45.3862V159.66H62.748V158.681Z" fill="#E6E8EC"/>
<path d="M61.3415 160.313H45.3862V161.293H61.3415V160.313Z" fill="#E6E8EC"/>
<path d="M62.748 161.946H45.3862V162.925H62.748V161.946Z" fill="#E6E8EC"/>
<path d="M62.748 163.578H45.3862V164.558H62.748V163.578Z" fill="#E6E8EC"/>
<path d="M88.6343 149.047H67.0503V166.026H88.6343V149.047Z" fill="white"/>
<path opacity="0.2" d="M76.3557 150.518H69.1602V154.763H76.3557V150.518Z" fill="#00D1B2"/>
<path d="M86.5247 150.518H78.0778V151.497H86.5247V150.518Z" fill="#E6E8EC"/>
<path d="M84.0219 152.151H78.0778V153.13H84.0219V152.151Z" fill="#E6E8EC"/>
<path d="M86.5247 153.783H78.0778V154.763H86.5247V153.783Z" fill="#E6E8EC"/>
<path d="M86.522 155.416H69.1602V156.395H86.522V155.416Z" fill="#E6E8EC"/>
<path d="M86.522 157.048H69.1602V158.028H86.522V157.048Z" fill="#E6E8EC"/>
<path d="M86.522 158.681H69.1602V159.66H86.522V158.681Z" fill="#E6E8EC"/>
<path d="M85.1154 160.313H69.1602V161.293H85.1154V160.313Z" fill="#E6E8EC"/>
<path d="M86.522 161.946H69.1602V162.925H86.522V161.946Z" fill="#E6E8EC"/>
<path d="M86.522 163.578H69.1602V164.558H86.522V163.578Z" fill="#E6E8EC"/>
<path opacity="0.1" d="M112.408 149.047H90.8243V166.026H112.408V149.047Z" fill="black"/>
<path d="M58.7225 104.564H21.2841C20.7979 104.563 20.3162 104.662 19.8666 104.855C19.417 105.048 19.0083 105.332 18.6638 105.69C18.3192 106.048 18.0457 106.473 17.8587 106.942C17.6716 107.41 17.5749 107.912 17.5739 108.42V193.984C17.5749 194.492 17.6716 194.994 17.8587 195.462C18.0457 195.931 18.3192 196.356 18.6638 196.714C19.0083 197.072 19.417 197.356 19.8666 197.549C20.3162 197.742 20.7979 197.841 21.2841 197.84H58.7225C59.2087 197.841 59.6904 197.742 60.1399 197.549C60.5895 197.356 60.9983 197.072 61.3428 196.714C61.6873 196.356 61.9609 195.931 62.1479 195.462C62.3349 194.994 62.4317 194.492 62.4327 193.984V108.423C62.432 107.915 62.3355 107.412 62.1487 106.944C61.9618 106.475 61.6883 106.049 61.3437 105.691C60.9991 105.333 60.5903 105.049 60.1405 104.855C59.6908 104.662 59.2089 104.563 58.7225 104.564Z" fill="url(#paint2_linear)"/>
<path d="M59.2472 105.282H20.7617C19.1909 105.282 17.9176 106.611 17.9176 108.25V194.518C17.9176 196.158 19.1909 197.487 20.7617 197.487H59.2472C60.818 197.487 62.0913 196.158 62.0913 194.518V108.25C62.0913 106.611 60.818 105.282 59.2472 105.282Z" fill="#535461"/>
<path d="M58.8363 113.857H21.1704V188.906H58.8363V113.857Z" fill="#F1F1F4"/>
<path d="M35.551 109.926C35.7395 109.926 35.8923 109.766 35.8923 109.569C35.8923 109.373 35.7395 109.213 35.551 109.213C35.3625 109.213 35.2097 109.373 35.2097 109.569C35.2097 109.766 35.3625 109.926 35.551 109.926Z" fill="white"/>
<path d="M44.5409 109.211H37.5238C37.381 109.211 37.2653 109.331 37.2653 109.48V109.656C37.2653 109.805 37.381 109.926 37.5238 109.926H44.5409C44.6837 109.926 44.7995 109.805 44.7995 109.656V109.48C44.7995 109.331 44.6837 109.211 44.5409 109.211Z" fill="white"/>
<path d="M39.8326 194.983C41.1563 194.983 42.2294 193.863 42.2294 192.481C42.2294 191.1 41.1563 189.98 39.8326 189.98C38.5089 189.98 37.4358 191.1 37.4358 192.481C37.4358 193.863 38.5089 194.983 39.8326 194.983Z" fill="white"/>
<path opacity="0.1" d="M52.8455 118.35H27.1609V138.553H52.8455V118.35Z" fill="black"/>
<path d="M52.8455 141.079H27.1609V161.282H52.8455V141.079Z" fill="white"/>
<path opacity="0.2" d="M38.2348 142.827H29.6741V147.879H38.2348V142.827Z" fill="#00D1B2"/>
<path d="M50.3324 142.827H40.2825V143.993H50.3324V142.827Z" fill="#E6E8EC"/>
<path d="M47.3565 144.77H40.2825V145.936H47.3565V144.77Z" fill="#E6E8EC"/>
<path d="M50.3324 146.711H40.2825V147.876H50.3324V146.711Z" fill="#E6E8EC"/>
<path d="M50.335 148.653H29.6741V149.819H50.335V148.653Z" fill="#E6E8EC"/>
<path d="M50.335 150.596H29.6741V151.762H50.335V150.596Z" fill="#E6E8EC"/>
<path d="M50.335 152.539H29.6741V153.705H50.335V152.539Z" fill="#E6E8EC"/>
<path d="M48.6596 154.482H29.6741V155.648H48.6596V154.482Z" fill="#E6E8EC"/>
<path d="M50.335 156.425H29.6741V157.591H50.335V156.425Z" fill="#E6E8EC"/>
<path d="M50.335 158.368H29.6741V159.533H50.335V158.368Z" fill="#E6E8EC"/>
<path d="M52.8455 163.854H27.1609V184.057H52.8455V163.854Z" fill="white"/>
<path opacity="0.2" d="M38.2348 165.602H29.6741V170.654H38.2348V165.602Z" fill="#00D1B2"/>
<path d="M50.3324 165.602H40.2825V166.768H50.3324V165.602Z" fill="#E6E8EC"/>
<path d="M47.3565 167.545H40.2825V168.711H47.3565V167.545Z" fill="#E6E8EC"/>
<path d="M50.3324 169.488H40.2825V170.654H50.3324V169.488Z" fill="#E6E8EC"/>
<path d="M50.335 171.431H29.6741V172.597H50.335V171.431Z" fill="#E6E8EC"/>
<path d="M50.335 173.374H29.6741V174.539H50.335V173.374Z" fill="#E6E8EC"/>
<path d="M50.335 175.317H29.6741V176.482H50.335V175.317Z" fill="#E6E8EC"/>
<path d="M48.6596 177.259H29.6741V178.425H48.6596V177.259Z" fill="#E6E8EC"/>
<path d="M50.335 179.199H29.6741V180.365H50.335V179.199Z" fill="#E6E8EC"/>
<path d="M50.335 181.142H29.6741V182.308H50.335V181.142Z" fill="#E6E8EC"/>
<path d="M140.565 173.398C138.827 171.199 136.723 168.67 137.017 165.743C137.255 163.371 136.684 161.18 136.798 158.802C136.958 155.424 136.304 152.777 133.972 150.61C132.609 149.344 130.331 148.349 129.654 148.602C128.309 149.104 126.843 148.913 125.46 149.25C124.41 149.52 123.71 149.9 123.278 150.394C122.407 151.203 122.391 152.353 122.789 153.581C122.442 154.244 122.232 154.976 122.173 155.73C122.115 156.483 122.209 157.241 122.45 157.954C122.691 158.667 123.074 159.318 123.572 159.867C124.071 160.415 124.674 160.848 125.344 161.136C124.374 161.557 123.534 162.531 123.211 164.507C122.981 165.864 122.635 167.197 122.176 168.49C121.971 168.592 121.76 168.682 121.546 168.759C121.592 168.778 121.641 168.792 121.69 168.811C121.59 168.851 121.486 168.892 121.385 168.929C121.571 169.005 121.763 169.063 121.959 169.102C121.254 171.013 120.306 172.816 119.141 174.464C119.141 174.464 116.214 175.138 115.077 173.959C115.077 173.959 115.263 174.186 115.514 174.526C114.399 174.043 112.574 173.258 111.012 172.61C109.88 172.141 109.588 172.61 109.603 173.263C109.325 173.297 109.056 173.389 108.812 173.533C108.477 173.309 108.126 173.112 107.762 172.945C107.111 172.777 104.998 171.595 102.883 175.643C101.653 177.999 98.4879 182.295 96.0704 185.476C91.3519 187.74 85.2112 190.603 82.9308 191.329H81.4726C81.2812 191.002 81.1468 190.789 81.1468 190.789L81.033 190.868L80.9839 190.789C80.9839 190.789 78.1114 192.864 75.1949 192.881C74.7799 192.874 74.3671 192.817 73.9642 192.713C72.6223 192.36 71.6786 192.203 71.0038 192.217C70.2048 192.203 69.7524 192.4 69.4706 192.773C69.4339 192.822 69.4002 192.873 69.3697 192.926C69.3384 192.982 69.3099 193.038 69.2844 193.096C69.2585 193.156 69.2353 193.218 69.212 193.283C69.203 193.339 69.2065 193.398 69.2222 193.453C69.2379 193.508 69.2653 193.559 69.3025 193.601C69.3413 193.66 69.3837 193.715 69.4292 193.768L69.5093 193.86C70.087 194.421 70.7127 194.926 71.3787 195.369C71.6191 195.539 71.8725 195.711 72.1388 195.889L72.643 196.224L73.0929 196.518L73.2739 196.634L73.4755 196.764L73.8349 196.993L74.0495 197.128L74.4529 197.379L74.7786 197.581C75.6319 198.121 76.4851 198.617 77.2504 199.068L77.7882 199.384L77.8399 199.413L78.1838 199.613L78.781 199.959L79.1921 200.193L79.3835 200.304L79.5903 200.42L79.6317 200.444L79.9885 200.647C80.062 200.659 80.1372 200.655 80.209 200.635C80.2809 200.614 80.3476 200.578 80.4047 200.528C80.5082 200.069 80.7615 199.087 81.0304 199.011C81.2993 198.936 82.4732 196.788 82.8067 195.358H85.9791C86.6027 195.303 87.222 195.205 87.833 195.064C87.0133 195.673 86.2015 196.057 85.5706 195.892C84.2365 195.547 82.9722 196.394 82.8455 197.241L82.83 197.293C82.83 197.309 82.83 197.328 82.83 197.344C82.83 197.36 82.83 197.384 82.83 197.406C82.83 197.427 82.83 197.441 82.83 197.457C82.83 197.473 82.83 197.498 82.83 197.519C82.83 197.541 82.83 197.554 82.83 197.57C82.83 197.587 82.83 197.614 82.83 197.633C82.83 197.651 82.83 197.665 82.83 197.681C82.83 197.697 82.83 197.727 82.8455 197.749C82.861 197.77 82.8455 197.778 82.8455 197.792C82.8551 197.821 82.8663 197.85 82.8791 197.878V197.9C82.8967 197.935 82.9165 197.969 82.9386 198.002L82.9644 198.037L83.0161 198.105L83.0523 198.143L83.1118 198.202L83.1557 198.24L83.2256 198.294L83.2773 198.329L83.3626 198.38L83.4195 198.412L83.5255 198.464L83.5798 198.488C83.6366 198.512 83.6961 198.536 83.7607 198.558C83.8254 198.58 83.9831 198.628 84.1201 198.663L84.2572 198.698L84.4563 198.747L84.5623 198.771L84.9966 198.863L85.2086 198.903L85.3819 198.936L85.78 199.009L86.5557 199.141L87.2409 199.249L88.1329 199.381L88.3294 199.408L88.65 199.454L89.1102 199.519L89.4256 199.562L90.2401 199.67L90.4986 199.702L91.0157 199.767C91.6906 199.851 92.3447 199.932 92.9445 200.002L93.64 200.083L93.9917 200.123L94.1416 200.139L94.5631 200.188L94.7984 200.215L95.0854 200.247L95.4913 200.29H95.5352L95.7938 200.317C95.8262 200.321 95.8588 200.317 95.8898 200.307C95.9207 200.296 95.9492 200.279 95.9735 200.257C95.9978 200.234 96.0174 200.206 96.0309 200.176C96.0445 200.145 96.0518 200.111 96.0523 200.077C96.0523 200.077 96.0523 200.058 96.0523 200.05C96.0769 200.012 96.0904 199.967 96.0911 199.921C96.0977 199.517 96.1462 199.115 96.2359 198.723C96.254 198.655 96.2747 198.585 96.2954 198.518L96.3212 198.439C96.3497 198.356 96.3781 198.272 96.4117 198.186C96.4347 198.125 96.4546 198.063 96.4712 198L96.4867 197.94C96.4867 197.908 96.5022 197.873 96.51 197.838C96.8383 196.672 96.4428 194.5 96.329 193.647C96.2933 193.372 96.2336 193.101 96.1506 192.837C96.1712 192.84 96.192 192.84 96.2126 192.837C96.3812 192.772 96.5397 192.681 96.6832 192.568C99.08 191.674 101.104 190.654 101.743 189.632C102.782 189.343 103.886 189.463 104.846 189.969C106.087 190.614 115.48 193.812 119.855 195.29C120.63 195.997 121.256 196.41 121.595 196.37C121.595 196.37 127.161 197.309 129.4 195.474C129.6 195.617 129.724 195.695 129.724 195.695C129.724 195.695 132.976 194.009 133.465 191.817C133.623 191.108 133.765 190.058 133.91 188.898C134.665 188.104 135.089 187.032 135.091 185.913C135.192 182.23 136.56 178.023 137.573 174.275C138.804 174.375 139.28 174.135 140.417 173.552L140.368 173.484L140.565 173.398ZM121.918 178.914L121.297 178.695C121.508 178.402 121.689 178.087 121.838 177.756L121.918 178.914ZM118.417 180.462L122.187 182.824L122.22 183.304C122.174 183.669 122.185 184.04 122.251 184.402C120.592 182.861 118.647 180.991 118.42 180.462H118.417ZM116.879 177.025C116.468 176.847 116.126 176.687 115.894 176.555L116.768 176.612C116.819 176.745 116.857 176.883 116.881 177.025H116.879ZM106.795 180.87C106.795 180.87 107.447 179.353 108.91 181.882C109.138 182.276 109.557 182.899 110.11 183.676L105.854 183.08C106.296 182.411 106.614 181.661 106.79 180.87H106.795Z" fill="url(#paint3_linear)"/>
<path d="M116.157 174.774C116.157 174.774 113.174 173.463 110.821 172.48C108.468 171.498 109.88 174.774 109.88 174.774C109.88 174.774 113.805 175.921 113.805 176.086C113.805 176.25 117.101 176.412 117.101 176.412L116.157 174.774Z" fill="#F7C4A7"/>
<path opacity="0.05" d="M116.157 174.774C116.157 174.774 113.174 173.463 110.821 172.48C108.468 171.498 109.88 174.774 109.88 174.774C109.88 174.774 113.805 175.921 113.805 176.086C113.805 176.25 117.101 176.412 117.101 176.412L116.157 174.774Z" fill="black"/>
<path d="M128.865 161.832C128.865 161.832 123.529 158.883 122.585 164.617C121.997 168.108 120.658 171.414 118.668 174.286C118.668 174.286 115.842 174.941 114.743 173.795C114.743 173.795 117.411 177.07 116.155 177.4C116.155 177.4 118.981 179.529 120.237 178.873C121.494 178.217 122.435 173.795 122.905 172.648C123.376 171.501 125.103 161.503 128.865 161.832Z" fill="#575988"/>
<path opacity="0.1" d="M128.865 161.832C128.865 161.832 123.529 158.883 122.585 164.617C121.997 168.108 120.658 171.414 118.668 174.286C118.668 174.286 115.842 174.941 114.743 173.795C114.743 173.795 117.411 177.07 116.155 177.4C116.155 177.4 118.981 179.529 120.237 178.873C121.494 178.217 122.435 173.795 122.905 172.648C123.376 171.501 125.103 161.503 128.865 161.832Z" fill="black"/>
<path d="M125.889 159.865C125.889 159.865 129.186 163.797 129.344 167.073C129.501 170.349 133.111 163.632 133.426 163.468C133.742 163.303 130.285 157.736 129.969 155.936C129.654 154.137 125.889 159.865 125.889 159.865Z" fill="#F7C4A7"/>
<path d="M128.165 161.547L126.086 163.511L127.066 167.648L129.734 165.027L129.421 162.407L128.165 161.547Z" fill="#F7C4A7"/>
<path d="M84.7611 190.668H81.1517L82.5634 194.27L86.0177 193.288L84.7611 190.668Z" fill="#F7C4A7"/>
<path opacity="0.1" d="M81.9843 190.147C81.9843 190.147 78.2508 192.864 75.0525 192.017C71.8542 191.17 70.9907 191.477 70.6183 192.581C70.2745 193.585 79.541 198.898 81.0173 199.737C81.0406 199.753 81.0674 199.763 81.0952 199.766C81.123 199.768 81.151 199.764 81.1767 199.752C81.2024 199.741 81.2249 199.723 81.2422 199.7C81.2595 199.677 81.2711 199.65 81.2759 199.621C81.3767 199.176 81.6197 198.221 81.8783 198.148C82.217 198.053 83.7657 195.039 83.6882 193.849C83.6106 192.659 81.9843 190.147 81.9843 190.147Z" fill="black"/>
<path d="M81.8293 190.147C81.8293 190.147 78.0958 192.864 74.8975 192.017C71.6992 191.17 70.8356 191.477 70.4633 192.581C70.1194 193.585 79.386 198.898 80.8623 199.737C80.8856 199.753 80.9123 199.763 80.9401 199.766C80.968 199.768 80.996 199.764 81.0217 199.752C81.0473 199.741 81.0698 199.723 81.0872 199.7C81.1045 199.677 81.116 199.65 81.1208 199.621C81.2217 199.176 81.4647 198.221 81.7233 198.148C82.062 198.053 83.6107 195.039 83.5331 193.849C83.4556 192.659 81.8293 190.147 81.8293 190.147Z" fill="#F3B5B7"/>
<path d="M112.703 183.622L102.185 182.149C102.185 182.149 85.0742 190.668 83.0342 190.832L83.5047 194.61H86.6436C87.9001 194.61 100.143 191.825 101.87 189.041C102.869 188.763 103.931 188.879 104.853 189.367C106.423 190.177 121.494 195.266 121.494 195.266L112.703 183.622Z" fill="#575988"/>
<path opacity="0.1" d="M112.703 183.622L102.185 182.149C102.185 182.149 85.0742 190.668 83.0342 190.832L83.5047 194.61H86.6436C87.9001 194.61 100.143 191.825 101.87 189.041C102.869 188.763 103.931 188.879 104.853 189.367C106.423 190.177 121.494 195.266 121.494 195.266L112.703 183.622Z" fill="black"/>
<path d="M94.0227 188.701L92.2955 190.994L94.0227 191.977L96.5358 190.012L94.0227 188.701Z" fill="#F7C4A7"/>
<path d="M124.004 186.078C124.004 186.078 118.358 181.032 117.962 180.114C117.566 179.197 108.308 172.974 107.679 172.81C107.051 172.645 105.011 171.498 102.971 175.43C100.931 179.362 93.4047 188.863 93.4047 188.863C93.4047 188.863 95.7601 192.303 96.5435 192.139C97.3269 191.974 106.11 184.275 106.746 180.506C106.746 180.506 107.374 179.032 108.786 181.488C110.198 183.943 119.304 195.741 121.031 195.576C121.031 195.576 127.782 196.723 129.193 193.938C130.605 191.154 124.004 186.078 124.004 186.078Z" fill="#575988"/>
<path d="M122.419 159.628H98.9144V178.115H122.419V159.628Z" fill="url(#paint4_linear)"/>
<path d="M121.458 160.381H99.8737V177.359H121.458V160.381Z" fill="white"/>
<path opacity="0.2" d="M109.182 161.851H101.986V166.096H109.182V161.851Z" fill="#00D1B2"/>
<path d="M119.348 161.851H110.901V162.831H119.348V161.851Z" fill="#E6E8EC"/>
<path d="M116.845 163.484H110.901V164.463H116.845V163.484Z" fill="#E6E8EC"/>
<path d="M119.348 165.116H110.901V166.096H119.348V165.116Z" fill="#E6E8EC"/>
<path d="M119.348 166.749H101.986V167.729H119.348V166.749Z" fill="#E6E8EC"/>
<path d="M119.348 168.382H101.986V169.361H119.348V168.382Z" fill="#E6E8EC"/>
<path d="M119.348 170.014H101.986V170.994H119.348V170.014Z" fill="#E6E8EC"/>
<path d="M117.941 171.647H101.986V172.626H117.941V171.647Z" fill="#E6E8EC"/>
<path d="M119.348 173.279H101.986V174.259H119.348V173.279Z" fill="#E6E8EC"/>
<path d="M119.348 174.912H101.986V175.891H119.348V174.912Z" fill="#E6E8EC"/>
<path d="M127.223 162.078C127.223 162.078 125.261 162.979 125.103 166.746C124.945 170.513 121.483 176.903 121.483 176.903L121.796 184.44C121.796 184.44 125.563 188.372 125.879 190.83C126.194 193.288 128.865 194.926 128.865 194.926C128.865 194.926 132.004 193.288 132.485 191.148C132.966 189.008 133.26 183.776 134.054 181.809C134.848 179.842 134.367 167.556 134.367 167.556L132.012 163.295L130.755 161.822L127.459 165.753C127.459 165.753 125.654 163.222 127.223 162.078Z" fill="#F3B5B7"/>
<path opacity="0.1" d="M122.593 181.982C122.593 181.982 122.122 176.083 123.534 174.774L126.36 166.409C126.36 166.409 127.381 162.396 127.223 162.067C127.066 161.738 123.534 165.262 123.534 165.262L121.178 173.946L121.807 183.12L122.593 181.982Z" fill="black"/>
<path d="M122.435 181.982C122.435 181.982 121.964 176.083 123.376 174.774L126.202 166.409C126.202 166.409 127.301 162.313 127.143 161.986C126.985 161.66 123.376 165.262 123.376 165.262L121.021 173.946L121.649 183.12L122.435 181.982Z" fill="#575988"/>
<path d="M123.534 179.362C123.534 179.362 115.679 176.741 115.214 176.086C114.748 175.43 109.719 171.172 107.992 174.118C106.265 177.065 114.428 177.896 114.428 177.896L122.748 183.139L123.534 179.362Z" fill="#F7C4A7"/>
<path opacity="0.1" d="M94.3612 190.978L92.0342 190.541C92.0342 190.541 88.2283 195.628 86.2478 195.112C84.2673 194.597 82.4419 196.823 84.5362 197.541C86.4288 198.186 94.5965 199.09 96.1581 199.257C96.1901 199.261 96.2226 199.259 96.2535 199.249C96.2844 199.24 96.3131 199.224 96.3375 199.202C96.362 199.18 96.3817 199.153 96.3953 199.122C96.4089 199.092 96.4162 199.058 96.4167 199.025C96.424 198.393 96.5414 197.767 96.7631 197.179C97.182 196.1 96.7631 193.801 96.6468 192.926C96.5821 192.411 96.4269 191.912 96.1891 191.456L94.3612 190.978Z" fill="black"/>
<path d="M94.3251 191.137L91.9981 190.7C91.9981 190.7 88.1974 195.79 86.2039 195.271C84.2105 194.753 82.398 196.982 84.4923 197.7C86.3849 198.345 94.5526 199.249 96.1142 199.416C96.1462 199.421 96.1787 199.418 96.2096 199.409C96.2406 199.399 96.2692 199.383 96.2936 199.361C96.3181 199.339 96.3378 199.312 96.3514 199.281C96.3651 199.251 96.3724 199.218 96.3728 199.184C96.3802 198.552 96.4976 197.927 96.7193 197.338C97.1381 196.259 96.7193 193.96 96.6029 193.086C96.5382 192.57 96.3831 192.072 96.1453 191.615L94.3251 191.137Z" fill="#F3B5B7"/>
<path opacity="0.1" d="M127.066 161.751C129.84 161.751 132.089 159.404 132.089 156.508C132.089 153.613 129.84 151.265 127.066 151.265C124.291 151.265 122.042 153.613 122.042 156.508C122.042 159.404 124.291 161.751 127.066 161.751Z" fill="black"/>
<path d="M126.595 161.751C129.37 161.751 131.619 159.404 131.619 156.508C131.619 153.613 129.37 151.265 126.595 151.265C123.821 151.265 121.571 153.613 121.571 156.508C121.571 159.404 123.821 161.751 126.595 161.751Z" fill="#F7C4A7"/>
<path d="M131.539 161.668C131.539 161.668 137.503 163.797 137.503 168.222C137.503 172.648 134.207 179.691 134.049 185.425C133.891 191.159 125.258 190.339 125.258 190.339C125.258 190.339 124.002 171.007 125.258 169.531C126.515 168.055 132.167 162.324 131.539 161.668Z" fill="#575988"/>
<path opacity="0.1" d="M130.44 170.843C130.44 170.843 128.242 180.999 123.061 179.208C123.061 179.208 120.392 183.304 122.285 185.106C122.285 185.106 126.838 186.253 129.819 183.139C132.8 180.025 134.993 178.873 135.463 175.095C135.934 171.318 136.239 166.085 134.688 166.576C133.137 167.068 130.44 170.843 130.44 170.843Z" fill="black"/>
<path d="M130.597 170.678C130.597 170.678 128.4 180.835 123.218 179.043C123.218 179.043 120.55 183.139 122.443 184.942C122.443 184.942 126.996 186.089 129.977 182.975C132.958 179.861 135.148 178.714 135.629 174.947C136.11 171.18 136.404 165.937 134.853 166.428C133.302 166.919 130.597 170.678 130.597 170.678Z" fill="#575988"/>
<path d="M96.8538 196.812C96.8538 196.828 96.8538 196.845 96.8383 196.858C96.7261 197.138 96.6395 197.428 96.5797 197.724C96.6159 197.595 96.6599 197.454 96.7116 197.333C96.7778 197.166 96.8255 196.991 96.8538 196.812Z" fill="#DDDBE2"/>
<path d="M84.619 197.222C83.9726 197.001 83.7012 196.637 83.6908 196.254C83.4323 196.793 83.5926 197.387 84.5053 197.7C86.3979 198.345 94.5681 199.249 96.1272 199.416C96.1593 199.421 96.1921 199.418 96.2232 199.408C96.2543 199.399 96.2831 199.382 96.3075 199.36C96.332 199.338 96.3517 199.31 96.3652 199.279C96.3787 199.249 96.3857 199.215 96.3857 199.181C96.3867 199.122 96.3664 199.064 96.3286 199.019C96.2908 198.974 96.2384 198.945 96.1815 198.938C94.4621 198.744 86.4858 197.856 84.619 197.222Z" fill="#DDDBE2"/>
<path d="M70.6779 192.292C70.7181 192.171 70.7692 192.055 70.8305 191.944C70.6609 192.123 70.5342 192.341 70.4607 192.581C70.1169 193.585 79.3834 198.895 80.8598 199.737C80.8832 199.753 80.9099 199.762 80.9375 199.764C80.9651 199.767 80.9929 199.762 81.0183 199.75C81.0438 199.739 81.0662 199.721 81.0836 199.699C81.101 199.676 81.1129 199.65 81.1183 199.621C81.127 199.583 81.1236 199.544 81.1086 199.508C81.0937 199.473 81.0681 199.443 81.0356 199.424C79.3963 198.491 70.3366 193.285 70.6779 192.292Z" fill="#DDDBE2"/>
<path d="M81.9276 197.859C81.8448 197.884 81.7621 197.997 81.6871 198.159H81.713C81.7802 198.14 81.8991 198 82.0439 197.781C82.0114 197.816 81.9716 197.843 81.9276 197.859Z" fill="#DDDBE2"/>
<path opacity="0.1" d="M125.897 161.123C125.455 162.14 125.362 163.282 125.036 164.361C124.719 165.406 124.174 166.36 123.446 167.149C122.717 167.938 121.823 168.541 120.834 168.911C122.466 169.591 124.39 168.759 125.651 167.383C126.913 166.007 127.65 164.175 128.358 162.394C130.189 163.678 129.967 166.63 130.579 168.929C130.843 169.929 131.31 170.859 131.948 171.654C132.586 172.45 133.38 173.093 134.277 173.541C135.17 173.96 136.141 174.166 137.121 174.146C138.1 174.125 139.062 173.878 139.939 173.422C138.261 171.285 135.872 168.355 136.156 165.511C136.386 163.206 134.801 161.447 134.913 159.137C135.068 155.856 133.878 154.196 131.616 152.091C130.3 150.861 132.371 149.123 130.675 149.633C130.008 149.833 129.305 149.093 128.651 149.333C127.358 149.819 125.938 149.636 124.604 149.962C117.667 151.657 126.538 159.636 125.897 161.123Z" fill="black"/>
<path d="M126.055 160.958C125.613 161.975 125.519 163.117 125.194 164.196C124.876 165.241 124.332 166.195 123.603 166.984C122.875 167.774 121.981 168.376 120.992 168.746C122.624 169.426 124.547 168.595 125.809 167.218C127.071 165.842 127.808 164.01 128.516 162.229C130.347 163.514 130.124 166.466 130.737 168.765C131.001 169.765 131.468 170.694 132.106 171.489C132.744 172.285 133.538 172.928 134.434 173.376C135.328 173.795 136.299 174.001 137.278 173.981C138.257 173.96 139.22 173.713 140.097 173.258C138.419 171.12 136.187 168.67 136.477 165.837C136.707 163.532 136.363 161.166 136.477 158.856C136.632 155.575 135.094 152.415 132.842 150.31C131.526 149.08 129.48 148.923 128.816 149.169C127.523 149.654 126.104 149.471 124.77 149.797C117.825 151.495 126.701 159.471 126.055 160.958Z" fill="#B96B6B"/>
<path d="M42.3586 210.847C51.4079 207.94 56.7496 208.181 56.7496 208.181L56.0076 203.79C56.2394 203.628 56.4498 203.435 56.6333 203.216C56.6333 203.216 55.7051 197.886 56.6333 196.553C57.5615 195.22 60.116 183.11 60.116 183.11V178.989C64.7699 177.294 70.2124 167.483 70.2124 167.483L77.0615 185.889C77.0615 185.889 83.908 200.061 84.8362 200.544C85.5782 200.93 85.9479 204.101 86.0695 205.361L86.0126 205.38C86.041 205.685 86.0539 205.873 86.0539 205.873L86.1082 205.836V205.873C86.2231 205.79 86.3442 205.716 86.4702 205.652C85.1335 207.255 83.1323 209.56 81.4672 211.081C80.5494 211.921 82.1963 212.568 82.9668 212.555C83.4051 212.54 83.8426 212.605 84.2596 212.746C88.1611 214.152 94.5758 209.02 94.5758 209.02L92.9702 204.346C93.3891 204.311 93.6476 204.295 93.6476 204.295C93.6476 204.295 88.4249 185.158 85.9867 183.339C85.216 182.753 84.5209 182.065 83.9183 181.294C82.7587 179.823 82.1742 177.949 82.2817 176.048L83.1375 160.346C84.513 160.135 85.3998 159.96 85.3998 159.96C85.3998 159.96 85.7204 155.669 85.7101 152.377C85.7101 150.664 85.6428 149.161 85.3998 148.572C85.1128 147.876 85.0223 146.484 85.0172 145.086C85.0172 143.197 85.1671 141.427 85.1671 141.427C85.1671 141.427 87.0235 138.882 89.578 133.062C90.7027 130.501 90.9949 128.475 90.969 127.023C90.9864 126.346 90.9239 125.67 90.7829 125.01C90.7105 124.683 90.5766 124.375 90.3888 124.103C90.201 123.831 89.9632 123.601 89.6892 123.426C88.2206 122.487 84.8775 120.169 83.8924 117.924C82.6411 115.074 80.8338 114.67 80.7614 114.653L80.6502 114.151C81.3433 113.553 81.8493 112.753 82.1033 111.852C82.4808 110.638 82.5583 109.343 82.8789 108.11C83.0341 107.516 83.2487 106.941 83.396 106.348C83.5432 105.75 83.6137 105.135 83.6055 104.518C83.6334 103.62 83.4562 102.727 83.0883 101.914C82.4885 100.627 81.294 99.615 79.934 99.4477C79.1842 99.356 78.3543 99.4909 77.7389 99.0349C77.3149 98.7191 77.0925 98.1821 76.7047 97.8071C75.9678 97.0785 74.7888 97.1163 73.8296 97.4563C72.538 97.9185 71.4314 98.8179 70.6856 100.012C70.2383 100.729 69.9254 101.552 69.3515 102.17C68.868 102.686 68.2345 103.015 67.7019 103.474C67.3076 103.795 66.987 104.204 66.7634 104.671C66.5397 105.137 66.4187 105.65 66.4091 106.172C66.4091 106.172 66.4091 106.199 66.4091 106.213C66.4091 106.28 66.4091 106.348 66.4091 106.415C66.435 107.457 67.1305 108.493 68.1078 108.703C68.3637 108.752 68.6254 108.76 68.8835 108.725C68.6631 109.575 68.6095 110.463 68.7257 111.335C68.842 112.207 69.1258 113.046 69.5602 113.801C69.9945 114.555 70.5704 115.211 71.2534 115.728C71.9364 116.245 72.7124 116.613 73.5348 116.809C73.5193 116.896 73.5012 116.982 73.4831 117.079H73.5374C73.4254 117.499 73.2855 117.91 73.1186 118.31H73.0436L73.2323 117.959L70.5692 117.767C69.7938 117.706 69.0166 117.858 68.3147 118.207C67.3968 118.671 66.3936 119.556 66.2695 121.229C66.0368 124.365 60.3487 129.087 60.3487 129.087C58.3759 132.358 45.4922 132.962 45.4922 132.962C45.4922 132.962 45.5491 133.038 45.575 133.078L45.3164 133.027L44.3417 132.841C44.3417 132.841 41.3244 123.515 38.4234 125.21C35.5224 126.904 43.4135 136.111 43.4135 136.111L45.6939 136.27L45.924 136.287C45.8403 136.89 45.7203 137.488 45.5646 138.076C45.5336 138.194 45.5103 138.27 45.5052 138.289C45.5052 138.289 51.5036 137.566 56.5996 137.682H57.0599L57.3856 137.665C57.6442 140.588 61.6362 146.527 61.6362 146.527L64.1003 147.067L64.2864 147.107C63.4924 148.821 62.4839 150.417 61.2872 151.854L60.4753 156.579L60.54 156.563L60.4753 156.943C60.6145 156.908 60.7432 156.837 60.8502 156.738C59.2601 161.142 56.6229 167.996 54.7898 170.387C52.0052 174.021 52.3516 179.831 52.3516 179.831C52.3516 179.831 49.567 195.093 49.6834 197.878C49.6968 199.222 49.3483 200.543 48.6776 201.691C48.1314 202.345 47.6514 203.057 47.2452 203.815C45.1561 207.571 41.7898 207.323 41.7898 207.323C38.8888 209.271 42.3586 210.847 42.3586 210.847ZM60.284 136.967L60.5839 136.842L60.6537 136.813L60.9407 136.683L60.9899 136.659L61.2484 136.535L61.3053 136.508L61.5794 136.365L61.644 136.33L61.9026 136.187H61.9232L62.1818 136.03L62.2438 135.992L62.5024 135.836L62.5438 135.809L62.7687 135.666L62.8204 135.634L63.0609 135.474L63.1152 135.437L63.3375 135.283L63.3582 135.269L63.5857 135.105L63.6374 135.067L63.8546 134.905L63.8882 134.881L64.0796 134.735L64.1209 134.703L64.32 134.543L64.3614 134.511L64.5424 134.363H64.5579L64.7415 134.209L64.7802 134.176L64.9535 134.028L64.969 134.014L65.1241 133.877L65.15 133.853L65.3025 133.715L65.3258 133.693L65.4654 133.561L65.5999 133.434L65.618 133.415L65.8765 133.146L66.254 133.113C66.5746 133.548 66.7013 134.317 66.7142 135.199C66.678 137.463 66.0213 140.259 66.0213 140.259C65.9653 141.646 65.7341 143.02 65.3335 144.344C65.0504 144.328 64.7726 144.258 64.5139 144.136C64.5139 144.136 64.4984 144.223 64.4752 144.368L64.2528 144.309L63.1229 144.015C63.1229 144.015 62.1844 139.028 60.284 136.967Z" fill="url(#paint5_linear)"/>
<path d="M91.7577 201.483L93.9115 207.746C93.9115 207.746 88.0139 212.468 84.1821 211.492C83.605 211.342 83.0169 211.243 82.424 211.195C81.6302 211.133 80.2651 210.531 81.108 209.762C83.8279 207.279 87.4528 202.668 87.4528 202.668L91.7577 201.483Z" fill="#4F4D59"/>
<path d="M55.9534 200.892L56.9721 206.923C56.9721 206.923 51.7597 206.686 42.9223 209.524C42.9223 209.524 39.5224 207.986 42.3561 206.095C42.3561 206.095 45.6423 206.332 47.6823 202.665C49.7223 198.998 50.9685 199.473 50.9685 199.473L55.9534 200.892Z" fill="#4F4D59"/>
<path d="M82.9203 157.137L81.9223 175.486C81.8154 177.442 82.437 179.365 83.6572 180.854C84.2088 181.537 84.8373 182.149 85.5291 182.675C87.9078 184.448 93.0065 203.132 93.0065 203.132C93.0065 203.132 87.2278 203.485 85.6429 204.67C85.6429 204.67 85.3042 199.94 84.3967 199.467C83.4891 198.995 76.8055 185.166 76.8055 185.166L70.1168 167.189C70.1168 167.189 64.7906 176.768 60.2582 178.422V182.443C60.2582 182.443 57.7657 194.268 56.8582 195.568C55.9507 196.869 56.8582 202.071 56.8582 202.071C56.8582 202.071 54.252 205.501 48.2484 201.834C48.2484 201.834 50.1746 199.586 50.0583 196.866C49.9419 194.146 52.6697 179.251 52.6697 179.251C52.6697 179.251 52.331 173.584 55.0483 170.028C57.7657 166.471 62.2878 152.882 62.2878 152.882L65.406 145.879L82.9203 157.137Z" fill="#787C9C"/>
<g opacity="0.1">
<path opacity="0.1" d="M91.9284 203.137C91.9284 203.137 86.8298 184.453 84.4511 182.681C83.7198 182.123 83.0588 181.471 82.4835 180.74C81.3196 179.272 80.7345 177.397 80.8469 175.495L81.8449 157.145L65.1346 146.395L65.3622 145.885L82.8636 157.143L81.8656 175.492C81.7531 177.394 82.3383 179.269 83.5022 180.738C84.0775 181.468 84.7385 182.12 85.4698 182.678C87.8485 184.451 92.9471 203.135 92.9471 203.135C92.9471 203.135 87.1685 203.488 85.5836 204.673C85.5836 204.673 85.5706 204.489 85.5422 204.19C87.7709 203.394 91.9284 203.137 91.9284 203.137Z" fill="black"/>
<path opacity="0.1" d="M55.7853 202.08C55.7853 202.08 54.8778 196.877 55.7853 195.576C56.6928 194.276 59.1853 182.451 59.1853 182.451V178.431C63.7177 176.774 69.0439 167.197 69.0439 167.197L69.4395 168.263C67.9037 170.805 63.8056 177.116 60.2065 178.431V182.451C60.2065 182.451 57.7141 194.276 56.8066 195.576C55.899 196.877 56.8066 202.08 56.8066 202.08C56.8066 202.08 55.5422 203.739 52.7499 203.515C54.8312 203.329 55.7853 202.08 55.7853 202.08Z" fill="black"/>
</g>
<path d="M43.9436 136.562L46.1697 136.716L47.3436 136.797V133.828L45.7923 133.537L44.8382 133.356C44.8382 133.356 41.8933 124.252 39.0595 125.906C36.2258 127.56 43.9436 136.562 43.9436 136.562Z" fill="#714B4F"/>
<path d="M79.6342 112.203C79.6342 112.203 81.108 118.115 81.5604 121.783C82.0129 125.45 71.0244 122.492 71.0244 122.492C71.0244 122.492 75.2156 117.171 72.8343 114.332L79.6342 112.203Z" fill="#714B4F"/>
<path d="M67.7382 136.799L67.5107 139.047L71.0218 138.81L74.533 135.617L78.0441 125.328L80.3142 121.667L82.0129 119.419L81.3329 116.699C81.3329 116.699 81.0226 116.969 80.4978 117.4C78.7732 118.779 74.7243 121.642 71.7665 120.852C71.6296 120.816 71.4949 120.772 71.3631 120.719L66.9445 128.642L67.7382 136.799Z" fill="#E6E6F0"/>
<path opacity="0.1" d="M80.4279 116C80.4279 116 82.2378 116.353 83.4866 119.192C84.4458 121.375 87.6803 123.625 89.1256 124.551C89.4011 124.727 89.6401 124.959 89.8284 125.233C90.0167 125.507 90.1505 125.817 90.2219 126.146C90.514 127.495 90.6252 130.005 89.0377 133.62C86.5452 139.287 84.7328 141.78 84.7328 141.78C84.7328 141.78 84.2803 147.447 84.9603 149.112C85.6403 150.777 84.9603 159.873 84.9603 159.873C84.9603 159.873 73.0669 162.237 69.0981 159.873C65.1293 157.51 65.6982 148.381 65.6982 148.381C65.6982 148.381 61.9595 156.665 60.6073 156.902L61.3829 152.291C61.3829 152.291 65.8016 147.323 66.0369 140.939C66.0369 140.939 67.3968 135.145 66.2644 133.607C66.2644 133.607 47.116 135.264 45.9835 133.844C45.9835 133.844 58.5595 133.253 60.4857 130.067C60.4857 130.067 66.0369 125.455 66.2644 122.382C66.2976 121.805 66.471 121.247 66.7682 120.76C67.0654 120.272 67.4766 119.872 67.9631 119.597C68.7338 119.139 69.6182 118.934 70.5021 119.006L73.0617 119.189C73.0617 119.189 68.6456 127.333 68.8809 128.412C69.1162 129.492 68.6534 138.108 68.6534 138.108C68.6534 138.108 73.7521 126.637 76.017 125.336C78.2819 124.036 80.8804 118.698 80.8804 118.698L80.4279 116Z" fill="black"/>
<path opacity="0.1" d="M67.7382 136.799L67.5107 139.047L71.0218 138.81L74.533 135.617L78.0441 125.328L80.3142 121.667L82.0129 119.419L81.3329 116.699C81.3329 116.699 81.0226 116.969 80.4978 117.4L80.6529 118.334C80.6529 118.334 78.0467 123.674 75.7818 124.975C73.5169 126.275 68.4182 137.746 68.4182 137.746C68.4182 137.746 68.8707 129.111 68.6457 128.051C68.4906 127.328 70.4763 123.342 71.7665 120.852C71.6296 120.816 71.4949 120.772 71.3631 120.719L66.9445 128.642L67.7382 136.799Z" fill="black"/>
<path opacity="0.1" d="M46.1696 136.718L47.3434 136.799V133.831L45.7921 133.54C46.3377 134.295 46.3196 135.607 46.1696 136.718Z" fill="black"/>
<path d="M80.4279 115.633C80.4279 115.633 82.2378 115.986 83.4866 118.825C84.4458 121.008 87.6803 123.259 89.1256 124.184C89.4011 124.36 89.6401 124.592 89.8284 124.866C90.0167 125.14 90.1505 125.45 90.2219 125.779C90.514 127.128 90.6252 129.638 89.0377 133.253C86.5452 138.92 84.7328 141.414 84.7328 141.414C84.7328 141.414 84.2803 147.08 84.9603 148.745C85.6403 150.41 84.9603 159.506 84.9603 159.506C84.9603 159.506 73.0669 161.87 69.0981 159.506C65.1293 157.143 65.6982 148.035 65.6982 148.035C65.6982 148.035 61.9595 156.312 60.6073 156.546L61.3829 151.935C61.3829 151.935 65.8016 146.967 66.0369 140.582C66.0369 140.582 67.3968 134.789 66.2644 133.251C66.2644 133.251 61.8457 138.219 56.8608 138.108C51.8759 137.997 45.9835 138.699 45.9835 138.699C45.9835 138.699 47.116 134.921 45.9835 133.496C45.9835 133.496 58.5595 132.905 60.4857 129.719C60.4857 129.719 66.0369 125.107 66.2644 122.033C66.2961 121.455 66.4691 120.894 66.7668 120.405C67.0646 119.916 67.4773 119.514 67.9657 119.238C68.7364 118.781 69.6207 118.575 70.5046 118.647L73.0643 118.83C73.0643 118.83 68.6456 126.985 68.8809 128.048C69.1162 129.111 68.6534 137.744 68.6534 137.744C68.6534 137.744 73.7521 126.273 76.017 124.972C78.2819 123.671 80.8881 118.331 80.8881 118.331L80.4356 115.633" fill="#67647E"/>
<path opacity="0.1" d="M82.9203 128.048C82.9203 128.048 80.2003 137.628 78.6154 138.81C77.0305 139.991 67.3994 146.022 64.5657 144.603C64.5657 144.603 63.8857 148.151 64.9044 148.977C64.9044 148.977 75.4688 148.545 75.5541 148.505C75.5541 148.505 82.4653 147.558 83.5977 144.012C84.7302 140.466 86.0902 134.433 86.0902 134.433L82.9203 128.048Z" fill="black"/>
<path d="M68.418 138.869C68.6365 138.869 68.8136 138.604 68.8136 138.278C68.8136 137.952 68.6365 137.687 68.418 137.687C68.1996 137.687 68.0225 137.952 68.0225 138.278C68.0225 138.604 68.1996 138.869 68.418 138.869Z" fill="#BA7855"/>
<path d="M67.2857 143.008C67.5042 143.008 67.6813 142.744 67.6813 142.417C67.6813 142.091 67.5042 141.826 67.2857 141.826C67.0672 141.826 66.8901 142.091 66.8901 142.417C66.8901 142.744 67.0672 143.008 67.2857 143.008Z" fill="#BA7855"/>
<g opacity="0.1">
<path opacity="0.1" d="M84.1666 159.385C84.1666 159.385 84.8466 150.281 84.1666 148.624C83.4866 146.967 83.939 141.292 83.939 141.292C83.939 141.292 85.7489 138.81 88.2439 133.132C89.8315 129.516 89.7177 127.007 89.4281 125.658C89.3564 125.329 89.2222 125.018 89.0335 124.744C88.8448 124.47 88.6053 124.238 88.3293 124.063C86.884 123.137 83.6495 120.887 82.6928 118.704C81.9896 117.104 81.1079 116.291 80.4693 115.889L80.4253 115.619C80.4253 115.619 82.2352 115.973 83.484 118.812C84.4432 120.995 87.6777 123.245 89.1204 124.171C89.3965 124.346 89.6359 124.578 89.8247 124.852C90.0134 125.126 90.1476 125.436 90.2193 125.765C90.5114 127.115 90.6226 129.624 89.0351 133.24C86.5427 138.907 84.7302 141.4 84.7302 141.4C84.7302 141.4 84.2777 147.067 84.9577 148.732C85.6377 150.397 84.9577 159.493 84.9577 159.493C84.9577 159.493 76.4591 161.182 71.4329 160.278C76.5108 160.907 84.1666 159.385 84.1666 159.385Z" fill="black"/>
<path opacity="0.1" d="M68.8809 128.048C69.036 128.777 68.8809 133.062 68.7542 135.685C68.2061 136.853 67.8622 137.625 67.8622 137.625C67.8622 137.625 68.3147 128.99 68.0897 127.93C67.8751 126.918 71.8542 119.497 72.2498 118.755L73.0746 118.814C73.0746 118.814 68.6456 126.985 68.8809 128.048Z" fill="black"/>
<path opacity="0.1" d="M56.0671 137.981C61.052 138.1 65.4706 133.124 65.4706 133.124C65.6043 133.317 65.7016 133.535 65.7576 133.766C64.4649 135.037 60.8451 138.186 56.8608 138.084C51.8759 137.965 45.9835 138.675 45.9835 138.675C45.9835 138.675 46.0068 138.596 46.043 138.462C49.3732 138.107 52.7198 137.947 56.0671 137.981Z" fill="black"/>
<path opacity="0.1" d="M64.9044 147.914C64.9044 147.914 64.8578 148.653 64.8837 149.762C63.7047 152.191 61.5587 156.379 60.5995 156.546L60.7675 155.575C62.4171 153.413 64.9044 147.914 64.9044 147.914Z" fill="black"/>
</g>
<path d="M66.2152 118.072H39.1318V139.373H66.2152V118.072Z" fill="url(#paint6_linear)"/>
<path d="M65.5146 118.62H39.83V138.823H65.5146V118.62Z" fill="white"/>
<path opacity="0.2" d="M50.9038 120.369H42.3431V125.42H50.9038V120.369Z" fill="#00D1B2"/>
<path d="M63.0015 120.369H52.9515V121.534H63.0015V120.369Z" fill="#E6E8EC"/>
<path d="M60.0255 122.311H52.9515V123.477H60.0255V122.311Z" fill="#E6E8EC"/>
<path d="M63.0015 124.254H52.9515V125.42H63.0015V124.254Z" fill="#E6E8EC"/>
<path d="M63.0041 126.197H42.3431V127.363H63.0041V126.197Z" fill="#E6E8EC"/>
<path d="M63.0041 128.14H42.3431V129.306H63.0041V128.14Z" fill="#E6E8EC"/>
<path d="M63.0041 130.08H42.3431V131.246H63.0041V130.08Z" fill="#E6E8EC"/>
<path d="M61.3286 132.023H42.3431V133.189H61.3286V132.023Z" fill="#E6E8EC"/>
<path d="M63.0041 133.966H42.3431V135.132H63.0041V133.966Z" fill="#E6E8EC"/>
<path d="M63.0041 135.909H42.3431V137.075H63.0041V135.909Z" fill="#E6E8EC"/>
<path d="M61.732 146.732L64.1391 147.272L66.0369 147.679L65.0182 144.711L64.3098 144.525L63.2058 144.239C63.2058 144.239 61.6208 135.968 58.4484 136.562C55.276 137.155 61.732 146.732 61.732 146.732Z" fill="#714B4F"/>
<path opacity="0.1" d="M64.1392 147.261L66.037 147.679L65.0183 144.711L64.3098 144.525C64.1514 145.427 64.0941 146.345 64.1392 147.261Z" fill="black"/>
<path d="M82.9203 127.813C82.9203 127.813 80.2003 137.393 78.6154 138.575C77.0305 139.757 67.3994 145.788 64.5657 144.368C64.5657 144.368 63.8857 147.917 64.9044 148.742C64.9044 148.742 75.4688 148.311 75.5541 148.27C75.5541 148.27 82.4653 147.323 83.5977 143.777C84.7302 140.232 86.0902 134.198 86.0902 134.198L82.9203 127.813Z" fill="#67647E"/>
<path opacity="0.1" d="M79.5204 112.441C79.5204 112.441 79.7505 113.366 80.0582 114.713C79.4296 115.952 78.4276 116.94 77.2069 117.525C75.9863 118.111 74.615 118.26 73.3048 117.951C73.5763 116.737 73.5168 115.522 72.7205 114.559L79.5204 112.441Z" fill="black"/>
<path d="M74.763 117.881C78.1415 117.881 80.8803 115.022 80.8803 111.496C80.8803 107.97 78.1415 105.112 74.763 105.112C71.3845 105.112 68.6456 107.97 68.6456 111.496C68.6456 115.022 71.3845 117.881 74.763 117.881Z" fill="#714B4F"/>
<path opacity="0.1" d="M69.4498 109.737C69.0057 109.865 68.5405 109.895 68.0847 109.823C67.1306 109.618 66.4506 108.606 66.4274 107.589C66.4369 107.079 66.5551 106.578 66.7733 106.122C66.9916 105.666 67.3044 105.266 67.6891 104.952C68.2062 104.502 68.8267 104.181 69.2999 103.679C69.8609 103.082 70.166 102.278 70.5926 101.577C71.3216 100.411 72.4027 99.5338 73.6642 99.0833C74.6028 98.7514 75.7508 98.7136 76.4721 99.426C76.8418 99.7903 77.059 100.316 77.4727 100.624C78.0726 101.069 78.8844 100.937 79.6161 101.026C80.2793 101.133 80.9072 101.408 81.4443 101.828C81.9814 102.247 82.4111 102.799 82.6955 103.433C83.2511 104.718 83.3572 106.166 82.9954 107.524C82.8532 108.104 82.6463 108.668 82.4938 109.246C82.1758 110.449 82.1008 111.712 81.7337 112.899C81.3665 114.087 80.609 115.247 79.4636 115.598C79.5542 114.267 79.3025 112.934 78.7344 111.739C78.6404 111.478 78.4558 111.265 78.2173 111.14C78.0129 111.085 77.7986 111.085 77.5942 111.14C76.1598 111.362 74.6961 111.053 73.4574 110.266C73.023 109.996 72.3456 109.049 71.8802 108.954C71.2933 108.843 70.0704 109.591 69.4498 109.737Z" fill="black"/>
<path d="M69.4498 109.499C69.0057 109.628 68.5405 109.657 68.0847 109.586C67.1306 109.381 66.4506 108.369 66.4274 107.351C66.4369 106.842 66.5551 106.341 66.7733 105.885C66.9916 105.429 67.3044 105.029 67.6891 104.715C68.2062 104.264 68.8267 103.943 69.2999 103.441C69.8609 102.845 70.166 102.041 70.5926 101.339C71.3216 100.174 72.4027 99.2965 73.6642 98.846C74.6028 98.5141 75.7508 98.4763 76.4721 99.1887C76.8418 99.553 77.059 100.079 77.4727 100.387C78.0726 100.832 78.8844 100.7 79.6161 100.789C80.2793 100.895 80.9072 101.171 81.4443 101.59C81.9814 102.01 82.4111 102.562 82.6955 103.196C83.2511 104.481 83.3572 105.928 82.9954 107.287C82.8532 107.867 82.6463 108.431 82.4938 109.008C82.1758 110.212 82.1008 111.475 81.7337 112.662C81.3665 113.849 80.609 115.009 79.4636 115.36C79.5542 114.029 79.3025 112.697 78.7344 111.502C78.6404 111.241 78.4558 111.027 78.2173 110.903C78.0129 110.848 77.7986 110.848 77.5942 110.903C76.1598 111.125 74.6961 110.815 73.4574 110.028C73.023 109.758 72.3456 108.811 71.8802 108.717C71.2933 108.606 70.0704 109.356 69.4498 109.499Z" fill="#503F43"/>
<path d="M22.2794 205.158C22.7533 204.755 23.0986 204.211 23.2697 203.599C23.3989 202.978 23.1456 202.236 22.5767 202.009C21.9407 201.756 21.2607 202.214 20.7462 202.681C20.2317 203.148 19.6396 203.677 18.9648 203.577C19.3116 203.249 19.5711 202.833 19.7179 202.369C19.8647 201.905 19.8938 201.409 19.8025 200.93C19.7733 200.731 19.6929 200.545 19.5698 200.39C19.2156 199.996 18.5769 200.166 18.1529 200.477C16.8084 201.464 16.4335 203.369 16.4258 205.086C16.2913 204.468 16.4051 203.823 16.3999 203.197C16.3948 202.571 16.2293 201.847 15.7173 201.518C15.3999 201.34 15.0434 201.252 14.6831 201.262C14.0781 201.238 13.4059 201.302 12.9922 201.764C12.4751 202.336 12.6121 203.299 13.0594 203.923C13.5067 204.546 14.1841 204.948 14.8098 205.385C15.3113 205.696 15.739 206.121 16.0612 206.629C16.0991 206.699 16.1303 206.774 16.1543 206.85H19.9369C20.7874 206.399 21.5754 205.83 22.2794 205.158Z" fill="#00D1B2"/>
<path d="M246.962 167.65C247.435 167.247 247.781 166.703 247.952 166.091C248.081 165.47 247.828 164.728 247.259 164.501C246.623 164.248 245.943 164.706 245.428 165.173C244.914 165.64 244.322 166.169 243.647 166.069C243.994 165.741 244.253 165.325 244.4 164.861C244.547 164.397 244.576 163.901 244.485 163.422C244.455 163.223 244.375 163.037 244.252 162.882C243.898 162.488 243.259 162.658 242.835 162.969C241.491 163.956 241.116 165.861 241.108 167.577C240.973 166.96 241.087 166.315 241.082 165.689C241.077 165.063 240.911 164.339 240.399 164.01C240.082 163.832 239.726 163.744 239.365 163.754C238.76 163.73 238.088 163.794 237.674 164.256C237.157 164.828 237.294 165.791 237.742 166.414C238.189 167.038 238.866 167.44 239.492 167.877C239.993 168.188 240.421 168.613 240.743 169.121C240.781 169.191 240.812 169.265 240.836 169.342H244.624C245.473 168.891 246.259 168.322 246.962 167.65Z" fill="#00D1B2"/>
<path d="M280.568 86.5358C280.033 84.9006 279.26 82.8282 278.65 82.3398C278.613 82.3085 278.572 82.2822 278.528 82.2615H278.453V80.2404L277.011 80.4806C276.781 79.7505 276.608 79.0025 276.493 78.2436C276.632 78.3888 276.809 78.4878 277.002 78.5282C277.195 78.5685 277.395 78.5484 277.577 78.4703C277.554 78.4298 277.533 78.3866 277.512 78.3434L277.577 78.3137C277.35 77.8957 277.229 77.4236 277.228 76.9429C277.239 76.5039 277.306 76.0684 277.427 75.6477C277.685 74.7167 278.122 73.8479 278.365 72.9115C278.52 72.309 278.594 71.6868 278.583 71.0631C278.591 70.0057 278.36 68.9612 277.91 68.0139C277.796 67.7403 277.619 67.5009 277.393 67.3177C277.19 67.2001 276.981 67.0938 276.768 66.9993C276.409 66.7472 276.1 66.4257 275.857 66.0521C274.833 64.7494 273.46 63.7934 271.914 63.3051C271.511 63.1481 271.074 63.1116 270.653 63.1999C269.683 63.4697 269.332 64.7245 268.546 65.3829C267.853 65.9631 266.901 66.0224 266.03 66.2167C265.158 66.411 264.282 66.7969 263.687 67.4985C263.278 67.9875 263.054 68.6164 263.059 69.2659C263.035 69.5694 263.086 69.8741 263.208 70.151C263.329 70.4279 263.516 70.6676 263.752 70.8472C264.02 71.0308 264.324 71.1502 264.642 71.1969C264.96 71.2435 265.284 71.2163 265.59 71.1171C265.351 71.9808 265.285 72.8869 265.396 73.7785C265.508 74.67 265.795 75.5279 266.24 76.2982C266.685 77.0684 267.277 77.7345 267.98 78.2546C268.683 78.7746 269.481 79.1374 270.324 79.3203L270.492 79.636C271.012 80.6456 271.406 81.7201 271.666 82.8336C270.337 83.6188 268.887 84.3555 268.01 84.4257C267.975 84.7832 267.911 85.1371 267.819 85.4835C267.614 86.3522 267.22 87.16 266.668 87.8446C265.477 89.2424 260.117 99.8094 260.117 99.8094C260.117 99.8094 259.949 100.23 259.672 100.948C256.344 101.374 250.912 101.99 249.397 101.674L243.45 95.7698C243.45 95.7698 241.527 97.3025 241.695 99.1645L240.622 98.1013C240.622 98.1013 234.965 102.608 243.898 105.56L257.49 107.206C256.197 111.283 254.987 116.03 255.362 118.612H255.473C255.733 118.612 255.992 118.591 256.249 118.55L256.225 119.009L254.917 143.473C254.917 143.473 254.62 147.979 258.64 149.997C258.64 149.997 263.553 165.068 261.619 166.779C261.619 166.779 261.849 166.906 262.237 167.081L258.196 170.818C258.196 170.818 255.217 171.596 253.581 171.439C253.293 171.398 253.001 171.469 252.76 171.638C252.519 171.807 252.346 172.063 252.275 172.356C252.275 172.389 252.275 172.421 252.259 172.454V172.494C252.259 172.526 252.259 172.559 252.259 172.594C252.259 172.629 252.259 172.618 252.259 172.632C252.259 172.645 252.259 172.688 252.259 172.718C252.259 172.748 252.259 172.742 252.259 172.753C252.259 172.764 252.259 172.821 252.277 172.853V172.891C252.286 172.927 252.297 172.963 252.311 172.999L252.324 173.031C252.337 173.066 252.352 173.101 252.37 173.136V173.161C252.389 173.196 252.409 173.228 252.43 173.263L252.448 173.293C252.472 173.329 252.499 173.365 252.528 173.401L252.551 173.428C252.582 173.466 252.616 173.501 252.65 173.536L252.665 173.549L252.776 173.649L252.8 173.668C252.841 173.703 252.888 173.735 252.934 173.768L252.965 173.789C253.014 173.822 253.066 173.854 253.12 173.884H253.144L253.312 173.97H253.335L253.531 174.051L253.573 174.067L253.787 174.14H253.824L254.059 174.205H254.077L254.335 174.259H254.387L254.666 174.302H254.721L255.036 174.334C255.649 174.383 256.474 174.402 257.428 174.396C257.428 174.396 257.428 174.421 257.428 174.434C257.428 174.448 257.428 174.491 257.428 174.521V174.556C257.428 174.588 257.428 174.623 257.446 174.656V174.693C257.455 174.729 257.466 174.765 257.479 174.801L257.492 174.834C257.505 174.869 257.521 174.904 257.539 174.939V174.963C257.557 174.998 257.578 175.031 257.598 175.066L257.617 175.095C257.641 175.131 257.667 175.167 257.697 175.203L257.72 175.23C257.751 175.268 257.785 175.303 257.818 175.338L257.834 175.352L257.945 175.452L257.968 175.47C258.01 175.506 258.056 175.538 258.103 175.57L258.136 175.592C258.185 175.624 258.237 175.657 258.291 175.686H258.315L258.483 175.773H258.506L258.702 175.854L258.744 175.87L258.958 175.943H258.995L259.23 176.007H259.248L259.507 176.061H259.558L259.837 176.105H259.892L260.207 176.137C264.085 176.447 276.434 175.516 276.434 175.516V175.481V175.435C276.555 174.834 277.15 171.336 275.04 168.751C275.102 168.684 275.164 168.611 275.221 168.536C275.221 168.536 273.585 165.583 274.477 164.65C275.369 163.716 270.012 147.558 270.012 147.558C270.012 147.558 267.183 142.898 268.82 137.614C270.456 132.331 268.67 126.583 268.67 126.583C268.67 126.583 272.574 125.372 272.654 120.355C272.654 120.204 272.654 120.048 272.654 119.888C272.74 119.901 272.826 119.907 272.912 119.905C272.968 119.909 273.023 119.909 273.078 119.905C273.078 119.905 272.333 117.109 273.228 115.088C274.122 113.067 276.056 114.931 277.843 106.698C279.136 100.74 280.273 93.8863 280.804 90.5511C281.034 89.2123 280.953 87.8353 280.568 86.5358ZM246.592 104.014L245.234 102.664C245.684 102.859 246.183 103.05 246.742 103.234L251.861 103.854C249.576 104.076 247.453 104.194 246.592 104.016V104.014Z" fill="url(#paint7_linear)"/>
<path d="M259.55 103.223C259.55 103.223 249.02 104.75 246.824 104.302L240.973 98.5005C240.973 98.5005 235.414 102.929 244.192 105.827L260.574 107.81L259.55 103.223Z" fill="#FDC2CC"/>
<path opacity="0.05" d="M259.55 103.223C259.55 103.223 249.02 104.75 246.824 104.302L240.973 98.5005C240.973 98.5005 235.414 102.929 244.192 105.827L260.574 107.81L259.55 103.223Z" fill="black"/>
<path d="M263.354 165.2L258.234 169.933C258.234 169.933 255.31 170.697 253.699 170.543C252.089 170.389 251.36 173.139 255.163 173.444C258.966 173.749 271.105 172.834 271.105 172.834C271.105 172.834 272.276 167.95 268.765 165.2H263.354Z" fill="#47465A"/>
<path opacity="0.05" d="M263.354 165.2L258.234 169.933C258.234 169.933 255.31 170.697 253.699 170.543C252.089 170.389 251.36 173.139 255.163 173.444C258.966 173.749 271.105 172.834 271.105 172.834C271.105 172.834 272.276 167.95 268.765 165.2H263.354Z" fill="black"/>
<path opacity="0.3" d="M271.289 170.718C271.28 171.275 271.219 171.829 271.105 172.372C271.105 172.372 258.953 173.287 255.163 172.982C253.335 172.837 252.557 172.124 252.417 171.442C252.252 172.224 252.913 173.26 255.163 173.441C258.966 173.746 271.105 172.831 271.105 172.831C271.248 172.137 271.309 171.428 271.289 170.718Z" fill="white"/>
<path d="M269.35 78.6454C269.35 78.6454 272.569 83.3784 271.397 86.5842C270.226 89.7899 277.533 83.2246 277.533 83.2246C277.533 83.2246 275.193 78.9503 276.362 74.3711L269.35 78.6454Z" fill="#FDC2CC"/>
<path d="M268.484 167.03L263.364 171.763C263.364 171.763 260.44 172.526 258.829 172.373C257.218 172.219 256.489 174.968 260.293 175.273C264.096 175.578 276.235 174.664 276.235 174.664C276.235 174.664 277.406 169.779 273.895 167.03H268.484Z" fill="#47465A"/>
<path d="M269.936 165.961C269.174 166.943 268.098 167.31 266.973 167.378C264.416 167.505 261.601 165.961 261.601 165.961C263.501 164.283 258.677 149.474 258.677 149.474C254.728 147.49 255.021 143.062 255.021 143.062L256.313 119.028L256.637 112.991L260.732 110.395L263.961 112.98L267.023 115.433C267.222 116.213 267.35 117.011 267.405 117.816C267.759 123.426 263.511 124.745 263.511 124.745C263.511 124.745 265.267 130.393 263.659 135.582C262.051 140.771 264.83 145.351 264.83 145.351C264.83 145.351 270.097 161.225 269.225 162.143C268.354 163.06 269.936 165.961 269.936 165.961Z" fill="#565171"/>
<path opacity="0.05" d="M269.936 165.961C269.174 166.943 268.098 167.31 266.973 167.378C264.416 167.505 261.601 165.961 261.601 165.961C263.501 164.283 258.677 149.474 258.677 149.474C254.728 147.49 255.021 143.062 255.021 143.062L256.313 119.028L256.637 112.991L260.732 110.395L263.961 112.98L267.023 115.433C267.222 116.213 267.35 117.011 267.405 117.816C267.759 123.426 263.511 124.745 263.511 124.745C263.511 124.745 265.267 130.393 263.659 135.582C262.051 140.771 264.83 145.351 264.83 145.351C264.83 145.351 270.097 161.225 269.225 162.143C268.354 163.06 269.936 165.961 269.936 165.961Z" fill="black"/>
<path d="M275.056 167.793C272.569 170.999 266.72 167.793 266.72 167.793C266.839 167.68 266.928 167.537 266.979 167.378C268.052 164.334 263.359 149.781 263.359 149.781C259.411 147.798 258.964 143.065 258.964 143.065L257.929 118.604L257.795 115.436L263.948 112.983L265.838 112.23L272.129 117.268C272.401 118.308 272.537 119.382 272.532 120.46C272.452 125.39 268.618 126.58 268.618 126.58C268.618 126.58 270.373 132.228 268.765 137.417C267.157 142.606 269.937 147.185 269.937 147.185C269.937 147.185 275.203 163.06 274.332 163.978C273.461 164.895 275.056 167.793 275.056 167.793Z" fill="#565171"/>
<path opacity="0.1" d="M272.532 120.458C271.268 120.269 268.708 118.679 267.392 117.816C266.891 117.487 266.57 117.276 266.57 117.276C266.57 117.276 265.254 113.461 261.743 116.361C260.601 117.329 259.312 118.09 257.929 118.612C257.4 118.807 256.855 118.95 256.3 119.038L256.624 113.002L260.719 110.406L263.948 112.991L265.838 112.238L272.129 117.276C272.4 118.313 272.536 119.383 272.532 120.458Z" fill="black"/>
<path d="M280.449 91.1743C279.932 94.4502 278.81 101.183 277.54 107.038C275.785 115.134 273.885 113.296 273.005 115.282C272.126 117.268 272.858 120.015 272.858 120.015C271.395 120.169 266.568 116.809 266.568 116.809C266.568 116.809 265.251 112.994 261.74 115.895C258.229 118.795 255.45 118.642 255.45 118.642C254.718 113.604 260.13 100.171 260.13 100.171C260.13 100.171 265.396 89.79 266.565 88.4165C267.107 87.7437 267.494 86.9496 267.695 86.0959C267.785 85.7556 267.847 85.4081 267.881 85.057C269.781 84.9032 274.464 81.549 274.464 81.549L278.12 80.9392V82.9226C278.162 82.9425 278.202 82.9679 278.239 82.9981C278.841 83.4784 279.599 85.5157 280.123 87.1213C280.55 88.4238 280.662 89.8159 280.449 91.1743Z" fill="#F68080"/>
<path opacity="0.1" d="M277.533 84.9058C277.533 84.9058 273.729 81.7001 268.026 92.0809C262.322 102.462 261.006 100.781 261.006 100.781C261.006 100.781 262.177 105.368 261.59 106.277C261.59 106.277 265.539 105.972 267.002 106.277C268.465 106.582 277.533 94.6822 277.533 94.6822C277.533 94.6822 282.223 87.9577 277.533 84.9058Z" fill="black"/>
<path opacity="0.1" d="M277.396 84.2933C277.396 84.2933 273.592 81.0875 267.889 91.4684C262.185 101.849 260.869 100.168 260.869 100.168C260.869 100.168 265.404 105.357 266.865 105.665C268.326 105.972 277.396 94.0616 277.396 94.0616C277.396 94.0616 282.076 87.3479 277.396 84.2933Z" fill="black"/>
<path opacity="0.1" d="M261.464 105.284C261.523 104.154 261.115 102.165 260.879 101.134C261.769 101.013 262.33 100.932 262.33 100.932L263.364 105.519L261.464 105.284Z" fill="black"/>
<path opacity="0.1" d="M276.517 74.679L269.497 78.9533C269.793 79.404 270.065 79.8706 270.314 80.351C270.719 80.4371 271.131 80.4805 271.545 80.4806C273.419 80.4806 274.293 78.4271 275.423 77.0455C275.343 75.9364 276.204 75.9067 276.517 74.679Z" fill="black"/>
<path d="M271.4 80.1728C274.793 80.1728 277.543 77.3023 277.543 73.7613C277.543 70.2204 274.793 67.3499 271.4 67.3499C268.007 67.3499 265.257 70.2204 265.257 73.7613C265.257 77.3023 268.007 80.1728 271.4 80.1728Z" fill="#FDC2CC"/>
<path d="M261.906 81.0688H212.432V119.98H261.906V81.0688Z" fill="url(#paint8_linear)"/>
<path d="M260.797 81.9404H213.541V119.109H260.797V81.9404Z" fill="white"/>
<path opacity="0.2" d="M233.915 85.1567H218.164V94.4474H233.915V85.1567Z" fill="#00D1B2"/>
<path d="M256.174 85.1567H237.682V87.302H256.174V85.1567Z" fill="#E6E8EC"/>
<path d="M250.695 88.7322H237.682V90.8774H250.695V88.7322Z" fill="#E6E8EC"/>
<path d="M256.174 92.3049H237.682V94.4502H256.174V92.3049Z" fill="#E6E8EC"/>
<path d="M256.174 95.8777H218.164V98.0229H256.174V95.8777Z" fill="#E6E8EC"/>
<path d="M256.174 99.4531H218.164V101.598H256.174V99.4531Z" fill="#E6E8EC"/>
<path d="M256.174 103.026H218.164V105.171H256.174V103.026Z" fill="#E6E8EC"/>
<path d="M253.092 106.601H218.164V108.746H253.092V106.601Z" fill="#E6E8EC"/>
<path d="M256.174 110.174H218.164V112.319H256.174V110.174Z" fill="#E6E8EC"/>
<path d="M256.174 113.747H218.164V115.892H256.174V113.747Z" fill="#E6E8EC"/>
<path opacity="0.1" d="M263.628 68.575C264.248 67.9116 265.054 67.4704 265.929 67.3149C266.782 67.1233 267.718 67.0639 268.401 66.5053C269.176 65.8604 269.518 64.6353 270.469 64.3628C270.883 64.276 271.312 64.3115 271.708 64.4653C273.228 64.944 274.578 65.8832 275.586 67.1638C275.823 67.5307 276.126 67.8467 276.478 68.0947C276.688 68.1876 276.894 68.2921 277.093 68.4077C277.312 68.5881 277.485 68.8228 277.595 69.0904C278.281 70.5358 278.439 72.1924 278.04 73.7506C277.802 74.6708 277.372 75.5235 277.119 76.449C276.866 77.3746 276.801 78.4027 277.266 79.2203C276.817 79.4605 276.248 79.1582 275.974 78.7211C275.7 78.2839 275.607 77.7443 275.457 77.2396C275.164 76.2471 274.616 75.3575 273.872 74.6681C273.411 74.2417 272.579 73.9557 272.266 74.5062C272.142 74.7193 272.15 74.9892 272.044 75.2104C271.834 75.6422 271.229 75.7285 270.828 75.4803C270.442 75.202 270.171 74.7818 270.068 74.3038C269.466 72.1774 268.439 70.839 266.26 71.7484C265.448 72.0884 264.491 72.3177 263.711 71.7349C262.692 70.9658 262.891 69.4439 263.628 68.575Z" fill="black"/>
<path d="M263.628 68.4212C264.248 67.7578 265.054 67.3166 265.929 67.1611C266.782 66.9695 267.718 66.9101 268.401 66.3515C269.176 65.7066 269.518 64.4815 270.469 64.209C270.883 64.1222 271.312 64.1577 271.708 64.3115C273.228 64.7902 274.578 65.7294 275.586 67.01C275.823 67.3769 276.126 67.6929 276.478 67.9409C276.688 68.0338 276.894 68.1383 277.093 68.2539C277.312 68.4343 277.485 68.669 277.595 68.9366C278.281 70.382 278.439 72.0386 278.04 73.5968C277.802 74.517 277.372 75.3697 277.119 76.2952C276.866 77.2208 276.801 78.2489 277.266 79.0665C276.817 79.3067 276.248 79.0044 275.974 78.5673C275.7 78.1301 275.607 77.5905 275.457 77.0859C275.164 76.0933 274.616 75.2037 273.872 74.5143C273.411 74.0879 272.579 73.8019 272.266 74.3524C272.142 74.5655 272.15 74.8354 272.044 75.0566C271.834 75.4884 271.229 75.5747 270.828 75.3265C270.442 75.0482 270.171 74.628 270.068 74.15C269.466 72.0236 268.439 70.6852 266.26 71.5946C265.448 71.9346 264.491 72.1639 263.711 71.5811C262.692 70.812 262.891 69.2928 263.628 68.4212Z" fill="#B96B6B"/>
<path opacity="0.05" d="M278.247 82.9981H275.273C275.273 82.9981 269.422 86.05 269.277 85.8989C269.179 85.7964 268.274 85.9718 267.7 86.0986C267.79 85.7583 267.852 85.4108 267.886 85.0597C269.787 84.9059 274.469 81.5517 274.469 81.5517L278.125 80.9419V82.9252C278.168 82.9441 278.209 82.9686 278.247 82.9981Z" fill="black"/>
<path opacity="0.3" d="M276.408 172.551C276.399 173.107 276.338 173.661 276.225 174.205C276.225 174.205 264.073 175.12 260.282 174.815C258.454 174.669 257.676 173.957 257.536 173.274C257.371 174.056 258.033 175.093 260.282 175.273C264.085 175.578 276.225 174.663 276.225 174.663C276.367 173.969 276.429 173.26 276.408 172.551Z" fill="white"/>
<g opacity="0.05">
<path opacity="0.05" d="M260.355 115.73C258.382 117.349 256.637 118.026 255.491 118.296C255.491 118.409 255.512 118.523 255.527 118.631C255.527 118.631 258.307 118.785 261.818 115.884C262.362 115.397 263.005 115.047 263.698 114.858C262.932 114.489 261.839 114.513 260.355 115.73Z" fill="black"/>
<path opacity="0.05" d="M280.206 87.1267C279.689 85.5077 278.913 83.4839 278.321 83.0035C278.285 82.9733 278.245 82.9479 278.202 82.928C278.202 82.928 276.992 82.9712 277.031 83.0035C277.634 83.4839 278.218 85.3674 278.743 86.9729C279.166 88.2744 279.275 89.6646 279.061 91.0205C278.544 94.2964 277.422 101.029 276.152 106.885C274.397 114.98 272.496 113.142 271.617 115.128C270.898 116.747 271.258 118.89 271.413 119.61C272.039 119.88 272.582 120.05 272.933 120.012C272.933 120.012 272.201 117.265 273.081 115.279C273.96 113.293 275.86 115.126 277.616 107.036C278.885 101.183 280.002 94.4475 280.524 91.1717C280.738 89.8165 280.629 88.4273 280.206 87.1267Z" fill="black"/>
</g>
<path d="M263.354 105.514L261.464 105.284L246.985 103.528C238.209 100.627 243.766 96.2014 243.766 96.2014L249.617 102.003C251.305 102.357 257.924 101.534 260.89 101.137C261.779 101.015 262.34 100.934 262.34 100.934L263.354 105.514Z" fill="#FDC2CC"/>
<path d="M277.533 84.6011C277.533 84.6011 273.729 81.3954 268.026 91.7762C262.322 102.157 261.006 100.476 261.006 100.476C261.006 100.476 262.177 105.063 261.59 105.973C261.59 105.973 265.539 105.668 267.002 105.973C268.465 106.278 277.533 94.3694 277.533 94.3694C277.533 94.3694 282.223 87.653 277.533 84.6011Z" fill="#F68080"/>
</g>
<defs>
<linearGradient id="paint0_linear" x1="163.144" y1="161.161" x2="163.144" y2="30.4546" gradientUnits="userSpaceOnUse">
<stop stop-color="#808080" stop-opacity="0.25"/>
<stop offset="0.54" stop-color="#808080" stop-opacity="0.12"/>
<stop offset="1" stop-color="#808080" stop-opacity="0.1"/>
</linearGradient>
<linearGradient id="paint1_linear" x1="30896.9" y1="89896.4" x2="30896.9" y2="37094.2" gradientUnits="userSpaceOnUse">
<stop stop-color="#808080" stop-opacity="0.25"/>
<stop offset="0.54" stop-color="#808080" stop-opacity="0.12"/>
<stop offset="1" stop-color="#808080" stop-opacity="0.1"/>
</linearGradient>
<linearGradient id="paint2_linear" x1="9496.7" y1="73633.4" x2="9496.7" y2="41390.6" gradientUnits="userSpaceOnUse">
<stop stop-color="#808080" stop-opacity="0.25"/>
<stop offset="0.54" stop-color="#808080" stop-opacity="0.12"/>
<stop offset="1" stop-color="#808080" stop-opacity="0.1"/>
</linearGradient>
<linearGradient id="paint3_linear" x1="33053.5" y1="41760.7" x2="33053.5" y2="31698.7" gradientUnits="userSpaceOnUse">
<stop stop-color="#808080" stop-opacity="0.25"/>
<stop offset="0.54" stop-color="#808080" stop-opacity="0.12"/>
<stop offset="1" stop-color="#808080" stop-opacity="0.1"/>
</linearGradient>
<linearGradient id="paint4_linear" x1="9091.22" y1="11728.9" x2="11228.1" y2="11728.9" gradientUnits="userSpaceOnUse">
<stop stop-color="#808080" stop-opacity="0.25"/>
<stop offset="0.54" stop-color="#808080" stop-opacity="0.12"/>
<stop offset="1" stop-color="#808080" stop-opacity="0.1"/>
</linearGradient>
<linearGradient id="paint5_linear" x1="-29012.2" y1="97859.8" x2="-29012.2" y2="48198.8" gradientUnits="userSpaceOnUse">
<stop stop-color="#808080" stop-opacity="0.25"/>
<stop offset="0.54" stop-color="#808080" stop-opacity="0.12"/>
<stop offset="1" stop-color="#808080" stop-opacity="0.1"/>
</linearGradient>
<linearGradient id="paint6_linear" x1="5556.56" y1="11120.2" x2="5556.56" y2="9438.68" gradientUnits="userSpaceOnUse">
<stop stop-color="#808080" stop-opacity="0.25"/>
<stop offset="0.54" stop-color="#808080" stop-opacity="0.12"/>
<stop offset="1" stop-color="#808080" stop-opacity="0.1"/>
</linearGradient>
<linearGradient id="paint7_linear" x1="44921.6" y1="80166.3" x2="44921.6" y2="32750.8" gradientUnits="userSpaceOnUse">
<stop stop-color="#808080" stop-opacity="0.25"/>
<stop offset="0.54" stop-color="#808080" stop-opacity="0.12"/>
<stop offset="1" stop-color="#808080" stop-opacity="0.1"/>
</linearGradient>
<linearGradient id="paint8_linear" x1="45594.9" y1="17382.2" x2="45594.9" y2="11771.2" gradientUnits="userSpaceOnUse">
<stop stop-color="#808080" stop-opacity="0.25"/>
<stop offset="0.54" stop-color="#808080" stop-opacity="0.12"/>
<stop offset="1" stop-color="#808080" stop-opacity="0.1"/>
</linearGradient>
<clipPath id="clip0">
<rect width="281" height="213" fill="white"/>
</clipPath>
</defs>
</svg>
