<svg width="22" height="21" viewBox="0 0 22 21" fill="none" xmlns="http://www.w3.org/2000/svg">
<path d="M0.785714 4.44531H21.2143C21.6482 4.44531 22 4.09556 22 3.66406V1.71094C22 1.27944 21.6482 0.929688 21.2143 0.929688H0.785714C0.351754 0.929688 0 1.27944 0 1.71094V3.66406C0 4.09556 0.351754 4.44531 0.785714 4.44531ZM0.785714 12.2578H21.2143C21.6482 12.2578 22 11.9081 22 11.4766V9.52344C22 9.09194 21.6482 8.74219 21.2143 8.74219H0.785714C0.351754 8.74219 0 9.09194 0 9.52344V11.4766C0 11.9081 0.351754 12.2578 0.785714 12.2578ZM0.785714 20.0703H21.2143C21.6482 20.0703 22 19.7206 22 19.2891V17.3359C22 16.9044 21.6482 16.5547 21.2143 16.5547H0.785714C0.351754 16.5547 0 16.9044 0 17.3359V19.2891C0 19.7206 0.351754 20.0703 0.785714 20.0703Z" fill="#7A7A7A"/>
</svg>
