<svg width="20" height="20" viewBox="0 0 20 20" fill="none" xmlns="http://www.w3.org/2000/svg">
<path d="M10 1.40625C7.7208 1.40625 5.53494 2.31166 3.9233 3.9233C2.31166 5.53494 1.40625 7.7208 1.40625 10C1.40625 12.2792 2.31166 14.4651 3.9233 16.0767C5.53494 17.6883 7.7208 18.5938 10 18.5938C12.2792 18.5938 14.4651 17.6883 16.0767 16.0767C17.6883 14.4651 18.5938 12.2792 18.5938 10C18.5938 7.7208 17.6883 5.53494 16.0767 3.9233C14.4651 2.31166 12.2792 1.40625 10 1.40625Z" fill="#F7F7FB"/>
<path d="M10 1.40625C5.25 1.40625 1.40625 5.25 1.40625 10C1.40625 14.75 5.25 18.5938 10 18.5938C14.75 18.5938 18.5938 14.75 18.5938 10C18.5938 5.25 14.75 1.40625 10 1.40625ZM10 16.4375C6.4375 16.4375 3.5625 13.5469 3.5625 10C3.5625 6.45312 6.4375 3.5625 10 3.5625C13.5625 3.5625 16.4375 6.45312 16.4375 10C16.4375 13.5469 13.5625 16.4375 10 16.4375Z" fill="#DEDFE6"/>
<path d="M10 9.28125C9.90561 9.28125 9.81215 9.29984 9.72495 9.33596C9.63774 9.37208 9.55851 9.42502 9.49177 9.49177C9.42502 9.55851 9.37208 9.63774 9.33596 9.72495C9.29984 9.81215 9.28125 9.90561 9.28125 10C9.28125 10.0944 9.29984 10.1879 9.33596 10.2751C9.37208 10.3623 9.42502 10.4415 9.49177 10.5082C9.55851 10.575 9.63774 10.6279 9.72495 10.664C9.81215 10.7002 9.90561 10.7187 10 10.7187C10.0944 10.7187 10.1879 10.7002 10.2751 10.664C10.3623 10.6279 10.4415 10.575 10.5082 10.5082C10.575 10.4415 10.6279 10.3623 10.664 10.2751C10.7002 10.1879 10.7187 10.0944 10.7187 10C10.7187 9.90561 10.7002 9.81215 10.664 9.72495C10.6279 9.63774 10.575 9.55851 10.5082 9.49177C10.4415 9.42502 10.3623 9.37208 10.2751 9.33596C10.1879 9.29984 10.0944 9.28125 10 9.28125Z" fill="#D8D7D5"/>
<path d="M10 19.0625C5 19.0625 0.9375 15 0.9375 10C0.9375 5 5 0.9375 10 0.9375C15 0.9375 19.0625 5 19.0625 10C19.0625 15 15 19.0625 10 19.0625ZM10 1.875C5.51562 1.875 1.875 5.51562 1.875 10C1.875 14.4844 5.51562 18.125 10 18.125C14.4844 18.125 18.125 14.4844 18.125 10C18.125 5.51562 14.4844 1.875 10 1.875Z" fill="#464C55"/>
<path d="M10.0156 10.4844C9.89062 10.4844 9.78125 10.4375 9.6875 10.3437C9.59375 10.25 9.54687 10.1406 9.54687 10.0156L9.53125 5.70312C9.53125 5.4375 9.73437 5.23438 10 5.23438C10.2656 5.23438 10.4687 5.4375 10.4687 5.70312L10.4844 9.54688L12.8594 9.53125C13.1094 9.53125 13.3281 9.73438 13.3281 10C13.3281 10.2656 13.125 10.4688 12.8594 10.4688L10.0156 10.4844Z" fill="#464C55"/>
<path d="M10 11.1875C9.34375 11.1875 8.8125 10.6563 8.8125 10C8.8125 9.34375 9.34375 8.8125 10 8.8125C10.6563 8.8125 11.1875 9.34375 11.1875 10C11.1875 10.6563 10.6563 11.1875 10 11.1875ZM10 9.75C9.85938 9.75 9.75 9.85938 9.75 10C9.75 10.1406 9.85938 10.25 10 10.25C10.1406 10.25 10.25 10.1406 10.25 10C10.25 9.85938 10.1406 9.75 10 9.75Z" fill="#464C55"/>
</svg>
