<svg width="24" height="24" viewBox="0 0 24 24" fill="none" xmlns="http://www.w3.org/2000/svg">
<path d="M20.0438 10.3687C19.8938 9.84375 19.7062 9.35625 19.4437 8.8875L21.0938 7.2375L18.7125 4.875L17.0625 6.525C16.1438 6 15.0937 5.71875 14.0062 5.7L13.4062 3.45L10.1625 4.3125L10.7625 6.5625C9.825 7.10625 9.05625 7.89375 8.53125 8.79375L6.28125 8.19375L5.4375 11.4562L7.6875 12.0562C7.6875 12.5812 7.7625 13.1062 7.89375 13.6312C8.04375 14.1562 8.23125 14.6437 8.49375 15.1125L6.84375 16.7625L9.225 19.125L10.875 17.475C11.7937 18 12.8438 18.2812 13.9313 18.3L14.5312 20.55L17.775 19.6875L17.175 17.4375C18.1125 16.8937 18.8813 16.1062 19.4062 15.2062L21.6562 15.8062L22.5187 12.5625L20.2687 11.9625C20.2687 11.4187 20.1938 10.8937 20.0438 10.3687ZM14.7375 14.8312C13.1625 15.2437 11.5688 14.325 11.1375 12.75C10.7063 11.175 11.6438 9.58125 13.2188 9.15C14.7937 8.7375 16.3875 9.65625 16.8187 11.2312C17.2312 12.8062 16.2937 14.4187 14.7375 14.8312Z" fill="#CADBEA"/>
<path d="M18.1688 10.3687C18.0188 9.84375 17.8312 9.35625 17.5687 8.8875L19.2188 7.2375L16.8375 4.875L15.1875 6.525C14.2688 6 13.2187 5.71875 12.1312 5.7L11.5312 3.45L8.2875 4.3125L8.8875 6.5625C7.95 7.10625 7.18125 7.89375 6.65625 8.79375L4.40625 8.19375L3.5625 11.4562L5.8125 12.0562C5.8125 12.5812 5.8875 13.1062 6.01875 13.6312C6.16875 14.1562 6.35625 14.6437 6.61875 15.1125L4.96875 16.7625L7.35 19.125L9 17.475C9.91875 18 10.9688 18.2812 12.0563 18.3L12.6562 20.55L15.9 19.6875L15.3 17.4375C16.2375 16.8937 17.0063 16.1062 17.5312 15.2062L19.7812 15.8062L20.6437 12.5625L18.3937 11.9625C18.3937 11.4187 18.3188 10.8937 18.1688 10.3687ZM12.8625 14.8312C11.2875 15.2437 9.69375 14.325 9.2625 12.75C8.83125 11.175 9.76875 9.58125 11.3438 9.15C12.9187 8.7375 14.5125 9.65625 14.9437 11.2312C15.3562 12.8062 14.4187 14.4187 12.8625 14.8312Z" fill="white"/>
<path d="M12.6562 21.0938C12.4125 21.0938 12.1875 20.925 12.1125 20.6813L11.625 18.8438C10.7625 18.7875 9.9 18.5438 9.1125 18.1688L7.7625 19.5188C7.5375 19.7438 7.18125 19.7438 6.975 19.5188L4.575 17.1375C4.35 16.9125 4.35 16.5563 4.575 16.35L5.925 15C5.7375 14.6063 5.5875 14.1938 5.475 13.7813C5.3625 13.35 5.2875 12.9188 5.25 12.4875L3.4125 12C3.2625 11.9625 3.15 11.8688 3.075 11.7375C3 11.6063 2.98125 11.4563 3.01875 11.3063L3.88125 8.06251C3.91875 7.91251 4.0125 7.80001 4.14375 7.72501C4.275 7.65001 4.425 7.63126 4.575 7.66876L6.4125 8.15626C6.9 7.42501 7.51875 6.80626 8.25 6.31876L7.7625 4.48126C7.6875 4.18126 7.85625 3.88126 8.15625 3.78751L11.4 2.92501C11.7 2.85001 12 3.01876 12.0937 3.31876L12.5812 5.15626C13.4437 5.21251 14.3062 5.45626 15.0937 5.83126L16.4437 4.48126C16.65 4.27501 17.025 4.27501 17.2312 4.48126L19.6125 6.86251C19.8375 7.08751 19.8375 7.44376 19.6125 7.65001L18.2625 9.00001C18.45 9.39376 18.6 9.80626 18.7125 10.2188C18.825 10.65 18.9 11.0813 18.9375 11.5125L20.775 12C21.075 12.075 21.2437 12.3938 21.1687 12.6938L20.3062 15.9375C20.2687 16.0875 20.175 16.2 20.0437 16.275C19.9125 16.35 19.7625 16.3688 19.6125 16.3313L17.775 15.8438C17.2875 16.575 16.6687 17.1938 15.9375 17.6813L16.425 19.5188C16.5 19.8188 16.3312 20.1188 16.0312 20.2125L12.7875 21.075C12.75 21.0938 12.6937 21.0938 12.6562 21.0938ZM9 16.9125C9.09375 16.9125 9.1875 16.9313 9.28125 16.9875C10.125 17.475 11.0812 17.7188 12.0562 17.7375C12.3 17.7375 12.525 17.9063 12.6 18.15L13.05 19.8563L15.2062 19.275L14.7562 17.5688C14.7 17.325 14.7937 17.0625 15.0187 16.9313C15.8625 16.4438 16.5562 15.7313 17.0437 14.9063C17.175 14.6813 17.4375 14.5875 17.6812 14.6438L19.3875 15.0938L19.9687 12.9375L18.2625 12.4875C18.0187 12.4313 17.85 12.2063 17.85 11.9438C17.85 11.4563 17.775 10.9688 17.6625 10.5C17.5312 10.0313 17.3437 9.58126 17.1187 9.15001C16.9875 8.92501 17.025 8.66251 17.2125 8.47501L18.45 7.23751L16.875 5.66251L15.6375 6.90001C15.45 7.08751 15.1875 7.12501 14.9625 6.99376C14.1187 6.50626 13.1625 6.26251 12.1875 6.24376C11.9437 6.24376 11.7187 6.07501 11.6437 5.83126L11.1937 4.12501L9 4.72501L9.45 6.43126C9.50625 6.67501 9.4125 6.93751 9.1875 7.06876C8.34375 7.55626 7.65 8.26876 7.1625 9.09376C7.03125 9.31876 6.76875 9.41251 6.525 9.35626L4.81875 8.90626L4.2375 11.0625L5.94375 11.5125C6.1875 11.5688 6.35625 11.7938 6.35625 12.0563C6.35625 12.5438 6.43125 13.0313 6.54375 13.5C6.675 13.9688 6.8625 14.4188 7.0875 14.85C7.21875 15.075 7.18125 15.3375 6.99375 15.525L5.75625 16.7625L7.33125 18.3375L8.5875 17.1C8.7 16.9688 8.85 16.9125 9 16.9125ZM12.0937 15.5063C11.4937 15.5063 10.8937 15.3563 10.35 15.0375C9.54375 14.5688 8.9625 13.8188 8.71875 12.9188C8.475 12.0188 8.60625 11.0813 9.075 10.2563C9.54375 9.45001 10.2937 8.86876 11.1937 8.62501C13.05 8.11876 14.9812 9.24376 15.4875 11.1C15.7312 12 15.6 12.9375 15.1312 13.7625C14.6625 14.5688 13.9125 15.15 13.0125 15.3938C12.6937 15.4688 12.3937 15.5063 12.0937 15.5063ZM12.0937 9.61876C11.8875 9.61876 11.6812 9.63751 11.475 9.69376C10.8562 9.86251 10.35 10.2563 10.0312 10.8C9.7125 11.3438 9.6375 11.9813 9.7875 12.6C9.95625 13.2188 10.35 13.725 10.8937 14.0438C11.4375 14.3625 12.075 14.4375 12.6937 14.2875C13.3125 14.1188 13.8187 13.725 14.1375 13.1813C14.4562 12.6375 14.5312 12 14.3812 11.3813C14.1 10.3313 13.1437 9.61876 12.0937 9.61876Z" fill="#3F4A54"/>
</svg>
