<svg width="291" height="224" viewBox="0 0 291 224" fill="none" xmlns="http://www.w3.org/2000/svg">
<g clip-path="url(#clip0)">
<path d="M67.0055 155.021L89.5358 119.526L39.0786 87.3833L13.0212 128.435L54.7556 155.021H67.0055Z" fill="#F0F0F0"/>
<path d="M98.9327 166.094H43.1245V154.84H98.9327V166.094ZM43.8493 165.368H98.2079V155.566H43.8493V165.368Z" fill="#3F3D56"/>
<path d="M92.0473 164.097C94.0487 164.097 95.6712 162.472 95.6712 160.467C95.6712 158.462 94.0487 156.836 92.0473 156.836C90.0458 156.836 88.4233 158.462 88.4233 160.467C88.4233 162.472 90.0458 164.097 92.0473 164.097Z" fill="#00D1B2"/>
<path d="M81.9003 164.097C83.9017 164.097 85.5242 162.472 85.5242 160.467C85.5242 158.462 83.9017 156.836 81.9003 156.836C79.8988 156.836 78.2764 158.462 78.2764 160.467C78.2764 162.472 79.8988 164.097 81.9003 164.097Z" fill="#00D1B2"/>
<path d="M71.7533 164.097C73.7547 164.097 75.3772 162.472 75.3772 160.467C75.3772 158.462 73.7547 156.836 71.7533 156.836C69.7519 156.836 68.1294 158.462 68.1294 160.467C68.1294 162.472 69.7519 164.097 71.7533 164.097Z" fill="#00D1B2"/>
<path d="M61.6066 164.097C63.608 164.097 65.2305 162.472 65.2305 160.467C65.2305 158.462 63.608 156.836 61.6066 156.836C59.6051 156.836 57.9827 158.462 57.9827 160.467C57.9827 162.472 59.6051 164.097 61.6066 164.097Z" fill="#00D1B2"/>
<path d="M51.4596 164.097C53.461 164.097 55.0835 162.472 55.0835 160.467C55.0835 158.462 53.461 156.836 51.4596 156.836C49.4582 156.836 47.8357 158.462 47.8357 160.467C47.8357 162.472 49.4582 164.097 51.4596 164.097Z" fill="#00D1B2"/>
<path d="M165.25 41.0243V13.4327H179.021V0H111.616V67.5268H169.237V60.9245C169.237 59.6938 169.479 58.4751 169.949 57.3381C170.419 56.201 171.108 55.1679 171.977 54.2976C172.845 53.4274 173.877 52.737 175.012 52.2661C176.147 51.7951 177.363 51.5527 178.592 51.5527H179.021V41.0243H165.25Z" fill="#F0F0F0"/>
<path d="M239.903 174.263H194.966V183.702H239.903V174.263Z" fill="#00D1B2"/>
<path d="M249.688 127.792H183.732V136.506H249.688V127.792Z" fill="#F0F0F0"/>
<path d="M281.94 223.274H0V224H281.94V223.274Z" fill="#3F3D56"/>
<path d="M260.989 224H178.592C176.015 223.997 173.545 222.971 171.724 221.145C169.902 219.32 168.877 216.846 168.874 214.265V60.9246C168.877 58.3436 169.902 55.8692 171.724 54.0442C173.545 52.2192 176.015 51.1926 178.592 51.1897H260.989C263.565 51.1926 266.035 52.2192 267.857 54.0442C269.679 55.8692 270.703 58.3436 270.706 60.9246V214.265C270.703 216.846 269.678 219.32 267.857 221.145C266.035 222.971 263.565 223.997 260.989 224ZM178.592 51.9158C176.207 51.9185 173.922 52.8685 172.236 54.5574C170.55 56.2463 169.602 58.5362 169.599 60.9246V214.265C169.602 216.654 170.55 218.943 172.236 220.632C173.922 222.321 176.207 223.271 178.592 223.274H260.989C263.373 223.271 265.659 222.321 267.345 220.632C269.03 218.943 269.979 216.654 269.981 214.265V60.9246C269.979 58.5362 269.03 56.2463 267.345 54.5574C265.659 52.8685 263.373 51.9185 260.989 51.9158H178.592Z" fill="#3F3D56"/>
<path d="M210.006 58.4506C209.576 58.4506 209.155 58.3228 208.798 58.0835C208.44 57.8441 208.161 57.5039 207.997 57.1059C207.832 56.7079 207.789 56.2699 207.873 55.8473C207.957 55.4248 208.164 55.0366 208.468 54.732C208.772 54.4274 209.16 54.2199 209.581 54.1359C210.003 54.0518 210.44 54.0949 210.838 54.2598C211.235 54.4247 211.575 54.7039 211.814 55.0621C212.052 55.4203 212.18 55.8415 212.18 56.2723C212.179 56.8498 211.95 57.4035 211.542 57.8119C211.135 58.2202 210.582 58.4499 210.006 58.4506ZM210.006 54.8201C209.719 54.8201 209.439 54.9053 209.2 55.0648C208.962 55.2244 208.776 55.4512 208.666 55.7166C208.557 55.9819 208.528 56.2739 208.584 56.5556C208.64 56.8373 208.778 57.096 208.981 57.2991C209.183 57.5022 209.442 57.6405 209.723 57.6966C210.004 57.7526 210.295 57.7239 210.56 57.6139C210.825 57.504 211.052 57.3179 211.211 57.0791C211.37 56.8403 211.455 56.5595 211.455 56.2723C211.455 55.8873 211.302 55.5181 211.03 55.2459C210.758 54.9736 210.39 54.8205 210.006 54.8201Z" fill="#3F3D56"/>
<path d="M231.387 55.9093H215.441V56.6354H231.387V55.9093Z" fill="#3F3D56"/>
<path d="M264.183 61.718V90.7618C256.494 90.7614 249.12 87.7014 243.684 82.2547C238.247 76.808 235.192 69.4208 235.192 61.718H264.183Z" fill="#00D1B2"/>
<path d="M264.545 214.198H175.035V61.355H264.545V214.198ZM175.76 213.472H263.821V62.0811H175.76V213.472Z" fill="#3F3D56"/>
<path opacity="0.1" d="M243.164 88.9466C248.568 88.9466 252.949 84.5579 252.949 79.1443C252.949 73.7307 248.568 69.342 243.164 69.342C237.761 69.342 233.38 73.7307 233.38 79.1443C233.38 84.5579 237.761 88.9466 243.164 88.9466Z" fill="black"/>
<path d="M241.715 90.0357C247.119 90.0357 251.499 85.6471 251.499 80.2334C251.499 74.8198 247.119 70.4312 241.715 70.4312C236.311 70.4312 231.93 74.8198 231.93 80.2334C231.93 85.6471 236.311 90.0357 241.715 90.0357Z" fill="#00D1B2"/>
<path d="M192.792 67.5267H179.021V72.6094H192.792V67.5267Z" fill="#3F3D56"/>
<path d="M200.402 115.812H186.631V120.895H200.402V115.812Z" fill="#3F3D56"/>
<path d="M253.311 134.69H186.631V125.251H253.311V134.69ZM187.356 133.964H252.586V125.977H187.356V133.964Z" fill="#3F3D56"/>
<path d="M249.688 155.384H183.732V164.097H249.688V155.384Z" fill="#F0F0F0"/>
<path d="M200.402 143.404H186.631V148.486H200.402V143.404Z" fill="#3F3D56"/>
<path d="M253.311 162.282H186.631V152.843H253.311V162.282ZM187.356 161.556H252.586V153.569H187.356V161.556Z" fill="#3F3D56"/>
<path d="M242.802 181.523H197.141V171.358H242.802V181.523ZM197.865 180.797H242.077V172.084H197.865V180.797Z" fill="#3F3D56"/>
<path d="M251.499 131.06C251.499 131.807 251.269 132.537 250.84 133.148C250.411 133.759 249.804 134.223 249.102 134.476C248.4 134.729 247.637 134.759 246.917 134.561C246.198 134.364 245.557 133.949 245.082 133.373L245.078 133.369C244.731 132.948 244.484 132.454 244.355 131.924C244.225 131.394 244.216 130.842 244.329 130.308C244.441 129.775 244.673 129.273 245.006 128.841C245.338 128.409 245.764 128.058 246.251 127.814C246.738 127.57 247.274 127.438 247.818 127.43C248.363 127.422 248.902 127.536 249.396 127.766C249.891 127.995 250.327 128.333 250.673 128.754C251.019 129.175 251.265 129.67 251.394 130.2C251.394 130.2 251.394 130.201 251.395 130.201C251.395 130.201 251.395 130.202 251.395 130.202C251.396 130.203 251.396 130.203 251.397 130.203C251.397 130.203 251.398 130.203 251.398 130.203C251.465 130.484 251.499 130.771 251.499 131.06Z" fill="#00D1B2"/>
<path opacity="0.1" d="M251.499 131.06C251.499 131.807 251.269 132.537 250.84 133.148C250.411 133.759 249.804 134.223 249.102 134.476C248.4 134.729 247.637 134.759 246.917 134.561C246.198 134.364 245.557 133.949 245.081 133.373L245.078 133.369C245.011 133.088 244.977 132.801 244.976 132.512C244.976 131.765 245.207 131.036 245.636 130.424C246.065 129.813 246.672 129.349 247.374 129.096C248.076 128.843 248.839 128.813 249.558 129.011C250.278 129.208 250.919 129.623 251.394 130.2C251.394 130.2 251.394 130.201 251.395 130.201C251.395 130.201 251.395 130.202 251.395 130.202C251.396 130.202 251.396 130.203 251.396 130.203C251.397 130.203 251.397 130.203 251.398 130.203C251.465 130.484 251.499 130.771 251.499 131.06Z" fill="black"/>
<path d="M249.325 136.869C251.327 136.869 252.949 135.243 252.949 133.238C252.949 131.233 251.327 129.608 249.325 129.608C247.324 129.608 245.701 131.233 245.701 133.238C245.701 135.243 247.324 136.869 249.325 136.869Z" fill="#00D1B2"/>
<path d="M251.499 158.652C251.499 159.399 251.269 160.128 250.84 160.74C250.411 161.351 249.804 161.815 249.102 162.068C248.4 162.321 247.637 162.35 246.917 162.153C246.198 161.955 245.557 161.54 245.082 160.964L245.078 160.961C244.731 160.54 244.484 160.046 244.355 159.516C244.225 158.986 244.216 158.434 244.329 157.9C244.441 157.366 244.673 156.865 245.006 156.433C245.338 156.001 245.764 155.65 246.251 155.405C246.738 155.161 247.274 155.03 247.818 155.022C248.363 155.013 248.902 155.128 249.396 155.357C249.891 155.586 250.327 155.924 250.673 156.346C251.019 156.767 251.265 157.261 251.394 157.791C251.394 157.792 251.394 157.792 251.395 157.793C251.395 157.793 251.395 157.793 251.395 157.794C251.396 157.794 251.396 157.794 251.397 157.795C251.397 157.795 251.398 157.795 251.398 157.795C251.465 158.075 251.499 158.363 251.499 158.652Z" fill="#00D1B2"/>
<path opacity="0.1" d="M251.499 158.652C251.499 159.399 251.269 160.128 250.84 160.74C250.411 161.351 249.804 161.815 249.102 162.068C248.4 162.321 247.637 162.35 246.917 162.153C246.198 161.955 245.557 161.54 245.081 160.964L245.078 160.961C245.011 160.68 244.977 160.392 244.976 160.104C244.976 159.356 245.207 158.627 245.636 158.016C246.065 157.404 246.672 156.941 247.374 156.688C248.076 156.435 248.839 156.405 249.558 156.602C250.278 156.8 250.919 157.215 251.394 157.791C251.394 157.792 251.394 157.792 251.395 157.793C251.395 157.793 251.395 157.793 251.395 157.794C251.396 157.794 251.396 157.794 251.396 157.794C251.397 157.795 251.397 157.795 251.398 157.795C251.465 158.075 251.499 158.363 251.499 158.652Z" fill="black"/>
<path d="M249.325 164.46C251.327 164.46 252.949 162.835 252.949 160.83C252.949 158.825 251.327 157.199 249.325 157.199C247.324 157.199 245.701 158.825 245.701 160.83C245.701 162.835 247.324 164.46 249.325 164.46Z" fill="#00D1B2"/>
<path d="M188.443 17.4263H169.599V36.3047H188.443V17.4263Z" fill="#F0F0F0"/>
<path d="M243.164 31.222C242.304 31.222 241.463 30.9665 240.748 30.4878C240.033 30.0091 239.476 29.3287 239.147 28.5327C238.818 27.7366 238.731 26.8606 238.899 26.0156C239.067 25.1705 239.481 24.3942 240.089 23.7849C240.698 23.1756 241.472 22.7607 242.316 22.5926C243.16 22.4245 244.034 22.5108 244.829 22.8405C245.623 23.1703 246.302 23.7287 246.78 24.4451C247.258 25.1615 247.513 26.0038 247.513 26.8655C247.512 28.0205 247.053 29.1279 246.238 29.9446C245.423 30.7613 244.317 31.2208 243.164 31.222ZM243.164 23.235C242.448 23.235 241.747 23.4479 241.151 23.8469C240.555 24.2458 240.091 24.8128 239.816 25.4762C239.542 26.1395 239.47 26.8695 239.61 27.5737C239.75 28.278 240.095 28.9249 240.602 29.4326C241.109 29.9403 241.754 30.2861 242.457 30.4262C243.16 30.5663 243.889 30.4944 244.551 30.2196C245.213 29.9448 245.779 29.4795 246.178 28.8825C246.576 28.2854 246.788 27.5835 246.788 26.8655C246.787 25.903 246.405 24.9802 245.726 24.2996C245.046 23.619 244.125 23.2361 243.164 23.235Z" fill="#3F3D56"/>
<path d="M147.493 91.851H138.071V82.4117H147.493V91.851ZM138.796 91.1249H146.768V83.1378H138.796V91.1249Z" fill="#3F3D56"/>
<path d="M291 162.282H281.578V152.843H291V162.282ZM282.303 161.556H290.275V153.569H282.303V161.556Z" fill="#3F3D56"/>
<path d="M105.094 98.9907L106.711 99.8632L112.213 102.834L121.095 107.628L126.272 98.0069C126.759 97.1028 127.064 96.1114 127.168 95.0892C127.273 94.0671 127.175 93.0343 126.881 92.05C126.587 91.0657 126.101 90.1492 125.453 89.353C124.805 88.5568 124.006 87.8965 123.103 87.4099C121.172 86.3656 118.961 85.9621 116.787 86.2576C114.613 86.5531 112.589 87.5323 111.006 89.0542L111.003 89.0569C110.224 89.8063 109.567 90.6728 109.055 91.6253L105.094 98.9907Z" fill="#2F2E41"/>
<path d="M129.337 197.112L128.252 209.07L124.183 209.613L121.47 196.024L129.337 197.112Z" fill="#FFB8B8"/>
<path d="M123.098 209.614C123.098 209.614 128.252 206.896 129.337 209.07C129.337 209.07 128.524 215.593 131.779 216.408C135.035 217.224 136.391 222.931 131.779 223.475C127.167 224.018 124.183 222.388 122.555 222.388C120.927 222.388 122.555 216.68 122.555 216.68L123.098 209.614Z" fill="#2F2E41"/>
<path d="M96.5105 197.112L97.5959 209.07L101.665 209.613L104.378 196.024L96.5105 197.112Z" fill="#FFB8B8"/>
<path d="M102.75 209.614C102.75 209.614 97.5957 206.896 96.5105 209.07C96.5105 209.07 97.3244 215.593 94.0689 216.408C90.8133 217.224 89.4568 222.931 94.0689 223.475C98.6809 224.018 101.665 222.388 103.293 222.388C104.921 222.388 103.293 216.68 103.293 216.68L102.75 209.614Z" fill="#2F2E41"/>
<path d="M118.757 101.171C122.652 101.171 125.811 98.0068 125.811 94.1041C125.811 90.2014 122.652 87.0376 118.757 87.0376C114.861 87.0376 111.703 90.2014 111.703 94.1041C111.703 98.0068 114.861 101.171 118.757 101.171Z" fill="#FFB8B8"/>
<path d="M96.2393 107.965L101.936 116.934L108.719 116.391L119.842 117.206C119.842 117.206 120.892 115.102 121.749 113.056C122.219 112.034 122.58 110.965 122.826 109.868C123.098 107.965 119.299 106.063 119.299 106.063C119.299 106.063 119.15 106.035 118.901 105.976C118.57 105.897 118.06 105.766 117.501 105.576C116.239 105.147 114.723 104.418 114.416 103.345C113.874 101.442 117.943 98.7244 117.943 98.7244L113.06 94.104C113.06 94.104 108.722 100.14 103.453 101.516C103.148 101.597 102.838 101.66 102.525 101.706C102.509 101.709 102.495 101.711 102.479 101.714C96.7818 102.529 96.2393 107.965 96.2393 107.965Z" fill="#FFB8B8"/>
<path d="M99.2233 105.519L96.2391 107.965C96.2391 107.965 93.7974 119.652 94.6113 122.913C95.4252 126.175 94.34 129.165 94.34 129.708C94.34 130.252 91.8983 150.636 91.8983 150.636C91.8983 150.636 87.015 161.507 92.1696 160.42C97.3243 159.333 95.4252 148.461 95.4252 148.461L101.665 129.436V113.401L99.2233 105.519Z" fill="#FFB8B8"/>
<path d="M120.656 107.693L122.826 109.324L123.912 132.154L132.05 151.723C132.05 151.723 138.019 161.235 134.221 161.507C130.423 161.779 127.981 151.723 127.981 151.723L120.656 132.97L119.571 114.76L120.656 107.693Z" fill="#FFB8B8"/>
<path d="M107.091 109.324C107.091 109.324 112.517 113.129 121.198 111.77C121.198 111.77 123.64 116.662 122.284 119.38C120.927 122.098 123.911 128.621 124.454 129.436C124.997 130.252 131.236 147.103 133.407 165.312C135.577 183.522 141.546 196.024 136.391 197.655C131.236 199.286 120.656 201.188 119.571 199.558C118.485 197.927 116.858 157.43 116.858 157.43L113.873 172.922C113.873 172.922 117.943 199.286 114.959 199.829C111.974 200.373 93.2549 198.742 93.7975 195.481C94.34 192.219 99.766 175.097 99.766 175.097C99.766 175.097 99.4947 140.851 104.921 134.329C104.921 134.329 107.091 130.795 104.107 126.175C101.122 121.555 101.394 114.216 101.394 114.216C101.394 114.216 103.564 114.216 107.091 109.324Z" fill="#2F2E41"/>
<path d="M102.525 101.706L107.091 111.77L108.176 111.227L103.453 101.516L102.525 101.706Z" fill="#2F2E41"/>
<path d="M117.501 105.576L120.927 113.129L121.75 113.056L121.47 111.77L118.901 105.976C118.57 105.897 118.06 105.766 117.501 105.576Z" fill="#2F2E41"/>
<path d="M106.711 99.8633C106.972 100.704 107.475 101.449 108.157 102.005C108.838 102.561 109.668 102.903 110.543 102.988C111.418 103.073 112.298 102.898 113.074 102.484C113.85 102.071 114.487 101.437 114.904 100.662C111.473 96.167 114.416 93.3431 119.991 91.2068C120.411 90.426 120.59 89.5377 120.504 88.6549C120.419 87.7721 120.073 86.9348 119.511 86.2494C117.974 86.0525 116.413 86.2022 114.942 86.6875C113.47 87.1728 112.125 87.9814 111.006 89.0543L111.003 89.057L107.042 96.417C106.76 96.9402 106.586 97.5147 106.529 98.1066C106.472 98.6985 106.534 99.2958 106.711 99.8633Z" fill="#2F2E41"/>
<path d="M114.552 96.5501C115.076 96.5501 115.501 95.82 115.501 94.9194C115.501 94.0188 115.076 93.2887 114.552 93.2887C114.027 93.2887 113.602 94.0188 113.602 94.9194C113.602 95.82 114.027 96.5501 114.552 96.5501Z" fill="#FFB8B8"/>
<path d="M117.381 92.2585L125.537 95.9603L127.031 92.6553C126.774 91.4474 126.235 90.3177 125.458 89.3585L119.845 86.8119L117.381 92.2585Z" fill="#2F2E41"/>
<path d="M136.984 165.186C138.985 165.186 140.608 163.561 140.608 161.556C140.608 159.551 138.985 157.926 136.984 157.926C134.982 157.926 133.36 159.551 133.36 161.556C133.36 163.561 134.982 165.186 136.984 165.186Z" fill="#00D1B2"/>
<path d="M20.6406 186.768C21.9486 186.768 23.0089 185.706 23.0089 184.396C23.0089 183.085 21.9486 182.023 20.6406 182.023C19.3326 182.023 18.2722 183.085 18.2722 184.396C18.2722 185.706 19.3326 186.768 20.6406 186.768Z" fill="#FF6584"/>
<path d="M32.6061 196.762H31.8813V223.776H32.6061V196.762Z" fill="#3F3D56"/>
<path d="M32.244 200.582C34.3501 200.582 36.0574 198.871 36.0574 196.761C36.0574 194.652 34.3501 192.941 32.244 192.941C30.138 192.941 28.4307 194.652 28.4307 196.761C28.4307 198.871 30.138 200.582 32.244 200.582Z" fill="#3F3D56"/>
<path d="M32.2438 213.411C32.2438 213.411 31.699 201.673 20.5312 203.038L32.2438 213.411Z" fill="#3F3D56"/>
</g>
<defs>
<clipPath id="clip0">
<rect width="291" height="224" fill="white"/>
</clipPath>
</defs>
</svg>
