<svg width="111" height="21" viewBox="0 0 111 21" fill="none" xmlns="http://www.w3.org/2000/svg">
<rect width="111" height="21" fill="#00D1B2"/>
<path d="M17.9062 6.19727L15.1377 16H13.791L11.7744 8.83594C11.6878 8.5306 11.6354 8.19792 11.6172 7.83789H11.5898C11.5625 8.17513 11.5033 8.50326 11.4121 8.82227L9.38184 16H8.04883L5.17773 6.19727H6.44238L8.52734 13.7168C8.61393 14.0312 8.66862 14.3594 8.69141 14.7012H8.72559C8.74837 14.4596 8.81901 14.1315 8.9375 13.7168L11.1045 6.19727H12.2051L14.2832 13.7715C14.3561 14.0312 14.4108 14.3366 14.4473 14.6875H14.4746C14.4928 14.4505 14.5544 14.1361 14.6592 13.7441L16.6621 6.19727H17.9062ZM24.2979 12.7803H19.3555C19.3737 13.5596 19.5833 14.1611 19.9844 14.585C20.3854 15.0088 20.9368 15.2207 21.6387 15.2207C22.4271 15.2207 23.1517 14.9609 23.8125 14.4414V15.4941C23.1973 15.9408 22.3838 16.1641 21.3721 16.1641C20.3831 16.1641 19.6061 15.8473 19.041 15.2139C18.4759 14.5758 18.1934 13.6803 18.1934 12.5273C18.1934 11.4382 18.501 10.5518 19.1162 9.86816C19.736 9.18001 20.5039 8.83594 21.4199 8.83594C22.3359 8.83594 23.0446 9.13216 23.5459 9.72461C24.0472 10.3171 24.2979 11.1396 24.2979 12.1924V12.7803ZM23.1494 11.8301C23.1449 11.1829 22.9876 10.6794 22.6777 10.3193C22.3724 9.95931 21.9463 9.7793 21.3994 9.7793C20.8708 9.7793 20.4219 9.96842 20.0527 10.3467C19.6836 10.7249 19.4557 11.2194 19.3691 11.8301H23.1494ZM27.1211 16H26V5.63672H27.1211V16ZM34.1621 15.6787C33.6243 16.0023 32.9863 16.1641 32.248 16.1641C31.25 16.1641 30.4434 15.8405 29.8281 15.1934C29.2174 14.5417 28.9121 13.6986 28.9121 12.6641C28.9121 11.5111 29.2425 10.5859 29.9033 9.88867C30.5641 9.18685 31.446 8.83594 32.5488 8.83594C33.1641 8.83594 33.7064 8.94987 34.1758 9.17773V10.3262C33.6562 9.96159 33.1003 9.7793 32.5078 9.7793C31.7923 9.7793 31.2044 10.0368 30.7441 10.5518C30.2884 11.0622 30.0605 11.7344 30.0605 12.5684C30.0605 13.3887 30.2747 14.0358 30.7031 14.5098C31.1361 14.9837 31.7148 15.2207 32.4395 15.2207C33.0501 15.2207 33.6243 15.0179 34.1621 14.6123V15.6787ZM38.7832 16.1641C37.7487 16.1641 36.9215 15.8382 36.3018 15.1865C35.6865 14.5303 35.3789 13.6621 35.3789 12.582C35.3789 11.4062 35.7002 10.488 36.3428 9.82715C36.9854 9.16634 37.8535 8.83594 38.9473 8.83594C39.9909 8.83594 40.8044 9.15723 41.3877 9.7998C41.9756 10.4424 42.2695 11.3333 42.2695 12.4727C42.2695 13.5892 41.9528 14.4847 41.3193 15.1592C40.6904 15.8291 39.8451 16.1641 38.7832 16.1641ZM38.8652 9.7793C38.1452 9.7793 37.5755 10.0254 37.1562 10.5176C36.737 11.0052 36.5273 11.6797 36.5273 12.541C36.5273 13.3704 36.7393 14.0244 37.1631 14.5029C37.5869 14.9814 38.1543 15.2207 38.8652 15.2207C39.5898 15.2207 40.1458 14.986 40.5332 14.5166C40.9251 14.0472 41.1211 13.3796 41.1211 12.5137C41.1211 11.6387 40.9251 10.9642 40.5332 10.4902C40.1458 10.0163 39.5898 9.7793 38.8652 9.7793ZM54 16H52.8789V11.9805C52.8789 11.2057 52.7581 10.6452 52.5166 10.2988C52.2796 9.95247 51.8786 9.7793 51.3135 9.7793C50.835 9.7793 50.4271 9.99805 50.0898 10.4355C49.7572 10.873 49.5908 11.3971 49.5908 12.0078V16H48.4697V11.8438C48.4697 10.4674 47.9388 9.7793 46.877 9.7793C46.3848 9.7793 45.9792 9.98665 45.6602 10.4014C45.3411 10.8115 45.1816 11.347 45.1816 12.0078V16H44.0605V9H45.1816V10.1074H45.209C45.7057 9.25977 46.4303 8.83594 47.3828 8.83594C47.8613 8.83594 48.2783 8.97038 48.6338 9.23926C48.9893 9.50358 49.2331 9.85221 49.3652 10.2852C49.8848 9.31901 50.6595 8.83594 51.6895 8.83594C53.2298 8.83594 54 9.78613 54 11.6865V16ZM61.7451 12.7803H56.8027C56.821 13.5596 57.0306 14.1611 57.4316 14.585C57.8327 15.0088 58.3841 15.2207 59.0859 15.2207C59.8743 15.2207 60.599 14.9609 61.2598 14.4414V15.4941C60.6445 15.9408 59.8311 16.1641 58.8193 16.1641C57.8304 16.1641 57.0534 15.8473 56.4883 15.2139C55.9232 14.5758 55.6406 13.6803 55.6406 12.5273C55.6406 11.4382 55.9482 10.5518 56.5635 9.86816C57.1833 9.18001 57.9512 8.83594 58.8672 8.83594C59.7832 8.83594 60.4919 9.13216 60.9932 9.72461C61.4945 10.3171 61.7451 11.1396 61.7451 12.1924V12.7803ZM60.5967 11.8301C60.5921 11.1829 60.4349 10.6794 60.125 10.3193C59.8197 9.95931 59.3936 9.7793 58.8467 9.7793C58.318 9.7793 57.8691 9.96842 57.5 10.3467C57.1309 10.7249 56.903 11.2194 56.8164 11.8301H60.5967ZM74.8086 16H73.6602V11.5293H68.5879V16H67.4395V6.19727H68.5879V10.4971H73.6602V6.19727H74.8086V16ZM80.1543 16.1641C79.1198 16.1641 78.2926 15.8382 77.6729 15.1865C77.0576 14.5303 76.75 13.6621 76.75 12.582C76.75 11.4062 77.0713 10.488 77.7139 9.82715C78.3564 9.16634 79.2246 8.83594 80.3184 8.83594C81.362 8.83594 82.1755 9.15723 82.7588 9.7998C83.3467 10.4424 83.6406 11.3333 83.6406 12.4727C83.6406 13.5892 83.3239 14.4847 82.6904 15.1592C82.0615 15.8291 81.2161 16.1641 80.1543 16.1641ZM80.2363 9.7793C79.5163 9.7793 78.9466 10.0254 78.5273 10.5176C78.1081 11.0052 77.8984 11.6797 77.8984 12.541C77.8984 13.3704 78.1104 14.0244 78.5342 14.5029C78.958 14.9814 79.5254 15.2207 80.2363 15.2207C80.9609 15.2207 81.5169 14.986 81.9043 14.5166C82.2962 14.0472 82.4922 13.3796 82.4922 12.5137C82.4922 11.6387 82.2962 10.9642 81.9043 10.4902C81.5169 10.0163 80.9609 9.7793 80.2363 9.7793ZM95.3711 16H94.25V11.9805C94.25 11.2057 94.1292 10.6452 93.8877 10.2988C93.6507 9.95247 93.2497 9.7793 92.6846 9.7793C92.2061 9.7793 91.7982 9.99805 91.4609 10.4355C91.1283 10.873 90.9619 11.3971 90.9619 12.0078V16H89.8408V11.8438C89.8408 10.4674 89.3099 9.7793 88.248 9.7793C87.7559 9.7793 87.3503 9.98665 87.0312 10.4014C86.7122 10.8115 86.5527 11.347 86.5527 12.0078V16H85.4316V9H86.5527V10.1074H86.5801C87.0768 9.25977 87.8014 8.83594 88.7539 8.83594C89.2324 8.83594 89.6494 8.97038 90.0049 9.23926C90.3604 9.50358 90.6042 9.85221 90.7363 10.2852C91.2559 9.31901 92.0306 8.83594 93.0605 8.83594C94.6009 8.83594 95.3711 9.78613 95.3711 11.6865V16ZM103.116 12.7803H98.1738C98.1921 13.5596 98.4017 14.1611 98.8027 14.585C99.2038 15.0088 99.7552 15.2207 100.457 15.2207C101.245 15.2207 101.97 14.9609 102.631 14.4414V15.4941C102.016 15.9408 101.202 16.1641 100.19 16.1641C99.2015 16.1641 98.4245 15.8473 97.8594 15.2139C97.2943 14.5758 97.0117 13.6803 97.0117 12.5273C97.0117 11.4382 97.3193 10.5518 97.9346 9.86816C98.5544 9.18001 99.3223 8.83594 100.238 8.83594C101.154 8.83594 101.863 9.13216 102.364 9.72461C102.866 10.3171 103.116 11.1396 103.116 12.1924V12.7803ZM101.968 11.8301C101.963 11.1829 101.806 10.6794 101.496 10.3193C101.191 9.95931 100.765 9.7793 100.218 9.7793C99.6891 9.7793 99.2402 9.96842 98.8711 10.3467C98.502 10.7249 98.2741 11.2194 98.1875 11.8301H101.968Z" fill="white"/>
</svg>
